<?xml version="1.0" standalone="no"?>
<!DOCTYPE svg PUBLIC "-//W3C//DTD SVG 20010904//EN"
 "http://www.w3.org/TR/2001/REC-SVG-20010904/DTD/svg10.dtd">
<svg version="1.0" xmlns="http://www.w3.org/2000/svg"
 width="16.000000pt" height="16.000000pt" viewBox="0 0 16.000000 16.000000"
 preserveAspectRatio="xMidYMid meet">
<metadata>
Created by potrace 1.11, written by Peter Selinger 2001-2013
</metadata>
<g transform="translate(0.000000,16.000000) scale(0.008000,-0.008000)"
fill="#000000" stroke="none">
<path d="M229 1446 c-20 -10 -112 -164 -104 -174 2 -2 -4 -24 -12 -50 -38
-124 -37 -340 3 -472 21 -71 69 -166 99 -196 17 -17 31 -22 56 -19 65 9 75 55
30 137 -97 177 -100 443 -7 629 20 39 36 81 36 93 -1 48 -54 76 -101 52z"/>
<path d="M1696 1448 c-39 -22 -39 -57 -2 -132 51 -103 68 -176 72 -301 4 -131
-16 -231 -67 -333 -40 -82 -42 -100 -13 -129 26 -26 45 -29 77 -11 28 14 39
30 71 94 104 210 102 514 -4 723 -15 31 -36 64 -46 73 -24 21 -65 29 -88 16z"/>
<path d="M603 1335 c-55 -23 -74 -82 -43 -133 35 -57 104 -65 149 -18 45 48
27 126 -34 152 -40 16 -32 17 -72 -1z"/>
<path d="M1321 1336 c-80 -28 -79 -148 2 -175 82 -28 153 52 116 132 -20 44
-65 61 -118 43z"/>
<path d="M655 746 c-24 -37 -6 -67 59 -100 93 -47 177 -64 296 -61 116 4 184
21 273 67 51 28 57 34 57 62 0 61 -31 70 -108 31 -116 -58 -273 -70 -398 -31
-39 13 -82 30 -95 40 -33 23 -66 20 -84 -8z"/>
</g>
</svg>
