<?xml version="1.0" standalone="no"?>
<!DOCTYPE svg PUBLIC "-//W3C//DTD SVG 20010904//EN"
 "http://www.w3.org/TR/2001/REC-SVG-20010904/DTD/svg10.dtd">
<svg version="1.0" xmlns="http://www.w3.org/2000/svg"
 width="16.000000pt" height="16.000000pt" viewBox="0 0 16.000000 16.000000"
 preserveAspectRatio="xMidYMid meet">
<metadata>
Created by potrace 1.11, written by Peter Selinger 2001-2013
</metadata>
<g transform="translate(0.000000,16.000000) scale(0.008000,-0.008000)"
fill="#000000" stroke="none">
<path d="M0 1407 l0 -593 78 -13 c109 -18 371 -84 474 -120 l87 -29 3 361 c4
347 5 365 27 424 81 222 279 374 506 389 69 5 84 3 112 -15 44 -27 64 -62 65
-108 0 -50 -24 -99 -60 -117 -15 -8 -60 -19 -99 -24 -184 -26 -293 -159 -293
-358 l0 -43 63 23 c90 34 183 42 226 19 48 -25 72 -62 73 -109 1 -74 -51 -134
-115 -134 -46 0 -128 -31 -163 -62 -63 -56 -78 -98 -79 -223 l0 -109 75 -23
c111 -35 300 -71 430 -83 63 -6 133 -12 156 -14 49 -5 124 -26 124 -36 0 -8
32 -6 47 3 6 4 18 1 25 -7 20 -19 63 -32 53 -16 -8 13 17 10 59 -6 9 -4 16 -1
16 6 0 10 3 10 15 0 13 -11 13 -14 -2 -27 -16 -13 -16 -13 5 -3 13 6 30 9 39
6 10 -4 13 -2 10 7 -4 10 2 13 19 9 l24 -4 0 811 0 811 -1000 0 -1000 0 0
-593z"/>
</g>
</svg>
