<?xml version="1.0" encoding="UTF-8"?>
<svg width="181px" height="59px" viewBox="0 0 181 59" version="1.1" xmlns="http://www.w3.org/2000/svg" xmlns:xlink="http://www.w3.org/1999/xlink">
    <!-- Generator: Sketch 42 (36781) - http://www.bohemiancoding.com/sketch -->
    <title>Group</title>
    <desc>Created with Sketch.</desc>
    <defs></defs>
    <g id="Page-1" stroke="none" stroke-width="1" fill="none" fill-rule="evenodd">
        <g id="CCIformation" fill-rule="nonzero" fill="#000000">
            <g id="Group">
                <path d="M14.6,30.5 C16.3,30.4 17.8,30.8 19.4,31.3 C19.9,31.5 20.2,31.7 19.9,32.3 C19.4,33.2 19.1,34.1 18.7,35 C18.5,35.6 18.2,35.6 17.7,35.4 C12.2,33.6 6.6,36.6 5.2,42.2 C3.6,48.3 8.4,54.3 14.7,54.2 C16.5,54.2 18.1,53.8 19.6,52.8 C20.3,52.3 20.6,52.5 21.1,53.1 C21.4,53.5 21.8,53.9 22.2,54.4 C23.5,56 23.8,55.6 21.9,56.8 C13.4,62 2.2,56.6 0.7,46.8 C-0.4,39.6 4.3,31.6 13.1,30.5 C13.4,30.4 14,30.5 14.6,30.5 Z" id="Shape"></path>
                <path d="M21.1,11.8 C21.2,9.9 21.3,8.1 21.8,6.3 C22.7,3.2 24.8,1.4 27.8,0.7 C30.1,0.2 32.4,0.3 34.7,0.9 C37.6,1.7 39.8,4.6 39.8,7.5 C39.8,7.9 39.8,8.1 39.3,8.2 C38,8.4 36.7,8.6 35.4,8.8 C35,8.9 35.1,8.5 35,8.2 C34.8,7 34.4,5.8 33.3,5 C30.9,3.4 27.1,4.6 26.3,7.3 C25.4,10.3 25.5,13.4 26.3,16.4 C26.9,18.5 28.8,19.5 31.4,19.3 C33.7,19.1 34.7,18.3 35.1,15.9 C35.3,14.9 35.6,14.4 36.7,14.7 C37.6,14.9 38.5,14.9 39.4,15 C40,15 40.2,15.2 40.1,15.8 C39.3,20.5 36.3,23 31.4,23.2 C28.4,23.3 25.6,23 23.5,20.6 C21.8,18.7 21.4,16.3 21.2,13.8 C21.2,13.2 21.2,12.5 21.1,11.8 Z" id="Shape"></path>
                <path d="M4.9,11.9 C4.8,13.4 4.9,14.9 5.4,16.4 C6.1,18.5 7.9,19.6 10.5,19.4 C12.8,19.2 13.8,18.3 14.2,15.9 C14.3,15.1 14.5,14.5 15.6,14.8 C16.5,15.1 17.6,15.1 18.6,15.1 C19.2,15.1 19.3,15.3 19.2,15.9 C18.2,20.8 15.4,23.1 10.4,23.3 C9,23.3 7.7,23.3 6.4,23 C2.9,22.1 1.3,19.6 0.7,16.2 C-5.55111512e-17,12.9 0.1,9.7 0.8,6.5 C1.8,2.8 4.7,0.6 9,0.5 C10.6,0.4 12.2,0.5 13.7,0.9 C17.4,1.9 18.4,4.8 19,7.6 C19.1,8.1 18.8,8.2 18.4,8.3 C17.2,8.5 16,8.7 14.8,8.9 C14.5,8.9 14.2,8.9 14.2,8.5 C14.2,8.3 14.1,8.2 14.1,8 C13.7,5.3 12,4.4 9.8,4.5 C7.2,4.6 5.6,5.9 5.1,8.5 C4.9,9.6 4.8,10.8 4.9,11.9 Z" id="Shape"></path>
                <path d="M98,9.8 C99.9,8.4 101.8,8 103.8,8.4 C104.1,8.5 104.6,8.5 104.8,8.7 C105.7,10 106.6,9.5 107.7,8.9 C109.2,8.1 111,8.1 112.7,8.5 C114.1,8.8 114.9,9.9 115,11.2 C115.4,15 115.1,18.8 115.2,22.6 C115.2,23.1 115,23.3 114.5,23.2 L114.4,23.2 C111.3,23.4 111.3,23.4 111.3,20.3 L111.3,13.9 C111.3,12.3 110.9,11.8 109.7,11.7 C108.1,11.5 107.2,12.1 106.8,13.5 C106.4,15.1 106.7,16.7 106.6,18.3 L106.6,22.4 C106.6,23 106.4,23.3 105.8,23.2 L105.7,23.2 C102.8,23.3 102.8,23.3 102.8,20.3 L102.8,13.9 C102.8,12.2 102.3,11.6 100.9,11.6 C99.3,11.5 98.3,12.3 98.3,13.8 C98.2,16.5 98.2,19.2 98.2,21.9 C98.2,22.8 98,23.1 97.1,23 C94.3,23 94.3,23 94.3,20.2 L94.3,9.3 C94.3,8.5 94.5,8.2 95.3,8.3 C95.9,8.4 96.4,8.3 97,8.3 C97.6,8.4 98.4,8.3 98,9.8 Z" id="Shape"></path>
                <path d="M171.8,9.9 C173.2,8.8 174.5,8.4 175.9,8.2 C178.8,7.9 180.6,9.3 180.7,12.3 C180.8,15.7 180.7,19.1 180.7,22.5 C180.7,23 180.5,23.3 180,23.2 L179.9,23.2 C176.8,23.4 176.8,23.4 176.8,20.2 L176.8,14.1 C176.8,12.5 176.3,11.8 175.1,11.7 C173.4,11.5 172.5,12.1 172,13.6 C171.9,14.1 171.8,14.6 171.8,15.1 L171.8,22.3 C171.8,23 171.6,23.2 170.9,23.2 C167.9,23.3 167.9,23.3 167.9,20.3 L167.9,9.5 C167.9,8.7 168.1,8.4 168.9,8.5 C169.5,8.6 170.1,8.6 170.7,8.5 C171.7,8.3 172.1,8.6 171.8,9.9 Z" id="Shape"></path>
                <path d="M59.1,17.5 L59.1,12.9 C59.1,12.1 58.8,11.8 58.1,11.9 L57.3,11.9 L56.9,11.9 C56,11.1 56.6,10.1 56.5,9.2 C56.4,8.7 56.5,8.4 57.1,8.4 C59.1,8.3 59.1,8.2 59.1,6.3 C59.1,3.2 60.3,1.9 63.4,1.6 C66.4,1.3 66.4,1.3 66.3,4.3 C66.3,4.9 66,5 65.5,5 C63.3,5 62.9,5.5 62.9,7.7 C62.9,8.3 63.1,8.5 63.7,8.4 L63.8,8.4 C66.5,8.5 66.4,8.5 66.3,11.3 C66.3,11.8 66.1,12 65.6,12 C64.7,12 63.6,11.6 63.1,12.2 C62.6,12.8 62.9,14 62.9,14.9 L62.9,22.3 C62.9,22.9 62.8,23.2 62.1,23.2 C59.1,23.3 59.1,23.3 59.1,20.3 C59.1,19.3 59.1,18.4 59.1,17.5 Z" id="Shape"></path>
                <path d="M135.1,16.2 L135.1,13 C135.1,12.3 135,12 134.2,12 C132.5,12 132.5,12 132.5,10.3 L132.5,9.6 C132.4,8.8 132.7,8.5 133.5,8.5 C135.3,8.5 135.1,8.8 135.1,6.9 C135.1,4.3 135.1,4.4 137.7,4.3 C138.7,4.3 139.2,4.5 139,5.6 L139,5.7 C139,6.6 138.7,7.7 139.1,8.3 C139.6,8.9 140.7,8.5 141.6,8.5 C142.2,8.5 142.3,8.7 142.4,9.3 C142.5,12 142.5,12 139.9,12.1 C139.2,12.1 139,12.3 139,13 L139,18 C139,19.5 139.3,19.8 140.8,19.9 C141.3,19.9 142.1,19.5 142.3,20.2 C142.5,21.2 142.4,22.2 142.3,23.2 C142.3,23.4 141.9,23.4 141.6,23.4 C140.5,23.4 139.4,23.4 138.3,23.3 C136.3,23 135.3,22 135.2,20 L135.2,18.2 C135.1,17.4 135.1,16.8 135.1,16.2 Z" id="Shape"></path>
                <path d="M43.2,11.9 L43.2,1.6 C43.2,0.9 43.4,0.6 44.1,0.7 C45.1,0.8 46,0.8 47,0.7 C47.7,0.7 47.8,0.9 47.8,1.5 L47.8,22.3 C47.8,23 47.6,23.2 46.9,23.2 C45.7,23.1 44.2,23.7 43.4,23 C42.7,22.4 43.2,20.8 43.2,19.7 C43.2,17.1 43.2,14.5 43.2,11.9 Z" id="Shape"></path>
                <path d="M7,44.7 C6.8,39.8 11.6,35.9 16.7,37.4 C17.5,37.6 17.6,37.9 17.2,38.6 C16.9,39.1 16.7,39.7 16.5,40.2 C16.2,41.2 15.8,41.8 14.5,41.6 C12.8,41.4 11.3,43.2 11.5,44.9 C11.7,46.7 13.4,48 15.1,47.7 C15.4,47.6 15.7,47.5 16,47.8 C16.8,48.7 17.7,49.6 18.5,50.6 C19,51.2 18.3,51.3 18,51.5 C14.6,53.3 10.1,52 8.1,48.6 C7.3,47.3 6.9,46 7,44.7 Z" id="Shape"></path>
                <path d="M87.8,10.2 C88.8,9.2 89.7,8.7 90.7,8.4 C91.4,8.2 92,8.3 91.8,9.3 L91.8,9.5 C91.8,11.4 91.8,11.4 90,11.9 C88.5,12.3 87.8,13.3 87.8,14.9 L87.8,22.1 C87.8,22.8 87.7,23.1 86.8,23.1 C83.8,23.1 83.8,23.1 83.8,20 L83.8,9.3 C83.8,8.5 84,8.2 84.8,8.3 C85.3,8.4 85.8,8.4 86.2,8.3 C87.4,8.3 88.2,8.5 87.8,10.2 Z" id="Shape"></path>
                <path d="M145.2,15.8 L145.2,9.3 C145.2,8.6 145.4,8.4 146.1,8.4 C149.2,8.3 149.2,8.3 149.2,11.5 L149.2,21.9 C149.2,22.8 149.1,23.2 148,23.1 C145.1,23 145.1,23.1 145.1,20.2 C145.2,18.8 145.2,17.3 145.2,15.8 Z" id="Shape"></path>
                <path d="M42.3,43.1 C42.3,42.6 42.2,42 42.3,41.5 C42.5,40 43.1,38.6 44.7,38.1 C46.5,37.5 48.2,37.4 49.8,38.5 C50.2,38.8 50.6,39.2 50.7,39.7 C50.9,40.2 51.4,40.9 51,41.2 C50.6,41.6 49.8,41.5 49.2,41.6 C48.8,41.7 48.8,41.3 48.7,41 C48.5,40.1 47.8,39.6 46.9,39.6 C45.9,39.6 45,39.9 44.7,40.9 C44.2,42.4 44.2,44 44.7,45.5 C45,46.6 46,46.8 47,46.8 C48,46.8 48.6,46.4 48.8,45.4 C49.1,44.1 50,44.7 50.7,44.8 C51.7,45 51.1,45.6 51,46.1 C50.3,48.1 48.5,49.1 46,48.7 C43.8,48.4 42.5,47 42.4,44.7 C42.3,44.1 42.3,43.6 42.3,43.1 L42.3,43.1 Z" id="Shape"></path>
                <path d="M32.5,43.2 C32.5,42.6 32.4,41.9 32.5,41.3 C33.1,38.1 37.2,36.6 39.9,38.5 C40.4,38.8 40.7,39.2 40.9,39.8 C41.6,41.4 41.2,41.9 39.5,41.8 C39.2,41.8 39,41.7 38.9,41.3 C38.8,40.1 38,39.6 36.9,39.7 C35.8,39.7 34.9,40.3 34.7,41.5 C34.5,42.8 34.4,44.1 34.8,45.4 C35.1,46.5 35.9,46.8 37,46.9 C38.1,46.9 38.8,46.5 39,45.5 C39.3,44.2 40.2,44.8 40.9,44.9 C41.8,45.1 41.3,45.7 41.2,46.1 C40.4,48 38.6,49 36,48.7 C33.8,48.4 32.5,46.9 32.4,44.6 C32.4,44.1 32.4,43.6 32.5,43.2 L32.5,43.2 Z" id="Shape"></path>
                <path d="M67.2,43.7 L67.2,47.7 C67.2,48.5 67,48.6 66.3,48.6 C65.5,48.6 65.2,48.4 65.3,47.6 L65.3,46.6 C65.2,45.8 65.7,44.5 65.1,44.2 C64.3,43.8 63.1,44 62.1,44 C61.6,44 61.7,44.3 61.6,44.7 L61.6,47.7 C61.7,48.6 61.1,48.5 60.5,48.5 C59.9,48.5 59.5,48.4 59.5,47.7 L59.5,39.5 C59.5,38.6 60,38.7 60.6,38.7 C61.2,38.7 61.6,38.7 61.5,39.5 C61.4,39.9 61.6,40.4 61.5,40.8 C61.3,42 61.8,42.3 63,42.3 C65.2,42.2 65.2,42.3 65.2,40.1 C65.2,39.3 65.1,38.5 66.4,38.7 C67,38.8 67.2,39 67.2,39.5 L67.2,43.7 Z" id="Shape"></path>
                <path d="M22.5,51.9 C21.6,50.9 20.7,49.9 19.9,49 C19.6,48.7 19.5,48.5 19.8,48.1 C21,46.2 21.3,44.3 20.4,42.2 C20.2,41.6 20.4,41.5 20.8,41.3 C21.6,41 22.4,40.7 23,40.2 C24.1,39.5 24.4,40 24.7,41 C25.9,45 25.2,48.6 22.5,51.9 Z" id="Shape"></path>
                <path d="M112.3,38.8 C113.8,38.7 115,39.1 115.8,40.6 C116.1,41.2 116,41.5 115.3,41.5 C114.6,41.5 113.9,41.7 113.5,40.9 C113.3,40.6 112.8,40.5 112.4,40.5 C111.6,40.5 110.7,40.4 110.6,41.4 C110.5,42.3 111.4,42.3 112,42.5 C112.8,42.8 113.6,42.9 114.4,43.1 C115.6,43.5 116.2,44.4 116.2,45.6 C116.2,46.8 115.5,47.8 114.3,48.2 C112.7,48.7 111.1,48.7 109.6,47.9 C109.2,47.7 108.8,47.3 108.6,46.9 C108.4,46.5 107.9,45.9 108.4,45.6 C109,45.4 109.8,45 110.4,45.9 C111,46.9 112.6,47.2 113.6,46.6 C114,46.4 114.2,46 114.2,45.7 C114.2,45.2 113.9,44.9 113.5,44.7 C112.7,44.5 112,44.3 111.2,44.1 C109.2,43.5 108.3,42.6 108.6,41 C108.8,39.5 110,38.7 112,38.7 C112,38.8 112.1,38.8 112.3,38.8 Z" id="Shape"></path>
                <path d="M148.1,43.7 L148.1,39.7 C148.1,39.1 148.2,38.8 148.9,38.8 C150.5,38.9 152.2,38.8 153.8,38.8 C154.4,38.8 154.6,39 154.6,39.6 C154.6,40.2 154.6,40.6 153.8,40.6 C152.8,40.5 151.7,40.6 150.7,40.6 C149.8,40.6 150,41.2 150,41.6 C150,42.1 150,42.5 150.7,42.5 C151.5,42.4 152.2,42.5 153,42.5 C153.6,42.5 154.1,42.3 154.2,43.3 C154.2,44.4 153.6,44.2 153,44.2 C152.3,44.2 151.6,44.3 151,44.2 C150.2,44.1 150.1,44.4 150.1,45.1 C150.1,47 150.1,47 152,47 L153.8,47 C154.4,47 154.8,47 154.8,47.8 C154.8,48.6 154.5,48.7 153.8,48.7 L149.2,48.7 C148.4,48.7 148.1,48.5 148.2,47.7 C148.1,46.3 148.1,45 148.1,43.7 Z" id="Shape"></path>
                <path d="M95.3,43.6 L95.3,39.6 C95.3,39 95.4,38.7 96.1,38.8 C97.8,38.8 99.5,38.9 101.1,38.8 C101.8,38.8 101.9,39.1 101.8,39.7 C101.8,40.2 101.8,40.6 101.1,40.6 C100.2,40.5 99.3,40.6 98.5,40.6 C97.8,40.6 97.2,40.5 97.2,41.6 C97.2,42.6 97.8,42.5 98.4,42.5 L100.7,42.5 C101.5,42.4 101.3,43 101.4,43.4 C101.4,43.9 101.3,44.2 100.7,44.2 C100.1,44.1 99.6,44.2 99,44.2 C98.5,44.2 97.6,43.9 97.4,44.3 C97.1,45 97.3,45.9 97.3,46.6 C97.3,47.1 97.8,46.9 98.1,46.9 L101.2,46.9 C101.9,46.9 101.9,47.2 101.9,47.7 C101.9,48.2 101.9,48.6 101.2,48.6 L96,48.6 C95.4,48.6 95.3,48.4 95.3,47.8 L95.3,43.6 Z" id="Shape"></path>
                <path d="M77.8,42.5 L77.8,39.5 C77.7,38.6 78.4,38.9 78.8,38.8 C79.3,38.8 79.7,38.7 79.7,39.5 C79.6,41.3 79.7,43.1 79.7,44.9 C79.7,46.6 80.2,47 81.7,47 C83.1,47 83.5,46.5 83.5,44.9 L83.5,39.5 C83.5,38.9 83.8,38.7 84.3,38.8 C84.7,38.9 85.4,38.5 85.4,39.4 C85.3,41.7 85.5,43.9 85.3,46.2 C85.2,47.4 84.5,48.1 83.3,48.4 C82.1,48.7 80.9,48.7 79.7,48.3 C78.6,48 77.9,46.9 77.9,45.4 C77.8,44.5 77.8,43.5 77.8,42.5 Z" id="Shape"></path>
                <path d="M125.5,38.9 C127.4,38.7 127.4,38.7 127.9,40.3 C128.5,42.1 129,43.8 129.7,45.9 C130.4,43.8 131.1,42.1 131.5,40.3 C131.8,38.9 132.5,38.4 133.9,38.9 C132.9,42 131.9,45.1 130.8,48.2 C130.5,49 129.9,48.5 129.4,48.6 C128.8,48.8 128.6,48.4 128.4,47.9 C127.5,45.1 126.6,42.4 125.7,39.7 C125.7,39.5 125.6,39.3 125.5,38.9 Z" id="Shape"></path>
                <path d="M89.3,44.5 L89.3,41.5 C89.3,40.8 89.1,40.4 88.4,40.5 L87.3,40.5 C86.5,40.6 86.4,40.3 86.4,39.6 C86.4,38.8 86.7,38.8 87.3,38.8 L93.3,38.8 C93.9,38.8 94.2,38.9 94.1,39.6 C94.1,40.1 94.1,40.6 93.3,40.6 C91.2,40.6 91.2,40.7 91.2,42.8 L91.2,47.8 C91.2,48.6 90.8,48.6 90.2,48.6 C89.7,48.6 89.2,48.7 89.2,47.8 C89.4,46.7 89.3,45.6 89.3,44.5 Z" id="Shape"></path>
                <path d="M18.8,40 C19.9,37.5 20.9,35.3 21.9,33.1 C22.2,32.3 22.5,32.3 23.1,32.7 C24.2,33.6 25.3,34.6 26.1,35.7 C26.2,35.9 26.7,36.2 26.2,36.4 C23.8,37.7 21.4,38.8 18.8,40 Z" id="Shape"></path>
                <path d="M54.8,43.2 L54.8,47.9 C54.8,48.9 54.2,48.7 53.7,48.7 C53.2,48.7 52.6,48.9 52.6,47.9 C52.6,44.8 52.7,41.7 52.6,38.7 C52.6,37.7 53.2,38 53.7,38 C54.2,38 54.8,37.7 54.8,38.7 C54.7,40.1 54.8,41.7 54.8,43.2 Z" id="Shape"></path>
                <path d="M146.2,43.7 L146.2,47.8 C146.2,48.6 145.9,48.6 145.3,48.6 C144.7,48.6 144.2,48.6 144.3,47.8 C144.4,45.1 144.4,42.4 144.3,39.6 C144.3,38.7 144.8,38.9 145.4,38.8 C146,38.7 146.3,38.9 146.3,39.6 C146.2,41 146.2,42.4 146.2,43.7 Z" id="Shape"></path>
                <path d="M147.2,6.7 C145.3,6.7 145.3,6.7 145.3,4.8 C145.3,2.9 145.3,2.9 147.2,2.9 C149.3,2.9 149.3,2.9 149.3,4.9 C149.2,6.7 149.2,6.7 147.2,6.7 Z" id="Shape"></path>
                <path d="M105.3,43.6 L106.7,43.6 C107.3,43.5 107.6,43.7 107.6,44.4 C107.6,45.1 107.3,45.2 106.7,45.2 L103.5,45.2 C102.7,45.2 102.8,44.8 102.8,44.3 C102.8,43.7 103,43.5 103.5,43.6 C104.1,43.7 104.7,43.6 105.3,43.6 Z" id="Shape"></path>
                <path d="M130.1,12.3 C130.1,10.3 129.1,9.1 127.2,8.5 C126.5,8.3 125.8,8.2 125.1,8.2 C122.5,8.1 120,8.5 118.2,10.6 C117.8,11 117.7,11.4 118.4,11.6 C119.2,11.8 120,12.2 120.8,12.4 C121.1,12.5 121.4,12.7 121.7,12.3 C122.6,11.2 123.8,11.4 125,11.4 C125.8,11.5 126.3,11.8 126.3,12.6 C126.3,13.5 125.6,13.2 125.1,13.3 C123,13.7 120.9,14.1 119.1,15.5 C117.4,16.9 117.3,18.7 117.9,20.6 C118.3,22.1 119.5,22.9 120.9,23.1 C122.8,23.3 124.7,23.3 126.4,21.4 C126,23 126.8,23.1 127.7,23 C128.2,23 128.7,22.9 129.1,23 C129.9,23.1 130.1,22.7 130.1,22 C130.1,18.9 130.1,15.6 130.1,12.3 Z M126.4,17.2 C126.3,19.6 124.9,20.7 122.9,20.2 C122.2,20 121.8,19.6 121.6,18.9 C121.4,18.2 121.8,17.6 122.3,17.2 C123.4,16.4 124.7,16.2 126,16 C126.7,16.1 126.2,16.9 126.4,17.2 Z" id="Shape"></path>
                <path d="M165.4,15.8 C165.4,10.9 163.7,8.6 159.3,8.3 C155.5,8 152.8,9.3 152,13.5 C151.8,14.7 151.9,16 151.9,17.2 C152,20.4 154.3,23 157.3,23.3 C161.2,23.7 164,22.1 164.9,18.8 C165.3,17.7 165.5,16.7 165.4,15.8 Z M161.3,17.4 C161.1,19 160.3,19.8 158.8,19.9 C157.2,20 156.4,19.3 156,17.6 C155.7,16.2 155.7,14.8 156,13.5 C156.3,12.2 157.2,11.6 158.6,11.6 C160.1,11.6 161,12.3 161.2,13.7 C161.3,14.4 161.3,15.1 161.3,15.8 C161.4,16.4 161.4,16.9 161.3,17.4 Z" id="Shape"></path>
                <path d="M81.2,15.9 C81.5,10.8 79.2,8.5 75.3,8.3 C71.6,8.1 68.9,9.2 68.1,13 C67.7,14.6 67.7,16.3 68,18 C68.4,20.6 70,22.4 72.5,23.1 C75.4,23.9 78.4,23 79.9,21.1 C81,19.4 81.3,17.6 81.2,15.9 Z M77.1,17.7 C76.7,19.4 75.8,20.1 74.1,19.9 C72.7,19.8 71.9,18.9 71.7,17.3 L71.7,15.6 L71.7,15.6 L71.7,14.4 C71.8,12.7 72.5,11.8 74,11.7 C75.8,11.5 76.7,12.1 77.1,13.9 C77.4,15.2 77.5,16.4 77.1,17.7 Z" id="Shape"></path>
                <path d="M142.8,42.2 C142.6,40.3 141.4,39 139.6,38.8 C137,38.5 135.2,39.4 134.7,41.4 C134.4,42.6 134.3,43.7 134.5,45 C135,48 137.5,49.5 140.4,48.4 C142.5,47.6 142.9,45.7 142.8,43.7 C142.8,43.2 142.9,42.7 142.8,42.2 Z M140.7,45.6 C140.3,46.5 139.7,47 138.7,47 C137.7,47 137,46.5 136.7,45.6 C136.3,44.4 136.3,43.1 136.7,41.8 C137,40.7 138,40.4 139.1,40.5 C140.2,40.6 140.7,41.4 140.9,42.4 C141,42.8 140.9,43.3 140.9,43.7 C140.9,44.4 141,45 140.7,45.6 Z" id="Shape"></path>
                <path d="M76.6,47.7 C75.7,44.9 74.7,42.2 73.8,39.4 C73.5,38.6 72.9,38.9 72.4,38.8 C71.8,38.7 71.5,38.9 71.3,39.5 C70.5,42.1 69.6,44.8 68.7,47.4 C68.6,47.7 68,48.3 68.7,48.5 C69.3,48.6 70.2,49 70.4,47.8 C70.6,46.7 71.2,46.5 72.2,46.6 C72.7,46.7 73.2,46.6 73.6,46.6 C74,46.6 74.3,46.7 74.4,47.1 C74.6,48.6 75.6,48.7 76.8,48.4 C76.7,48.3 76.7,48 76.6,47.7 Z M73.5,45 C71.4,45.2 71.4,45.2 72,43.3 C72.1,42.9 72.3,42.5 72.5,41.8 C72.9,43 73.2,43.8 73.4,44.6 C73.5,44.8 73.5,44.9 73.5,45 Z" id="Shape"></path>
                <path d="M124.9,47.6 C124,44.9 123.1,42.3 122.3,39.6 C122.1,38.9 121.7,38.8 121.1,38.8 C120.5,38.8 120,38.7 119.8,39.5 C118.9,42.5 117.8,45.4 116.8,48.5 C118.6,48.6 118.6,48.6 119.2,47.2 C119.3,46.9 119.4,46.7 119.7,46.7 C120.7,46.7 121.6,46.6 122.6,46.8 C123.2,46.9 123.1,47.7 123.3,48.2 C123.7,49 124.5,48.7 125,48.6 C125.4,48.4 125,47.9 124.9,47.6 Z M119.8,45.1 C120.2,44 120.5,43.1 120.9,41.8 C121.3,43.1 121.7,44 122,45.1 L119.8,45.1 Z" id="Shape"></path>
            </g>
        </g>
    </g>
</svg>