<?xml version="1.0" encoding="UTF-8"?>
<svg width="31px" height="31px" viewBox="0 0 31 31" version="1.1" xmlns="http://www.w3.org/2000/svg" xmlns:xlink="http://www.w3.org/1999/xlink">
    <!-- Generator: Sketch 42 (36781) - http://www.bohemiancoding.com/sketch -->
    <title>Dribbble</title>
    <defs></defs>
    <g id="Page-1" stroke="none" stroke-width="1" fill="none" fill-rule="evenodd">
        <g id="dribbble" fill-rule="nonzero" fill="#FFFFFF">
            <path d="M15.5,0 C7,0 0,7 0,15.5 C0,24 7,31 15.5,31 C24,31 31,24 31,15.5 C31,7 24,0 15.5,0 Z M29.6,15.8 C27.8,15.3 25.9,15 24,15 C22.4,15 20.8,15.2 19.3,15.5 C18.8,14.4 18.3,13.3 17.8,12.2 C21,10.9 24,9.1 26.7,6.9 C28.5,9.3 29.7,12.3 29.7,15.5 C29.6,15.6 29.6,15.7 29.6,15.8 Z M25.7,5.8 C23.1,8 20.2,9.7 17.1,11 C15.4,7.9 13.3,4.9 10.9,2.2 C12.4,1.7 13.9,1.4 15.5,1.4 C19.5,1.4 23.2,3.1 25.7,5.8 Z M9.5,2.8 C11.9,5.4 14,8.4 15.8,11.5 C12.4,12.7 8.9,13.3 5.2,13.3 C4,13.3 2.8,13.2 1.6,13.1 C2.4,8.5 5.4,4.7 9.5,2.8 Z M1.4,15.5 C1.4,15.1 1.4,14.8 1.5,14.5 C2.7,14.6 4,14.7 5.2,14.7 C9.1,14.7 12.9,14 16.4,12.7 C16.9,13.7 17.4,14.8 17.9,15.9 C12.8,17.4 8.3,20.7 5.4,25.3 C2.9,22.8 1.4,19.3 1.4,15.5 Z M6.5,26.3 C9.2,21.8 13.5,18.6 18.4,17.2 C19.7,20.8 20.6,24.5 21,28.3 L21.3,28.3 C19.5,29.1 17.6,29.6 15.5,29.6 C12.1,29.6 8.9,28.4 6.5,26.3 Z M22.4,27.8 C22,24.1 21.1,20.4 19.8,16.9 C21.2,16.6 22.6,16.5 24,16.5 C25.9,16.5 27.7,16.8 29.5,17.3 C28.9,21.8 26.2,25.7 22.4,27.8 Z" id="Shape"></path>
        </g>
    </g>
</svg>
