<?xml version="1.0" encoding="UTF-8"?>
<svg width="124px" height="124px" viewBox="0 0 124 124" version="1.1" xmlns="http://www.w3.org/2000/svg" xmlns:xlink="http://www.w3.org/1999/xlink">
    <!-- Generator: Sketch 42 (36781) - http://www.bohemiancoding.com/sketch -->
    <title>Dribbble</title>
    <defs></defs>
    <g id="Page-1" stroke="none" stroke-width="1" fill="none" fill-rule="evenodd">
        <path d="M62.094,123.425 C28.0861921,123.425 0.419,95.7578079 0.419,61.75 C0.419,27.7421921 28.0861921,0.075 62.094,0.075 C96.1016472,0.075 123.769,27.7421921 123.769,61.75 C123.769,95.7578079 96.1016472,123.425 62.094,123.425 Z M114.107737,70.1924826 C112.305425,69.6235683 97.8019653,65.2979243 81.2939742,67.9404365 C88.1842298,86.874746 90.9881646,102.296146 91.5280067,105.500666 C103.34639,97.5093636 111.75964,84.8504583 114.107737,70.1924826 Z M82.6717683,110.323588 C81.8882663,105.701762 78.829589,89.5938736 71.4337032,70.3744645 C71.3177359,70.4139769 71.2020898,70.4515619 71.0861225,70.4918774 C41.3727985,80.8457321 30.7065388,101.451609 29.7585625,103.389644 C38.6906133,110.354909 49.9156683,114.510296 62.094,114.510296 C69.3914261,114.510296 76.3467327,113.01782 82.6717683,110.323588 Z M22.9568082,97.0538467 C24.1500505,95.0110878 38.6078943,71.0725169 65.7770053,62.2904846 C66.4636537,62.0685085 67.1560844,61.8598637 67.8528518,61.6635867 C66.5304714,58.6710846 65.0900357,55.675049 63.5819791,52.7236655 C37.2741099,60.5969126 11.7457271,60.2679638 9.44083716,60.220581 C9.42461459,60.755444 9.4140137,61.2915919 9.4140137,61.8303098 C9.4140137,75.3607365 14.5430765,87.7144647 22.9568082,97.0538467 Z M10.5267857,51.0408549 C12.8829132,51.0718545 34.5869455,51.1661381 59.2287086,44.6223387 C50.500002,29.1058518 41.0860927,16.0603353 39.6972158,14.1557092 C24.9592516,21.1073215 13.9426807,34.6938045 10.5267857,51.0408549 Z M49.7489452,10.6148521 C51.2051217,12.5644517 60.7729045,25.5939062 69.4054,41.4542796 C88.1376502,34.433119 96.0677565,23.7744084 97.015251,22.4248833 C87.7121691,14.1711287 75.4793873,9.15032345 62.094,9.15032345 C57.843526,9.15032345 53.7104648,9.65980853 49.7489452,10.6148521 Z M102.871599,28.5166994 C101.761076,30.0189737 92.9332668,41.3355817 73.4555815,49.2878536 C74.6814296,51.7972122 75.8565219,54.3492955 76.950662,56.918244 C77.3383975,57.8287959 77.716014,58.7350112 78.0854389,59.6368898 C95.614167,57.4328689 113.030783,60.9652131 114.767562,61.3325499 C114.651755,48.8986725 110.208537,37.4810348 102.871599,28.5166994 Z" id="Shape" fill="#000000"></path>
    </g>
</svg>
