<?xml version="1.0" encoding="UTF-8"?>
<svg width="41px" height="64px" viewBox="0 0 41 64" version="1.1" xmlns="http://www.w3.org/2000/svg" xmlns:xlink="http://www.w3.org/1999/xlink">
    <!-- Generator: Sketch 43 (38999) - http://www.bohemiancoding.com/sketch -->
    <title>picto-localization</title>
    <desc>Created with Sketch.</desc>
    <defs></defs>
    <g id="01_website" stroke="none" stroke-width="1" fill="none" fill-rule="evenodd">
        <g id="ftf-website" transform="translate(-1026.000000, -3054.000000)" fill="#F9A0D6">
            <g id="Exposition" transform="translate(-430.000000, 2914.000000)">
                <g id="info" transform="translate(1060.000000, 0.000000)">
                    <g id="localisation" transform="translate(295.000000, 140.000000)">
                        <path d="M121.154,58.523 C117.717,58.523 115.323,57.025 115.323,55.681 C115.323,54.8 116.363,53.862 118.039,53.314 C118.721,54.133 119.277,54.774 119.656,55.203 C120.036,55.631 120.581,55.877 121.154,55.877 C121.727,55.877 122.272,55.631 122.652,55.203 C123.031,54.774 123.587,54.133 124.269,53.314 C125.944,53.862 126.985,54.8 126.985,55.681 C126.985,57.025 124.591,58.523 121.154,58.523 M113.989,41.193 C108.192,32.51 105,24.78 105,19.428 C105,10.777 112.095,4 121.154,4 C130.213,4 137.308,10.777 137.308,19.428 C137.308,24.78 134.116,32.51 128.319,41.192 C125.498,45.417 122.876,48.74 121.154,50.804 C119.432,48.74 116.81,45.417 113.989,41.193 M135.792,54.193 L128.62,54.193 C128.093,53.151 127.024,52.272 125.606,51.675 C127.282,49.579 129.406,46.768 131.645,43.414 L131.645,43.414 C136.053,36.811 141.308,27.291 141.308,19.428 C141.308,8.534 132.456,0 121.154,0 C109.852,0 101,8.534 101,19.428 C101,27.291 106.255,36.811 110.663,43.414 C112.902,46.768 115.026,49.579 116.702,51.675 C115.284,52.272 114.215,53.151 113.688,54.193 L106.516,54.193 C105.964,54.193 105.516,54.641 105.516,55.193 C105.516,55.745 105.964,56.193 106.516,56.193 L113.365,56.193 C113.733,58.455 116.522,60.206 120.154,60.481 L120.154,63 C120.154,63.552 120.601,64 121.154,64 C121.707,64 122.154,63.552 122.154,63 L122.154,60.481 C125.786,60.206 128.575,58.455 128.943,56.193 L135.792,56.193 C136.344,56.193 136.792,55.745 136.792,55.193 C136.792,54.641 136.344,54.193 135.792,54.193 M112.987,20.154 C112.987,15.651 116.651,11.988 121.154,11.988 C125.657,11.988 129.321,15.651 129.321,20.154 C129.321,24.658 125.657,28.321 121.154,28.321 C116.651,28.321 112.987,24.658 112.987,20.154 M131.321,20.154 C131.321,14.531 126.777,9.988 121.154,9.988 C115.531,9.988 110.987,14.531 110.987,20.154 C110.987,25.778 115.531,30.321 121.154,30.321 C126.777,30.321 131.321,25.778 131.321,20.154" id="picto-localization"></path>
                    </g>
                </g>
            </g>
        </g>
    </g>
</svg>