<?xml version="1.0" encoding="UTF-8"?>
<svg width="64px" height="60px" viewBox="0 0 64 60" version="1.1" xmlns="http://www.w3.org/2000/svg" xmlns:xlink="http://www.w3.org/1999/xlink">
    <!-- Generator: Sketch 43 (38999) - http://www.bohemiancoding.com/sketch -->
    <title>picto-bus</title>
    <desc>Created with Sketch.</desc>
    <defs></defs>
    <g id="01_website" stroke="none" stroke-width="1" fill="none" fill-rule="evenodd">
        <g id="ftf-website" transform="translate(-659.000000, -3059.000000)" fill="#F9A0D6">
            <g id="Exposition" transform="translate(-430.000000, 2914.000000)">
                <g id="info" transform="translate(1060.000000, 0.000000)">
                    <g id="bus" transform="translate(0.000000, 145.000000)">
                        <path d="M84.577,42.727 C85.041,42.727 85.419,43.106 85.419,43.57 C85.419,44.034 85.041,44.412 84.577,44.412 C84.113,44.412 83.735,44.034 83.735,43.57 C83.735,43.106 84.113,42.727 84.577,42.727 L84.577,42.727 Z M84.577,46.096 C85.971,46.096 87.103,44.962 87.103,43.57 C87.103,42.176 85.971,41.043 84.577,41.043 C83.184,41.043 82.051,42.176 82.051,43.57 C82.051,44.962 83.184,46.096 84.577,46.096 L84.577,46.096 Z M37.421,44.412 C36.957,44.412 36.579,44.034 36.579,43.57 C36.579,43.106 36.957,42.727 37.421,42.727 C37.885,42.727 38.263,43.106 38.263,43.57 C38.263,44.034 37.885,44.412 37.421,44.412 L37.421,44.412 Z M37.421,41.043 C36.028,41.043 34.894,42.176 34.894,43.57 C34.894,44.962 36.028,46.096 37.421,46.096 C38.814,46.096 39.947,44.962 39.947,43.57 C39.947,42.176 38.814,41.043 37.421,41.043 L37.421,41.043 Z M69.023,40.486 L52.661,40.486 C52.195,40.486 51.819,40.863 51.819,41.328 C51.819,41.793 52.195,42.169 52.661,42.169 L69.023,42.169 C69.488,42.169 69.865,41.793 69.865,41.328 C69.865,40.863 69.488,40.486 69.023,40.486 L69.023,40.486 Z M69.023,36.412 L52.661,36.412 C52.195,36.412 51.819,36.789 51.819,37.253 C51.819,37.719 52.195,38.096 52.661,38.096 L69.023,38.096 C69.488,38.096 69.865,37.719 69.865,37.253 C69.865,36.789 69.488,36.412 69.023,36.412 L69.023,36.412 Z M69.023,32.337 L52.661,32.337 C52.195,32.337 51.819,32.714 51.819,33.18 C51.819,33.645 52.195,34.022 52.661,34.022 L69.023,34.022 C69.488,34.022 69.865,33.645 69.865,33.18 C69.865,32.714 69.488,32.337 69.023,32.337 L69.023,32.337 Z M89.632,47.373 L76.161,47.373 L76.169,43.446 C76.169,43.378 76.217,43.3 76.3,43.227 L80.993,39.155 C81.139,39.027 81.367,38.951 81.601,38.951 L89.632,38.951 L89.632,47.373 Z M86.263,54.76 C86.263,55.33 85.848,55.793 85.339,55.793 L80.45,55.793 C79.94,55.793 79.526,55.33 79.526,54.76 L79.526,50.741 L86.263,50.741 L86.263,54.76 Z M74.091,40.685 C73.274,41.395 72.805,42.399 72.801,43.438 L72.793,47.373 L49.207,47.373 L49.199,43.436 C49.195,42.399 48.725,41.395 47.908,40.685 L43.217,36.613 C42.931,36.364 42.605,36.173 42.263,36.011 L42.263,34.834 C42.263,33.709 43.281,32.794 44.531,32.794 L45.233,32.794 C45.233,33.726 45.987,34.479 46.918,34.479 C47.848,34.479 48.601,33.726 48.601,32.794 L48.601,28.719 C48.601,28.621 48.663,28.566 48.687,28.566 L73.005,28.566 C73.029,28.566 73.091,28.621 73.091,28.719 L73.091,32.794 C73.091,33.726 73.844,34.479 74.774,34.479 C75.706,34.479 76.459,33.726 76.459,32.794 L77.531,32.794 C78.783,32.794 79.801,33.709 79.801,34.834 L79.801,35.982 C79.434,36.147 79.087,36.349 78.784,36.613 L74.091,40.685 Z M32.368,47.373 L32.368,38.951 L40.398,38.951 C40.633,38.951 40.86,39.027 41.008,39.155 L45.699,43.227 C45.783,43.3 45.831,43.378 45.831,43.445 L45.839,47.373 L32.368,47.373 Z M42.473,54.76 C42.473,55.33 42.057,55.793 41.548,55.793 L36.661,55.793 C36.151,55.793 35.737,55.33 35.737,54.76 L35.737,50.741 L42.473,50.741 L42.473,54.76 Z M37.421,28.785 L45.233,28.785 L45.233,29.426 L44.531,29.426 C41.423,29.426 38.894,31.852 38.894,34.834 L38.894,35.582 L37.421,35.582 L37.421,28.785 Z M37.421,15.099 C37.421,14.169 38.271,13.415 39.317,13.415 L60,13.415 L60,25.198 L48.687,25.198 C47.358,25.198 46.215,25.976 45.638,27.101 L37.421,27.101 L37.421,15.099 Z M76.055,27.101 C75.477,25.976 74.334,25.198 73.005,25.198 L61.684,25.198 L61.684,13.415 L82.682,13.415 C83.728,13.415 84.579,14.169 84.579,15.099 L84.579,27.101 L76.055,27.101 Z M77.531,29.426 L76.459,29.426 L76.459,28.785 L84.579,28.785 L84.579,35.582 L83.169,35.582 L83.169,34.834 C83.169,31.852 80.639,29.426 77.531,29.426 L77.531,29.426 Z M37.421,9.95 C37.431,9.597 37.613,8.144 38.317,7.462 C39.273,6.539 39.743,6.416 40.271,6.282 C42.016,5.821 51.197,3.517 60.519,3.369 L61.454,3.369 C70.801,3.517 79.981,5.821 81.877,6.32 C82.255,6.416 82.725,6.537 83.681,7.462 C84.358,8.119 84.562,9.519 84.579,9.899 L84.579,10.399 C83.989,10.179 83.352,10.046 82.682,10.046 L39.317,10.046 C38.647,10.046 38.011,10.179 37.421,10.399 L37.421,9.95 Z M34.052,27.158 L33.16,27.158 C32.723,27.158 32.368,26.815 32.368,26.394 L32.368,17.815 C32.368,17.394 32.723,17.052 33.16,17.052 L34.052,17.052 L34.052,27.158 Z M87.947,17.052 L88.84,17.052 C89.276,17.052 89.631,17.394 89.631,17.815 L89.631,26.394 C89.631,26.815 89.276,27.158 88.84,27.158 L87.947,27.158 L87.947,17.052 Z M90.103,35.582 L87.947,35.582 L87.947,28.841 L88.84,28.841 C90.207,28.841 91.315,27.746 91.315,26.394 L91.315,17.815 C91.315,16.463 90.207,15.368 88.84,15.368 L87.947,15.368 L87.947,9.847 C87.937,9.537 87.805,6.763 86.023,5.041 C84.55,3.616 83.541,3.269 82.587,3.024 C80.041,2.352 71,0.15 61.48,0 L60.493,0 C50.998,0.15 41.957,2.352 39.283,3.058 C38.684,3.211 37.57,3.498 35.975,5.041 C34.195,6.763 34.062,9.537 34.053,9.899 L34.053,15.368 L33.16,15.368 C31.792,15.368 30.683,16.463 30.683,17.815 L30.683,26.394 C30.683,27.746 31.792,28.841 33.16,28.841 L34.053,28.841 L34.053,35.582 L31.896,35.582 C30.3,35.582 29,36.81 29,38.32 L29,49.056 C29,49.988 29.753,50.741 30.684,50.741 L32.368,50.741 L32.368,54.76 C32.368,57.188 34.294,59.162 36.661,59.162 L41.548,59.162 C43.916,59.162 45.842,57.188 45.842,54.76 L45.842,50.741 L76.158,50.741 L76.158,54.76 C76.158,57.188 78.084,59.162 80.45,59.162 L85.339,59.162 C87.706,59.162 89.632,57.188 89.632,54.76 L89.632,50.741 L91.315,50.741 C92.247,50.741 93,49.988 93,49.056 L93,38.32 C93,36.81 91.7,35.582 90.103,35.582 L90.103,35.582 Z" id="picto-bus"></path>
                    </g>
                </g>
            </g>
        </g>
    </g>
</svg>