<?xml version="1.0" encoding="UTF-8"?>
<svg width="64px" height="64px" viewBox="0 0 64 64" version="1.1" xmlns="http://www.w3.org/2000/svg" xmlns:xlink="http://www.w3.org/1999/xlink">
    <!-- Generator: Sketch 43 (38999) - http://www.bohemiancoding.com/sketch -->
    <title>picto-calendar</title>
    <desc>Created with Sketch.</desc>
    <defs></defs>
    <g id="01_website" stroke="none" stroke-width="1" fill="none" fill-rule="evenodd">
        <g id="ftf-website" transform="translate(-805.000000, -3054.000000)" fill="#F9A0D6">
            <g id="Exposition" transform="translate(-430.000000, 2914.000000)">
                <g id="info" transform="translate(1060.000000, 0.000000)">
                    <g id="calendrier" transform="translate(158.000000, 140.000000)">
                        <path d="M77,53.218 C77,56.957 73.897,60 70.085,60 L27.914,60 C24.102,60 21,56.957 21,53.218 L21,28.001 L77,28.001 L77,53.218 Z M70.085,6 L64.999,6 L64.999,10 L70.085,10 C73.897,10 77,13.043 77,16.782 L77,26.001 L21,26.001 L21,16.782 C21,13.043 24.102,10 27.914,10 L33.001,10 L33.001,6 L27.914,6 C21.896,6 17,10.837 17,16.782 L17,53.218 C17,59.163 21.896,64 27.914,64 L70.085,64 C76.104,64 81,59.163 81,53.218 L81,16.782 C81,10.837 76.104,6 70.085,6 L70.085,6 Z M41.001,10 L56.999,10 L56.999,6 L41.001,6 L41.001,10 Z M60.999,52.185 L64.999,52.185 L64.999,48.185 L60.999,48.185 L60.999,52.185 Z M60.599,54.185 L65.399,54.185 C66.283,54.185 66.999,53.468 66.999,52.584 L66.999,47.784 C66.999,46.901 66.283,46.185 65.399,46.185 L60.599,46.185 C59.716,46.185 58.999,46.901 58.999,47.784 L58.999,52.584 C58.999,53.468 59.716,54.185 60.599,54.185 L60.599,54.185 Z M47.001,52.185 L51.001,52.185 L51.001,48.185 L47.001,48.185 L47.001,52.185 Z M46.602,54.185 L51.401,54.185 C52.285,54.185 53.001,53.468 53.001,52.584 L53.001,47.784 C53.001,46.901 52.285,46.185 51.401,46.185 L46.602,46.185 C45.718,46.185 45.001,46.901 45.001,47.784 L45.001,52.584 C45.001,53.468 45.718,54.185 46.602,54.185 L46.602,54.185 Z M33.001,52.185 L37.001,52.185 L37.001,48.185 L33.001,48.185 L33.001,52.185 Z M32.601,54.185 L37.4,54.185 C38.284,54.185 39.001,53.468 39.001,52.584 L39.001,47.784 C39.001,46.901 38.284,46.185 37.4,46.185 L32.601,46.185 C31.717,46.185 31.001,46.901 31.001,47.784 L31.001,52.584 C31.001,53.468 31.717,54.185 32.601,54.185 L32.601,54.185 Z M60.999,40.185 L64.999,40.185 L64.999,36.185 L60.999,36.185 L60.999,40.185 Z M60.599,42.185 L65.399,42.185 C66.283,42.185 66.999,41.468 66.999,40.584 L66.999,35.784 C66.999,34.901 66.283,34.185 65.399,34.185 L60.599,34.185 C59.716,34.185 58.999,34.901 58.999,35.784 L58.999,40.584 C58.999,41.468 59.716,42.185 60.599,42.185 L60.599,42.185 Z M46.602,42.185 L51.401,42.185 C52.285,42.185 53.001,41.468 53.001,40.584 L53.001,35.784 C53.001,34.901 52.285,34.185 51.401,34.185 L46.602,34.185 C45.718,34.185 45.001,34.901 45.001,35.784 L45.001,40.584 C45.001,41.468 45.718,42.185 46.602,42.185 L46.602,42.185 Z M32.601,42.185 L37.4,42.185 C38.284,42.185 39.001,41.468 39.001,40.584 L39.001,35.784 C39.001,34.901 38.284,34.185 37.4,34.185 L32.601,34.185 C31.717,34.185 31.001,34.901 31.001,35.784 L31.001,40.584 C31.001,41.468 31.717,42.185 32.601,42.185 L32.601,42.185 Z M35.001,15.78 L35.001,18 C35.001,19.105 35.896,20 37.001,20 C38.105,20 39.001,19.105 39.001,18 L39.001,15.78 C39.61,16.33 40.001,17.117 40.001,18 C40.001,19.655 38.655,21 37.001,21 C35.347,21 34.001,19.655 34.001,18 C34.001,17.117 34.392,16.33 35.001,15.78 L35.001,15.78 Z M37.001,23 C39.758,23 42.001,20.757 42.001,18 C42.001,15.955 40.764,14.198 39.001,13.424 L39.001,2 C39.001,0.896 38.105,0 37.001,0 C35.896,0 35.001,0.896 35.001,2 L35.001,13.424 C33.238,14.198 32.001,15.955 32.001,18 C32.001,20.757 34.244,23 37.001,23 L37.001,23 Z M58.999,15.78 L58.999,18 C58.999,19.105 59.895,20 60.999,20 C62.104,20 62.999,19.105 62.999,18 L62.999,15.78 C63.608,16.33 63.999,17.117 63.999,18 C63.999,19.655 62.653,21 60.999,21 C59.345,21 57.999,19.655 57.999,18 C57.999,17.117 58.39,16.33 58.999,15.78 L58.999,15.78 Z M60.999,23 C63.756,23 65.999,20.757 65.999,18 C65.999,15.955 64.762,14.198 62.999,13.424 L62.999,2 C62.999,0.896 62.104,0 60.999,0 C59.895,0 58.999,0.896 58.999,2 L58.999,13.424 C57.236,14.198 55.999,15.955 55.999,18 C55.999,20.757 58.242,23 60.999,23 L60.999,23 Z" id="picto-calendar"></path>
                    </g>
                </g>
            </g>
        </g>
    </g>
</svg>