<?xml version="1.0" encoding="UTF-8"?>
<svg width="17px" height="30px" viewBox="0 0 17 30" version="1.1" xmlns="http://www.w3.org/2000/svg" xmlns:xlink="http://www.w3.org/1999/xlink">
    <!-- Generator: Sketch 42 (36781) - http://www.bohemiancoding.com/sketch -->
    <title>facebook</title>
    <desc>Created with Sketch.</desc>
    <defs></defs>
    <g id="website" stroke="none" stroke-width="1" fill="none" fill-rule="evenodd">
        <g id="face-to-fesse-website" transform="translate(-652.000000, -8030.000000)" fill="#FFFFFF">
            <g id="RS" transform="translate(560.000000, 7970.000000)">
                <g id="picto" transform="translate(92.000000, 60.000000)">
                    <path d="M5.83558346,28.5714286 L9.66635008,28.5714286 L9.66635008,15.5385714 L14.143404,15.5385714 L14.615484,11.8882143 L9.66635008,11.8882143 L9.66635008,7.93107143 C9.66635008,6.56285714 10.0022187,4.74392857 12.9092569,4.74392857 L14.8918498,4.74321429 L14.8918498,1.55928571 C14.1588174,1.49714286 12.9770042,1.42857143 11.6751099,1.42857143 C8.0185505,1.42857143 5.83558346,3.67142857 5.83558346,7.42821429 L5.83558346,11.8882143 L1.43380429,11.8882143 L1.43380429,15.5385714 L5.83558346,15.5385714 L5.83558346,28.5714286 Z M11.1001544,30 L4.40177917,30 L4.40177917,16.9671429 L0,16.9671429 L0,10.4596429 L4.40177917,10.4596429 L4.40177917,7.42821429 C4.40177917,2.84642857 7.18873626,0 11.6751099,0 C13.5419231,0 15.1950994,0.139285714 15.7030246,0.206428571 L16.3256541,0.288928571 L16.3256541,6.17107143 L12.9096154,6.1725 C11.3514286,6.1725 11.1001544,6.69107143 11.1001544,7.93107143 L11.1001544,10.4596429 L16.246078,10.4596429 L15.4040764,16.9671429 L11.1001544,16.9671429 L11.1001544,30 Z" id="facebook"></path>
                </g>
            </g>
        </g>
    </g>
</svg>