<?xml version="1.0" encoding="UTF-8"?>
<svg width="12px" height="20px" viewBox="0 0 12 20" version="1.1" xmlns="http://www.w3.org/2000/svg" xmlns:xlink="http://www.w3.org/1999/xlink">
    <!-- Generator: Sketch 42 (36781) - http://www.bohemiancoding.com/sketch -->
    <title>gobelins</title>
    <desc>Created with Sketch.</desc>
    <defs></defs>
    <g id="website" stroke="none" stroke-width="1" fill="none" fill-rule="evenodd">
        <g id="face-to-fesse-website" transform="translate(-538.000000, -8136.000000)" fill="#FFFFFF">
            <g id="Footer" transform="translate(538.000000, 8120.000000)">
                <path d="M11.2143664,32.0340306 C10.9923942,31.0304663 10.3499255,30.3301598 9.44624867,29.8846523 C8.90554323,29.6286027 8.34592327,29.4147591 7.77207833,29.2453099 C5.76354287,28.6200362 3.74859836,28.0041416 1.73990659,27.3694888 C1.5126196,27.2957065 1.30362186,27.1740908 1.12713836,27.0130828 C0.822317426,26.7332728 0.814501505,26.3737404 1.06148462,26.0423454 C1.15949627,25.9185412 1.2717329,25.8067735 1.39600605,25.7093871 C1.51637124,25.6109065 1.65236827,25.5343105 1.80243396,25.4358299 C1.78008042,25.4330161 1.75741425,25.4330161 1.73521703,25.4358299 C1.69144787,25.4561513 1.64767872,25.4780358 1.60390956,25.5014836 C1.20342175,25.7270511 0.857489072,26.0382811 0.590966156,26.41282 C0.132015257,27.0587278 -0.0707297412,27.8518875 0.0219670854,28.6387944 C0.0938735614,29.5366874 0.549698092,30.3600166 1.27251449,30.8974393 C1.74068818,31.2552522 2.27045132,31.523651 2.83569875,31.6901301 C5.05854677,32.3810575 7.28436484,33.064169 9.50736917,33.759786 C9.71417845,33.8274719 9.90816962,33.9293915 10.0810578,34.0614806 C10.5076508,34.3834966 10.5500131,34.8587046 10.2373762,35.2792011 C10.0047744,35.5552595 9.71589795,35.7784822 9.39013035,35.9341753 C9.35105075,35.9544967 9.31509751,35.9777882 9.27742477,35.9998291 C9.33229254,36.0017049 9.38653503,35.9881052 9.43374319,35.9607495 C10.9751992,35.1994787 11.5706161,33.6550527 11.2143664,32.0340306 M5.65255679,19.8599516 C5.95706508,19.8544805 6.25031845,19.9748456 6.46322415,20.1925972 C6.67628616,20.4103488 6.79008597,20.7061032 6.77804946,21.0104552 C6.77804946,21.6286946 6.27861208,22.1309457 5.66037271,22.1343847 C5.3574276,22.1318836 5.06792588,22.0090173 4.85564545,21.7929853 C4.64336503,21.5769532 4.52565726,21.285263 4.52847099,20.9823179 C4.5328479,20.3636096 5.03384846,19.8633906 5.65255679,19.8599516 M5.52906523,26.0032657 C7.56026686,26.049536 9.41779872,24.8627665 10.2290913,23.0000761 C11.0405403,21.1373858 10.6444294,18.9687803 9.22724655,17.5129868 C7.8100637,16.0571933 5.65286943,15.6032445 3.76923239,16.3645153 C1.88528272,17.1256297 0.64911661,18.950491 0.640988052,20.9823179 C0.630045762,23.7081986 2.80380979,25.941051 5.52906523,26.0032657" id="gobelins"></path>
            </g>
        </g>
    </g>
</svg>
