<?xml version="1.0" encoding="UTF-8"?>
<svg width="73px" height="73px" viewBox="0 0 73 73" version="1.1" xmlns="http://www.w3.org/2000/svg" xmlns:xlink="http://www.w3.org/1999/xlink">
    <title>Link</title>
    <defs></defs>
    <g id="Page-1" stroke="none" stroke-width="1" fill="none" fill-rule="evenodd">
        <g id="noun_534671_cc" fill-rule="nonzero" fill="#000000">
            <g id="Group">
                <path d="M38.8,55.5 L30,64.3 C27.4,66.9 24,68.3 20.4,68.3 C16.8,68.3 13.4,66.9 10.8,64.3 L8,61.5 C5.4,58.9 4,55.5 4,51.9 C4,48.3 5.4,44.9 8,42.3 L19.7,30.6 C25,25.3 33.6,25.3 38.9,30.6 L44.6,36.3 C45.4,37.1 46.6,37.1 47.4,36.3 C48.2,35.5 48.2,34.3 47.4,33.5 L41.7,27.8 C34.8,20.9 23.7,20.9 16.8,27.8 L5.2,39.4 C1.9,42.7 0.1,47.1 0.1,51.8 C0.1,56.5 1.9,60.9 5.2,64.2 L8,67 C11.3,70.3 15.7,72.1 20.4,72.1 C25.1,72.1 29.5,70.3 32.8,67 L41.6,58.2 C42.4,57.4 42.4,56.2 41.6,55.4 C40.9,54.7 39.6,54.7 38.8,55.5 Z" id="Shape"></path>
                <path d="M64.3,5.1 C61,1.8 56.6,0 51.9,0 C47.2,0 42.8,1.8 39.5,5.1 L32.1,12.5 C31.3,13.3 31.3,14.5 32.1,15.3 C32.9,16.1 34.1,16.1 34.9,15.3 L42.3,7.9 C44.9,5.3 48.3,3.9 51.9,3.9 C55.5,3.9 58.9,5.3 61.5,7.9 L64.3,10.7 C66.9,13.3 68.3,16.7 68.3,20.3 C68.3,23.9 66.9,27.3 64.3,29.9 L54.1,40.2 C51.5,42.8 48.1,44.2 44.5,44.2 C40.9,44.2 37.5,42.8 34.9,40.2 L29.2,34.5 C28.4,33.7 27.2,33.7 26.4,34.5 C25.6,35.3 25.6,36.5 26.4,37.3 L32.1,43 C35.4,46.3 39.8,48.1 44.5,48.1 C49.2,48.1 53.6,46.3 56.9,43 L67.1,32.8 C70.4,29.5 72.2,25.1 72.2,20.4 C72.2,15.7 70.4,11.3 67.1,8 L64.3,5.1 Z" id="Shape"></path>
            </g>
        </g>
    </g>
</svg>
