<?xml version="1.0" encoding="UTF-8"?>
<svg width="113px" height="60px" viewBox="0 0 113 60" version="1.1" xmlns="http://www.w3.org/2000/svg" xmlns:xlink="http://www.w3.org/1999/xlink">
    <!-- Generator: Sketch 42 (36781) - http://www.bohemiancoding.com/sketch -->
    <title>Face to Fesse</title>
    <desc>Created with Sketch.</desc>
    <defs></defs>
    <g id="website" stroke="none" stroke-width="1" fill="none" fill-rule="evenodd">
        <g id="face-to-fesse-website" transform="translate(-665.000000, -60.000000)" fill="#FFFFFF">
            <g id="Face-to-Fesse" transform="translate(665.000000, 60.000000)">
                <path d="M95.9682127,23.0176673 C98.0789269,23.0176673 99.7961312,24.7386216 99.7961312,26.8539452 C99.7961312,28.9692689 98.0789269,30.6902231 95.9682127,30.6902231 C93.8573453,30.6902231 92.1402942,28.9692689 92.1402942,26.8539452 C92.1402942,24.7386216 93.8573453,23.0176673 95.9682127,23.0176673 Z M95.9682127,29.155712 C97.2346412,29.155712 98.2649638,28.1232929 98.2649638,26.8539452 C98.2649638,25.5847511 97.2346412,24.5521785 95.9682127,24.5521785 C94.701631,24.5521785 93.6714616,25.5847511 93.6714616,26.8539452 C93.6714616,28.1232929 94.701631,29.155712 95.9682127,29.155712 Z" id="Combined-Shape"></path>
                <path d="M86.0376735,22.8781803 L87.5464858,22.8781803 L87.5464858,27.6210474 C87.5464858,29.3133063 88.9202492,30.6902231 90.6089737,30.6902231 L91.3745574,30.6902231 C91.7973127,30.6902231 92.1401411,30.3467995 92.1401411,29.9229675 C92.1401411,29.4991356 91.7973127,29.155712 91.3745574,29.155712 L90.6089737,29.155712 C89.7645349,29.155712 89.0776532,28.4673303 89.0776532,27.6210474 L89.0776532,22.8781803 L91.3745574,22.8781803 C91.7973127,22.8781803 92.1401411,22.5347567 92.1401411,22.1109247 C92.1401411,21.6870927 91.7973127,21.3436691 91.3745574,21.3436691 L89.0776532,21.3436691 L89.0776532,19.1815429 C89.0776532,18.7577109 88.7348248,18.4142873 88.3120695,18.4142873 C87.8891611,18.4142873 87.5464858,18.7577109 87.5464858,19.1815429 L87.5464858,21.3436691 L86.0376735,21.3436691 C85.6147651,21.3436691 85.2720898,21.6870927 85.2720898,22.1109247 C85.2720898,22.5347567 85.6147651,22.8781803 86.0376735,22.8781803 L86.0376735,22.8781803 Z" id="Path"></path>
                <path d="M29.8001921,27.4568547 C28.1970599,28.5290176 26.2733012,29.1555585 24.2056127,29.1555585 C18.6332353,29.1555585 14.099908,24.6123313 14.099908,19.0277849 C14.099908,13.4433919 18.6332353,8.90001125 24.2056127,8.90001125 C26.2733012,8.90001125 28.1970599,9.52655216 29.8001921,10.5987151 C30.064931,9.62046424 30.9546924,8.90001125 32.0145664,8.90001125 C33.2829855,8.90001125 34.3113175,9.93058895 34.3113175,11.201778 L34.3113175,26.8537918 C34.3113175,28.1249808 33.2829855,29.1555585 32.0145664,29.1555585 C30.9546924,29.1555585 30.064931,28.4351055 29.8001921,27.4568547 Z M18.6934102,19.0277849 C18.6934102,22.073943 21.1660924,24.552025 24.2056127,24.552025 C27.24498,24.552025 29.7178153,22.073943 29.7178153,19.0277849 C29.7178153,15.9817802 27.24498,13.5035447 24.2056127,13.5035447 C21.1660924,13.5035447 18.6934102,15.9817802 18.6934102,19.0277849 Z" id="Combined-Shape"></path>
                <path d="M51.5857948,23.1933689 C50.5833395,24.0695747 49.2976183,24.552025 47.9650433,24.552025 C44.9255229,24.552025 42.4528407,22.073943 42.4528407,19.0277849 C42.4528407,15.9817802 44.9255229,13.5035447 47.9650433,13.5035447 C49.2973121,13.5035447 50.5831864,13.9861485 51.5857948,14.8623543 C52.5417026,15.6977422 53.9926368,15.5986128 54.8262044,14.6403106 C55.6600781,13.6823153 55.5608585,12.228366 54.6047976,11.3928246 C52.7655593,9.78542419 50.4075615,8.90001125 47.9650433,8.90001125 C42.3926658,8.90001125 37.8593386,13.4433919 37.8593386,19.0277849 C37.8593386,24.6123313 42.3926658,29.1555585 47.9650433,29.1555585 C50.4078678,29.1555585 52.7660187,28.270299 54.6051038,26.6627451 C55.5610116,25.8272038 55.6602312,24.373101 54.8263575,23.4151057 C53.9926368,22.4571104 52.5417026,22.3576741 51.5857948,23.1933689 L51.5857948,23.1933689 Z" id="Path"></path>
                <path d="M75.9099199,23.4154126 C75.0761993,22.4572639 73.625112,22.3578275 72.6695104,23.1935223 C71.666902,24.0695747 70.3810276,24.552025 69.0486058,24.552025 C66.0090854,24.552025 63.5364032,22.073943 63.5364032,19.0277849 C63.5364032,15.9817802 66.0090854,13.5035447 69.0486058,13.5035447 C70.381487,13.5035447 71.6678207,13.9866088 72.6704291,14.8632751 C73.3838,15.4872073 73.9146557,16.2762529 74.22977,17.1481622 L68.979397,17.1481622 C67.9224321,17.1481622 67.0654378,18.0070281 67.0654378,19.0663011 C67.0654378,20.1255742 67.9224321,20.9844401 68.979397,20.9844401 L77.2477009,20.9844401 C78.3046657,20.9844401 79.1616601,20.1255742 79.1616601,19.0663011 C79.1616601,18.9954067 79.1572197,18.9255864 79.149717,18.8568403 C79.1013321,15.9937494 77.8488372,13.2821148 75.6906568,11.3948195 C73.8511123,9.78603799 71.4921958,8.90001125 69.0486058,8.90001125 C63.4762283,8.90001125 58.942901,13.4433919 58.942901,19.0277849 C58.942901,24.6123313 63.4762283,29.1555585 69.0486058,29.1555585 C71.491124,29.1555585 73.849428,28.2704525 75.68836,26.6628986 C76.6444209,25.8275107 76.7436406,24.3734079 75.9099199,23.4154126 L75.9099199,23.4154126 Z" id="Path"></path>
                <path d="M4.59350216,19.3351475 C4.59350216,17.0929198 6.41375395,15.2686929 8.65094262,15.2686929 C9.91936168,15.2686929 10.9476937,14.2381152 10.9476937,12.9669262 C10.9476937,11.6957371 9.91936168,10.6651594 8.65094262,10.6651594 C7.18546231,10.6651594 5.80434933,11.0334421 4.59350216,11.6808524 L4.59350216,10.1277736 C4.59350216,7.08176898 7.06618437,4.60353347 10.1057048,4.60353347 L10.1822631,4.60353347 C11.4506822,4.60353347 12.4790142,3.57295578 12.4790142,2.30176673 C12.4790142,1.03057769 11.4506822,0 10.1822631,0 L10.1057048,0 C4.53332728,0 0,4.54338063 0,10.1277736 L0,26.8537918 C0,28.1249808 1.02833202,29.1555585 2.29675108,29.1555585 C3.56517014,29.1555585 4.59350216,28.1249808 4.59350216,26.8537918 L4.59350216,19.3351475 Z" id="Path"></path>
                <path d="M106.109747,47.5704596 C104.999497,47.5704596 103.812996,47.147088 103.812996,45.9592229 C103.812996,44.7713578 104.999497,44.3479862 106.109747,44.3479862 C106.581653,44.3479862 107.034113,44.4165789 107.454724,44.5519227 C107.8441,44.6772923 108.194125,44.8582112 108.466979,45.0756514 C109.460707,45.866385 110.90521,45.7008112 111.694067,44.7052204 C112.483078,43.7099365 112.317712,42.2618183 111.324597,41.4710847 C110.612451,40.9042363 109.782864,40.4659799 108.858805,40.1687451 C107.983743,39.8873157 107.058917,39.7444527 106.109747,39.7444527 C102.117228,39.7444527 99.2194935,42.3581856 99.2194935,45.9592229 C99.2194935,49.5602603 102.117228,52.1739931 106.109747,52.1739931 C107.219996,52.1739931 108.406498,52.5973647 108.406498,53.7852298 C108.406498,54.9730949 107.219996,55.3964665 106.109747,55.3964665 C105.641516,55.3964665 105.192118,55.328948 104.773803,55.1952921 C104.381059,55.070076 104.027818,54.888083 103.752515,54.6688013 C102.759246,53.8783746 101.314437,54.0445622 100.525579,55.0399996 C99.736875,56.035437 99.9027004,57.4834017 100.895969,58.2739819 C101.613321,58.84482 102.449032,59.2847644 103.380288,59.5818457 C104.249685,59.8592853 105.168079,60 106.109747,60 C110.102266,60 113,57.3862671 113,53.7852298 C113,50.1841925 110.102266,47.5704596 106.109747,47.5704596 L106.109747,47.5704596 Z" id="Path"></path>
                <path d="M34.9943713,42.174965 C33.1548268,40.5661835 30.7960634,39.6803102 28.3523203,39.6803102 C22.7799428,39.6803102 18.2466155,44.2235374 18.2466155,49.8080838 C18.2466155,55.3926303 22.7799428,59.9358574 28.3523203,59.9358574 C30.7949916,59.9358574 33.1531425,59.0505979 34.9922276,57.4430441 C35.9481354,56.6075027 36.0473551,55.1534 35.2134813,54.1954047 C34.3797607,53.2374093 32.9289796,53.137973 31.9729187,53.9736678 C30.9706165,54.8498737 29.6847421,55.332324 28.3523203,55.332324 C25.3127999,55.332324 22.8401177,52.8542419 22.8401177,49.8080838 C22.8401177,46.7619257 25.3127999,44.2838436 28.3523203,44.2838436 C29.6853546,44.2838436 30.9715352,44.7667543 31.9741436,45.6434205 C32.6873614,46.2673528 33.2182171,47.0565519 33.5334845,47.9284611 L28.2831115,47.9284611 C27.2259935,47.9284611 26.3691523,48.787327 26.3691523,49.8466 C26.3691523,50.9058731 27.2259935,51.764739 28.2831115,51.764739 L36.5514154,51.764739 C37.6083802,51.764739 38.4653746,50.9058731 38.4653746,49.8466 C38.4653746,49.7757056 38.4607811,49.7058854 38.4534315,49.6369858 C38.4050466,46.7742018 37.1525517,44.0624137 34.9943713,42.174965 L34.9943713,42.174965 Z" id="Path"></path>
                <path d="M92.4970562,42.174965 C90.6575117,40.5661835 88.2987484,39.6803102 85.8550052,39.6803102 C80.2826278,39.6803102 75.7493005,44.2235374 75.7493005,49.8080838 C75.7493005,55.3926303 80.2826278,59.9358574 85.8550052,59.9358574 C88.2976766,59.9358574 90.6558274,59.0505979 92.4949126,57.4430441 C93.4508204,56.6075027 93.55004,55.1534 92.7161663,54.1954047 C91.8822925,53.2374093 90.4315114,53.137973 89.4756036,53.9736678 C88.4731483,54.8498737 87.1874271,55.332324 85.8550052,55.332324 C82.8154848,55.332324 80.3428026,52.8542419 80.3428026,49.8080838 C80.3428026,46.7619257 82.8154848,44.2838436 85.8550052,44.2838436 C87.1880396,44.2838436 88.4742202,44.7667543 89.4768286,45.6434205 C90.1900463,46.2673528 90.7210552,47.0565519 91.0361694,47.9284611 L85.7857965,47.9284611 C84.7286785,47.9284611 83.8718372,48.787327 83.8718372,49.8466 C83.8718372,50.9058731 84.7286785,51.764739 85.7857965,51.764739 L94.0541003,51.764739 C95.1110652,51.764739 95.9680596,50.9058731 95.9680596,49.8466 C95.9680596,49.7757056 95.9634661,49.7058854 95.9561165,49.6369858 C95.9077316,46.7742018 94.6550835,44.0624137 92.4970562,42.174965 L92.4970562,42.174965 Z" id="Path"></path>
                <path d="M48.3158338,47.5704596 C47.2055843,47.5704596 46.0190827,47.147088 46.0190827,45.9592229 C46.0190827,44.7713578 47.2055843,44.3479862 48.3158338,44.3479862 C48.7875864,44.3479862 49.2400464,44.4165789 49.6608112,44.5519227 C50.0500339,44.6772923 50.4000588,44.8582112 50.6733722,45.0758049 C51.6667936,45.8666919 53.1116031,45.7005043 53.9003075,44.7049135 C54.689318,43.7094761 54.5236457,42.2615114 53.5302243,41.4709312 C52.8179252,40.9040828 51.9883387,40.4658264 51.0647386,40.1687451 C50.1896764,39.8873157 49.2648513,39.7444527 48.3158338,39.7444527 C44.3233148,39.7444527 41.4255805,42.3581856 41.4255805,45.9592229 C41.4255805,49.5602603 44.3233148,52.1739931 48.3158338,52.1739931 C49.4260832,52.1739931 50.6124317,52.5973647 50.6124317,53.7852298 C50.6124317,54.9730949 49.4260832,55.3964665 48.3158338,55.3964665 C47.8474497,55.3964665 47.398052,55.328948 46.9797371,55.1952921 C46.5869927,55.070076 46.2337523,54.888083 45.9584485,54.6688013 C44.9651802,53.8783746 43.5203706,54.0445622 42.7315132,55.0399996 C41.9428089,56.035437 42.1086343,57.4834017 43.1019026,58.2739819 C43.8192545,58.84482 44.6549657,59.2847644 45.5862217,59.5818457 C46.4554654,59.8592853 47.3738596,60 48.3158338,60 C52.3081996,60 55.2059339,57.3862671 55.2059339,53.7852298 C55.2059339,50.1841925 52.3081996,47.5704596 48.3158338,47.5704596 L48.3158338,47.5704596 Z" id="Path"></path>
                <path d="M65.3298595,47.5704596 C64.2196101,47.5704596 63.0332616,47.147088 63.0332616,45.9592229 C63.0332616,44.7713578 64.2196101,44.3479862 65.3298595,44.3479862 C65.8017653,44.3479862 66.2542253,44.4165789 66.6749901,44.5519227 C67.0640597,44.6772923 67.4140846,44.8582112 67.6870917,45.0756514 C68.6808194,45.866385 70.1251695,45.7008112 70.9143332,44.7052204 C71.7031907,43.7099365 71.5378246,42.2618183 70.5447094,41.4710847 C69.8324103,40.9042363 69.0028239,40.4658264 68.0789175,40.1687451 C67.2038553,39.8873157 66.2790302,39.7444527 65.3298595,39.7444527 C61.3374937,39.7444527 58.4397594,42.3581856 58.4397594,45.9592229 C58.4397594,49.5602603 61.3374937,52.1739931 65.3298595,52.1739931 C66.440109,52.1739931 67.6266106,52.5973647 67.6266106,53.7852298 C67.6266106,54.9730949 66.440109,55.3964665 65.3298595,55.3964665 C64.8616285,55.3964665 64.4122309,55.328948 63.993916,55.1952921 C63.6011715,55.070076 63.2479312,54.888083 62.9726273,54.6688013 C61.9793591,53.8783746 60.5345495,54.0445622 59.7456921,55.0399996 C58.9569877,56.035437 59.1228132,57.4834017 60.1160815,58.2739819 C60.8334334,58.84482 61.6691445,59.2847644 62.6004005,59.5818457 C63.4697974,59.8592853 64.3881916,60 65.3298595,60 C69.3223785,60 72.2201128,57.3862671 72.2201128,53.7852298 C72.2201128,50.1841925 69.3223785,47.5704596 65.3298595,47.5704596 L65.3298595,47.5704596 Z" id="Path"></path>
                <path d="M14.3289706,30.8444415 L14.2524123,30.8444415 C8.6800348,30.8444415 4.14670752,35.3876687 4.14670752,40.9722151 L4.14670752,57.6982333 C4.14670752,58.9694223 5.17503953,60 6.4434586,60 C7.71187766,60 8.74020968,58.9694223 8.74020968,57.6982333 L8.74020968,50.1794355 C8.74020968,47.9373613 10.5604615,46.1131344 12.7976501,46.1131344 C14.0660692,46.1131344 15.0944012,45.0825567 15.0944012,43.8113677 C15.0944012,42.5401786 14.0660692,41.5096009 12.7976501,41.5096009 C11.3321698,41.5096009 9.95105684,41.8778836 8.74020968,42.5252939 L8.74020968,40.9722151 C8.74020968,37.926057 11.2128919,35.447975 14.2524123,35.447975 L14.3289706,35.447975 C15.5973897,35.447975 16.6257217,34.4173973 16.6257217,33.1462082 C16.6257217,31.8750192 15.5973897,30.8444415 14.3289706,30.8444415 L14.3289706,30.8444415 Z" id="Path"></path>
            </g>
        </g>
    </g>
</svg>