<?xml version="1.0" encoding="utf-8"?>
<!-- Generator: Adobe Illustrator 21.0.2, SVG Export Plug-In . SVG Version: 6.00 Build 0)  -->
<svg version="1.1" id="Calque_1" xmlns="http://www.w3.org/2000/svg" xmlns:xlink="http://www.w3.org/1999/xlink" x="0px" y="0px"
	 viewBox="0 0 420 178" style="enable-background:new 0 0 420 178;" xml:space="preserve">
<g>
	<path d="M137.5,27.5c-5.3,0-9.6,4.3-9.6,9.6c0,5.3,4.3,9.6,9.6,9.6c5.3,0,9.6-4.3,9.6-9.6C147.1,31.8,142.8,27.5,137.5,27.5z
		 M255.2,108.7c2.4,0,4.1-0.7,5.3-2.1c1.1-1.4,1.7-2.9,1.7-4.6c0-0.8-0.2-1.5-0.5-2.1c-0.3-0.6-0.6-1.2-1-1.8
		c-3.3-5.4-5.6-11.1-7.1-17.1c-1.5-6-2.2-12.1-2.2-18.3c0-6.3,0.7-12.4,2.2-18.4c1.5-6,3.9-11.7,7.1-17.1c0.3-0.5,0.7-1.1,1-1.8
		c0.3-0.6,0.5-1.3,0.5-2.1c0-1.8-0.6-3.3-1.7-4.7c-1.1-1.4-2.9-2.1-5.3-2.1c-2.6,0-4.6,1.1-6,3.2c-4.3,6.5-7.4,13.4-9.2,20.9
		c-1.9,7.4-2.8,14.8-2.8,22.2c0,7.3,0.9,14.7,2.8,22.2c1.9,7.4,4.9,14.4,9.2,20.9C250.6,107.7,252.6,108.7,255.2,108.7z M407.4,40.4
		c-1.9-7.4-4.9-14.4-9.2-20.9c-1.4-2.1-3.4-3.2-6-3.2c-2.4,0-4.1,0.7-5.3,2.1c-1.1,1.4-1.7,3-1.7,4.7c0,0.7,0.2,1.4,0.5,2.1
		c0.3,0.6,0.6,1.2,1,1.8c3.3,5.4,5.6,11.1,7.1,17.1c1.5,6,2.2,12.2,2.2,18.4c0,6.2-0.8,12.3-2.2,18.3c-1.5,6-3.9,11.7-7.1,17.1
		c-0.3,0.6-0.7,1.2-1,1.8c-0.3,0.6-0.5,1.3-0.5,2.1c0,1.7,0.6,3.2,1.7,4.6c1.1,1.4,2.9,2.1,5.3,2.1c2.6,0,4.6-1,6-3.1
		c4.3-6.5,7.4-13.4,9.2-20.9c1.9-7.5,2.8-14.8,2.8-22.2C410.2,55.3,409.3,47.9,407.4,40.4z M33.8,27.1c0.3-0.5,0.7-1.1,1-1.8
		c0.3-0.6,0.5-1.3,0.5-2.1c0-1.8-0.6-3.3-1.7-4.7s-2.9-2.1-5.3-2.1c-2.6,0-4.6,1.1-6,3.2C18,26.1,14.9,33,13,40.4
		c-1.9,7.4-2.8,14.8-2.8,22.2c0,7.3,0.9,14.7,2.8,22.2c1.9,7.4,4.9,14.4,9.2,20.9c1.4,2,3.4,3.1,6,3.1c2.4,0,4.1-0.7,5.3-2.1
		c1.1-1.4,1.7-2.9,1.7-4.6c0-0.8-0.2-1.5-0.5-2.1c-0.3-0.6-0.6-1.2-1-1.8c-3.3-5.4-5.6-11.1-7.1-17.1c-1.5-6-2.2-12.1-2.2-18.3
		c0-6.3,0.7-12.4,2.2-18.4C28.1,38.2,30.5,32.5,33.8,27.1z M66,46.7c5.3,0,9.6-4.3,9.6-9.6c0-5.3-4.3-9.6-9.6-9.6
		c-5.3,0-9.6,4.3-9.6,9.6C56.4,42.4,60.7,46.7,66,46.7z M190.5,40.4c-1.9-7.4-4.9-14.4-9.2-20.9c-1.4-2.1-3.4-3.2-6-3.2
		c-2.4,0-4.1,0.7-5.3,2.1c-1.1,1.4-1.7,3-1.7,4.7c0,0.7,0.2,1.4,0.5,2.1c0.3,0.6,0.6,1.2,1,1.8c3.3,5.4,5.6,11.1,7.1,17.1
		c1.5,6,2.2,12.2,2.2,18.4c0,6.2-0.8,12.3-2.2,18.3c-1.5,6-3.9,11.7-7.1,17.1c-0.3,0.6-0.7,1.2-1,1.8c-0.3,0.6-0.5,1.3-0.5,2.1
		c0,1.7,0.6,3.2,1.7,4.6c1.1,1.4,2.9,2.1,5.3,2.1c2.6,0,4.6-1,6-3.1c4.3-6.5,7.4-13.4,9.2-20.9c1.9-7.5,2.8-14.8,2.8-22.2
		C193.3,55.3,192.3,47.9,190.5,40.4z M136.5,90.2c0-1.8-0.5-3.1-1.6-4c-1.1-0.8-2.3-1.3-3.6-1.3c-0.6,0-1.1,0.1-1.6,0.3
		c-0.5,0.2-0.9,0.5-1.4,0.7c-4.1,2.5-8.4,4.3-13,5.4c-4.6,1.1-9.2,1.7-14,1.7c-4.7,0-9.3-0.6-13.9-1.7c-4.6-1.1-8.9-2.9-13-5.4
		c-0.5-0.3-0.9-0.5-1.4-0.7c-0.5-0.2-1-0.3-1.6-0.3c-1.3,0-2.5,0.4-3.5,1.3c-1.1,0.8-1.6,2.2-1.6,4c0,2,0.8,3.5,2.3,4.6
		c4.9,3.3,10.2,5.6,15.8,7c5.7,1.4,11.3,2.1,16.8,2.1c5.6,0,11.2-0.7,16.8-2.1c5.6-1.4,10.9-3.8,15.8-7
		C135.7,93.6,136.5,92.1,136.5,90.2z M338,95.3c3.3-4.9,5.6-10.2,7-15.8c1.4-5.7,2.1-11.3,2.1-16.8c0-5.6-0.7-11.2-2.1-16.8
		c-1.4-5.6-3.8-10.9-7-15.8c-1.1-1.6-2.6-2.4-4.6-2.4c-1.8,0-3.1,0.5-4,1.6c-0.9,1.1-1.3,2.3-1.3,3.6c0,0.6,0.1,1.1,0.3,1.6
		c0.2,0.5,0.5,0.9,0.7,1.4c2.5,4.1,4.3,8.4,5.4,13c1.1,4.6,1.7,9.2,1.7,14c0,4.7-0.6,9.3-1.7,13.9c-1.1,4.6-2.9,8.9-5.4,13
		c-0.3,0.5-0.5,0.9-0.7,1.4c-0.2,0.5-0.3,1-0.3,1.6c0,1.3,0.4,2.5,1.3,3.5c0.8,1.1,2.2,1.6,4,1.6C335.4,97.6,336.9,96.9,338,95.3z"
		/>
	<path d="M59,161h3.3v-11.6h9.9v-2.8h-9.9v-8.8H74v-2.8H59V161z M85.3,135.1L76.6,161h3.4l2.5-7.9h9.4l2.5,7.9h3.5L89,135.1H85.3z
		 M91,150.4h-7.8l1.3-3.9c0.9-2.9,1.7-5.7,2.6-8.7h0.2c0.8,3,1.7,5.8,2.6,8.7L91,150.4z M114,158.6c-4.9,0-8.1-4.1-8.1-10.6
		c0-6.4,3.3-10.5,8.2-10.5c2.1,0,3.8,0.9,5.2,2.4l1.9-2.1c-1.5-1.7-4-3.2-7.1-3.2c-6.6,0-11.6,5.1-11.6,13.4
		c0,8.4,4.9,13.4,11.4,13.4c3.3,0,5.8-1.4,7.9-3.7l-1.9-2C118.2,157.6,116.4,158.6,114,158.6z M132.8,148.8h9.8V146h-9.8v-8.1h11.6
		v-2.8h-14.9V161h15.3v-2.8h-12V148.8z M162,137.9h7.9V161h3.3v-23.1h7.9v-2.8h-19V137.9z M197.2,134.6c-6.5,0-11.1,5-11.1,13.3
		c0,8.3,4.6,13.5,11.1,13.5c6.5,0,11.1-5.2,11.1-13.5C208.2,139.7,203.6,134.6,197.2,134.6z M197.2,158.6c-4.7,0-7.7-4.2-7.7-10.7
		c0-6.4,3-10.4,7.7-10.4c4.6,0,7.7,4,7.7,10.4C204.8,154.4,201.8,158.6,197.2,158.6z M227.9,161h3.3v-11.6h9.9v-2.8h-9.9v-8.8h11.6
		v-2.8h-15V161z M253.7,148.8h9.8V146h-9.8v-8.1h11.6v-2.8h-14.9V161h15.3v-2.8h-12V148.8z M284.8,147.2l-3.7-1.6
		c-2-0.9-4.3-1.8-4.3-4.3c0-2.3,1.9-3.8,4.9-3.8c2.4,0,4.3,0.9,5.9,2.4l1.7-2.1c-1.8-1.9-4.5-3.2-7.6-3.2c-4.7,0-8.2,2.9-8.2,6.9
		c0,3.8,2.8,5.6,5.2,6.7l3.7,1.6c2.4,1.1,4.3,1.9,4.3,4.6c0,2.5-2,4.2-5.4,4.2c-2.7,0-5.3-1.3-7.1-3.2l-2,2.3c2.3,2.3,5.4,3.8,9,3.8
		c5.4,0,8.8-3.3,8.8-7.4C290.1,150.2,287.8,148.5,284.8,147.2z M308.3,147.2l-3.7-1.6c-2-0.9-4.3-1.8-4.3-4.3c0-2.3,1.9-3.8,4.9-3.8
		c2.4,0,4.3,0.9,5.9,2.4l1.7-2.1c-1.8-1.9-4.5-3.2-7.6-3.2c-4.7,0-8.2,2.9-8.2,6.9c0,3.8,2.8,5.6,5.2,6.7l3.7,1.6
		c2.4,1.1,4.3,1.9,4.3,4.6c0,2.5-2,4.2-5.4,4.2c-2.7,0-5.3-1.3-7.1-3.2l-2,2.3c2.3,2.3,5.4,3.8,9,3.8c5.4,0,8.8-3.3,8.8-7.4
		C313.6,150.2,311.3,148.5,308.3,147.2z M324.9,148.8h9.8V146h-9.8v-8.1h11.6v-2.8h-14.9V161h15.3v-2.8h-12V148.8z M356.1,147.2
		l-3.7-1.6c-2-0.9-4.3-1.8-4.3-4.3c0-2.3,1.9-3.8,4.9-3.8c2.4,0,4.3,0.9,5.9,2.4l1.7-2.1c-1.8-1.9-4.5-3.2-7.6-3.2
		c-4.7,0-8.2,2.9-8.2,6.9c0,3.8,2.8,5.6,5.2,6.7l3.7,1.6c2.4,1.1,4.3,1.9,4.3,4.6c0,2.5-2,4.2-5.4,4.2c-2.7,0-5.3-1.3-7.1-3.2
		l-2,2.3c2.3,2.3,5.4,3.8,9,3.8c5.4,0,8.8-3.3,8.8-7.4C361.4,150.2,359.1,148.5,356.1,147.2z"/>
</g>
</svg>
