<?xml version="1.0" encoding="UTF-8"?>
<svg width="30px" height="20px" viewBox="0 0 30 20" version="1.1" xmlns="http://www.w3.org/2000/svg" xmlns:xlink="http://www.w3.org/1999/xlink">
    <!-- Generator: Sketch 42 (36781) - http://www.bohemiancoding.com/sketch -->
    <title>mail</title>
    <desc>Created with Sketch.</desc>
    <defs></defs>
    <g id="website" stroke="none" stroke-width="1" fill="none" fill-rule="evenodd">
        <g id="face-to-fesse-website" transform="translate(-759.000000, -8035.000000)" fill="#FFFFFF">
            <g id="RS" transform="translate(560.000000, 7970.000000)">
                <g id="picto" transform="translate(92.000000, 60.000000)">
                    <path d="M126.591406,14.9304122 L135.125,7.37846139 L135.125,22.4823631 L126.591406,14.9304122 Z M118.135625,15.5658204 L119.853125,17.0900322 C120.465781,17.6332965 121.234062,17.9049287 122.002344,17.9049287 C122.769219,17.9049287 123.536094,17.6342564 124.148281,17.0924317 L125.874687,15.5648606 L134.367031,23.0803379 L109.66625,23.0803379 L118.135625,15.5658204 Z M123.534688,16.3667994 C122.659531,17.1409032 121.340937,17.1404233 120.467656,16.3643999 L109.82375,6.91966214 L134.209531,6.91966214 L123.534688,16.3667994 Z M108.875,7.34870663 L117.419844,14.9304122 L108.875,22.5121179 L108.875,7.34870663 Z M135.125,5 L108.875,5 C107.839531,5 107,5.85952872 107,6.91966214 L107,23.0803379 C107,24.1404713 107.839531,25 108.875,25 L135.125,25 C136.160469,25 137,24.1404713 137,23.0803379 L137,6.91966214 C137,5.85952872 136.160469,5 135.125,5 L135.125,5 Z" id="mail"></path>
                </g>
            </g>
        </g>
    </g>
</svg>