<?xml version="1.0" encoding="UTF-8"?>
<svg width="200px" height="197px" viewBox="0 0 200 197" version="1.1" xmlns="http://www.w3.org/2000/svg" xmlns:xlink="http://www.w3.org/1999/xlink">
    <!-- Generator: Sketch 43 (38999) - http://www.bohemiancoding.com/sketch -->
    <title>college</title>
    <desc>Created with Sketch.</desc>
    <defs></defs>
    <g id="01_website" stroke="none" stroke-width="1" fill="none" fill-rule="evenodd">
        <g id="ftf-website" transform="translate(-230.000000, -1055.000000)" fill="#A874DE">
            <g id="Contexte" transform="translate(230.000000, 1055.000000)">
                <path d="M175.440625,190.746131 L69.1875,190.746131 C67.459375,190.746131 66.0625,192.143871 66.0625,193.873066 C66.0625,195.60226 67.459375,197 69.1875,197 L175.440625,197 C177.16875,197 178.565625,195.60226 178.565625,193.873066 C178.565625,192.143871 177.16875,190.746131 175.440625,190.746131 L175.440625,190.746131 Z M116.103125,184.489135 C116.103125,182.75994 114.703125,181.362201 112.978125,181.362201 L37.978125,181.362201 C36.25,181.362201 34.853125,182.75994 34.853125,184.489135 C34.853125,186.21833 36.25,187.61607 37.978125,187.61607 L112.978125,187.61607 C114.703125,187.61607 116.103125,186.21833 116.103125,184.489135 L116.103125,184.489135 Z M91.4875,71.84132 C89.759375,71.84132 88.3625,73.2390597 88.3625,74.9682545 L88.3625,95.4434215 C88.3625,97.1726163 89.759375,98.570356 91.4875,98.570356 C93.215625,98.570356 94.6125,97.1726163 94.6125,95.4434215 L94.6125,74.9682545 C94.6125,73.2390597 93.215625,71.84132 91.4875,71.84132 L91.4875,71.84132 Z M110.815625,71.84132 C109.090625,71.84132 107.690625,73.2390597 107.690625,74.9682545 L107.690625,95.4434215 C107.690625,97.1726163 109.090625,98.570356 110.815625,98.570356 C112.54375,98.570356 113.940625,97.1726163 113.940625,95.4434215 L113.940625,74.9682545 C113.940625,73.2390597 112.54375,71.84132 110.815625,71.84132 L110.815625,71.84132 Z M42.884375,114.786638 C41.15625,114.786638 39.759375,116.184378 39.759375,117.913573 L39.759375,138.391867 C39.759375,140.121062 41.15625,141.518801 42.884375,141.518801 C44.6125,141.518801 46.009375,140.121062 46.009375,138.391867 L46.009375,117.913573 C46.009375,116.184378 44.6125,114.786638 42.884375,114.786638 L42.884375,114.786638 Z M63.35,114.786638 C61.621875,114.786638 60.225,116.184378 60.225,117.913573 L60.225,138.391867 C60.225,140.121062 61.621875,141.518801 63.35,141.518801 C65.078125,141.518801 66.475,140.121062 66.475,138.391867 L66.475,117.913573 C66.475,116.184378 65.078125,114.786638 63.35,114.786638 L63.35,114.786638 Z M136.396875,114.786638 C134.66875,114.786638 133.271875,116.184378 133.271875,117.913573 L133.271875,138.391867 C133.271875,140.121062 134.66875,141.518801 136.396875,141.518801 C138.125,141.518801 139.521875,140.121062 139.521875,138.391867 L139.521875,117.913573 C139.521875,116.184378 138.125,114.786638 136.396875,114.786638 L136.396875,114.786638 Z M156.8625,114.786638 C155.134375,114.786638 153.7375,116.184378 153.7375,117.913573 L153.7375,138.391867 C153.7375,140.121062 155.134375,141.518801 156.8625,141.518801 C158.5875,141.518801 159.9875,140.121062 159.9875,138.391867 L159.9875,117.913573 C159.9875,116.184378 158.5875,114.786638 156.8625,114.786638 L156.8625,114.786638 Z M173.05,165.727528 L118.459375,165.727528 L118.459375,134.311217 C118.459375,125.771559 111.5125,118.820384 102.978125,118.820384 L96.615625,118.820384 C88.078125,118.820384 81.13125,125.771559 81.13125,134.311217 L81.13125,165.727528 L26.95,165.727528 L26.95,102.694783 C26.95,100.59661 28.65625,98.8893033 30.75625,98.8893033 L69.834375,98.8893033 L69.834375,68.2953763 L101.078125,54.3992794 L129.9625,68.0014444 L129.9625,98.8893033 L169.040625,98.8893033 C171.171875,98.8893033 172.971875,100.699798 173.05,102.694783 L173.05,165.727528 Z M105.959375,165.727528 L93.63125,165.727528 L93.63125,134.311217 C93.63125,132.638307 94.94375,131.328122 96.615625,131.328122 L102.978125,131.328122 C104.65,131.328122 105.959375,132.638307 105.959375,134.311217 L105.959375,165.727528 Z M193.75,165.727528 L185.55,165.727528 L185.546875,102.460263 C185.209375,93.4453104 177.959375,86.3815654 169.040625,86.3815654 L142.4625,86.3815654 L142.4625,73.8300503 C145.471875,74.9620006 148.896875,73.6361804 150.29375,70.6655926 C151.765625,67.5417851 150.421875,63.8144791 147.3,62.3448199 L145,61.2597737 L193.75,61.2597737 C195.478125,61.2597737 196.875,59.8620339 196.875,58.1328392 C196.875,56.4036444 195.478125,55.0059047 193.75,55.0059047 L139.45625,55.0059047 L139.45625,23.0861574 C139.45625,21.3569626 138.059375,19.9592229 136.33125,19.9592229 L86.109375,19.9592229 C84.38125,19.9592229 82.984375,21.3569626 82.984375,23.0861574 L82.984375,37.5232139 L52.475,37.5232139 L52.475,3.12693449 C52.475,1.39773972 51.078125,0 49.35,0 L6.25,0 C4.525,0 3.125,1.39773972 3.125,3.12693449 L3.125,62.1478231 C3.125,63.8770178 4.525,65.2747575 6.25,65.2747575 C7.978125,65.2747575 9.375,63.8770178 9.375,62.1478231 L9.375,6.25386899 L46.225,6.25386899 L46.225,40.6501484 C46.225,42.3793432 47.625,43.7770829 49.35,43.7770829 L86.109375,43.7770829 C87.8375,43.7770829 89.234375,42.3793432 89.234375,40.6501484 L89.234375,26.2130919 L133.20625,26.2130919 L133.20625,55.706338 L101.225,40.6470215 L52.56875,62.2885351 C49.415625,63.6894018 47.99375,67.3854383 49.396875,70.5436422 C50.43125,72.8732084 52.715625,74.2584403 55.109375,74.2584403 C55.853125,74.2584403 56.603125,74.0989667 57.334375,73.8144156 L57.334375,86.3815654 L30.75625,86.3815654 C21.765625,86.3815654 14.45,93.6985921 14.45,102.694783 L14.45,165.727528 L6.25,165.727528 C2.8,165.727528 0,168.529261 0,171.981397 C0,175.43666 2.8,178.235266 6.25,178.235266 L193.75,178.235266 C197.203125,178.235266 200,175.43666 200,171.981397 C200,168.529261 197.203125,165.727528 193.75,165.727528 L193.75,165.727528 Z" id="college"></path>
            </g>
        </g>
    </g>
</svg>