<?xml version="1.0" encoding="UTF-8"?>
<svg width="193px" height="187px" viewBox="0 0 193 187" version="1.1" xmlns="http://www.w3.org/2000/svg" xmlns:xlink="http://www.w3.org/1999/xlink">
    <!-- Generator: Sketch 43 (38999) - http://www.bohemiancoding.com/sketch -->
    <title>bus</title>
    <desc>Created with Sketch.</desc>
    <defs></defs>
    <g id="01_website" stroke="none" stroke-width="1" fill="none" fill-rule="evenodd">
        <g id="ftf-website" transform="translate(-1017.000000, -1892.000000)" fill="#A874DE">
            <g id="Contexte" transform="translate(230.000000, 1055.000000)">
                <path d="M908.985339,965.275767 C909.841387,965.275767 910.54179,965.977017 910.54179,966.8341 C910.54179,967.691183 909.841387,968.392433 908.985339,968.392433 C908.12929,968.392433 907.428887,967.691183 907.428887,966.8341 C907.428887,965.977017 908.12929,965.275767 908.985339,965.275767 L908.985339,965.275767 Z M908.985339,971.5091 C911.55971,971.5091 913.654694,969.411583 913.654694,966.8341 C913.654694,964.256617 911.55971,962.1591 908.985339,962.1591 C906.410968,962.1591 904.315984,964.256617 904.315984,966.8341 C904.315984,969.411583 906.410968,971.5091 908.985339,971.5091 L908.985339,971.5091 Z M821.827161,968.392433 C820.971113,968.392433 820.27071,967.691183 820.27071,966.8341 C820.27071,965.977017 820.971113,965.275767 821.827161,965.275767 C822.68321,965.275767 823.383613,965.977017 823.383613,966.8341 C823.383613,967.691183 822.68321,968.392433 821.827161,968.392433 L821.827161,968.392433 Z M821.827161,962.1591 C819.25279,962.1591 817.157806,964.256617 817.157806,966.8341 C817.157806,969.411583 819.25279,971.5091 821.827161,971.5091 C824.401532,971.5091 826.496516,969.411583 826.496516,966.8341 C826.496516,964.256617 824.401532,962.1591 821.827161,962.1591 L821.827161,962.1591 Z M849.995823,964.24415 L880.237677,964.24415 C881.096839,964.24415 881.794129,963.546017 881.794129,962.685817 C881.794129,961.825617 881.096839,961.127483 880.237677,961.127483 L849.995823,961.127483 C849.133548,961.127483 848.439371,961.825617 848.439371,962.685817 C848.439371,963.546017 849.133548,964.24415 849.995823,964.24415 L849.995823,964.24415 Z M849.995823,956.704933 L880.237677,956.704933 C881.096839,956.704933 881.794129,956.0068 881.794129,955.1466 C881.794129,954.2864 881.096839,953.588267 880.237677,953.588267 L849.995823,953.588267 C849.133548,953.588267 848.439371,954.2864 848.439371,955.1466 C848.439371,956.0068 849.133548,956.704933 849.995823,956.704933 L849.995823,956.704933 Z M849.995823,949.165717 L880.237677,949.165717 C881.096839,949.165717 881.794129,948.467583 881.794129,947.607383 C881.794129,946.747183 881.096839,946.04905 880.237677,946.04905 L849.995823,946.04905 C849.133548,946.04905 848.439371,946.747183 848.439371,947.607383 C848.439371,948.467583 849.133548,949.165717 849.995823,949.165717 L849.995823,949.165717 Z M976.887097,880.461917 L965.876758,880.461917 C964.158435,880.461917 962.763855,881.855067 962.763855,883.578583 L962.763855,905.566667 L937.066839,905.566667 L937.066839,840.116667 C937.066839,838.39315 935.675371,837 933.953935,837 L897.339968,837 C895.618532,837 894.227065,838.39315 894.227065,840.116667 L894.227065,866.972983 L859.761,866.972983 L859.761,856.974717 C859.761,855.2512 858.369532,853.85805 856.65121,853.85805 L790.112903,853.85805 C788.394581,853.85805 787,855.2512 787,856.974717 C787,858.698233 788.394581,860.091383 790.112903,860.091383 L853.538306,860.091383 L853.538306,870.08965 C853.538306,871.813167 854.929774,873.206317 856.65121,873.206317 L897.339968,873.206317 C899.061403,873.206317 900.452871,871.813167 900.452871,870.08965 L900.452871,843.233333 L930.841032,843.233333 L930.841032,908.683333 C930.841032,910.40685 932.235613,911.8 933.953935,911.8 L965.876758,911.8 C967.598194,911.8 968.989661,910.40685 968.989661,908.683333 L968.989661,886.69525 L976.887097,886.69525 C978.608532,886.69525 980,885.3021 980,883.578583 C980,881.855067 978.608532,880.461917 976.887097,880.461917 L976.887097,880.461917 Z M923.27979,1017.76355 L817.437968,1017.76355 C815.716532,1017.76355 814.325065,1019.1567 814.325065,1020.88022 C814.325065,1022.60373 815.716532,1023.99688 817.437968,1023.99688 L923.27979,1023.99688 C925.001226,1023.99688 926.392694,1022.60373 926.392694,1020.88022 C926.392694,1019.1567 925.001226,1017.76355 923.27979,1017.76355 L923.27979,1017.76355 Z M948.155,1008.41355 L873.445323,1008.41355 C871.723887,1008.41355 870.332419,1009.8067 870.332419,1011.53022 C870.332419,1013.25373 871.723887,1014.64688 873.445323,1014.64688 L948.155,1014.64688 C949.876435,1014.64688 951.267903,1013.25373 951.267903,1011.53022 C951.267903,1009.8067 949.876435,1008.41355 948.155,1008.41355 L948.155,1008.41355 Z M912.101355,987.541233 C912.101355,988.594667 911.332468,989.454867 910.389258,989.454867 L901.358726,989.454867 C900.415516,989.454867 899.649742,988.594667 899.649742,987.541233 L899.649742,980.104867 L912.101355,980.104867 L912.101355,987.541233 Z M835.436774,992.830217 C836.638355,991.402783 837.388565,989.567067 837.388565,987.541233 L837.388565,980.104867 L893.423935,980.104867 L893.423935,987.541233 C893.423935,989.567067 894.174145,991.402783 895.372613,992.830217 L835.436774,992.830217 Z M831.162758,987.541233 C831.162758,988.594667 830.396984,989.454867 829.453774,989.454867 L820.423242,989.454867 C819.480032,989.454867 818.711145,988.594667 818.711145,987.541233 L818.711145,980.104867 L831.162758,980.104867 L831.162758,987.541233 Z M812.485339,973.871533 L812.485339,958.2882 L827.327661,958.2882 C827.760355,958.2882 828.18371,958.431567 828.457645,958.665317 L837.123968,966.1983 C837.2765,966.3292 837.366774,966.481917 837.366774,966.603467 L837.382339,973.871533 L812.485339,973.871533 Z M813.951516,936.462183 C813.142161,936.462183 812.485339,935.8295 812.485339,935.050333 L812.485339,919.174033 C812.485339,918.394867 813.142161,917.762183 813.951516,917.762183 L815.598242,917.762183 L815.598242,936.462183 L813.951516,936.462183 Z M821.820935,904.634783 C821.855177,903.82445 822.231839,901.231383 823.483226,900.019 C825.251355,898.30795 826.119855,898.080433 827.094194,897.8311 C830.322274,896.977133 847.293823,892.713533 864.520629,892.439267 L866.245177,892.439267 C883.518677,892.713533 900.490226,896.977133 903.992242,897.902783 C904.692645,898.080433 905.561145,898.304833 907.329274,900.019 C908.580661,901.228267 908.95421,903.821333 908.985339,904.5257 L908.985339,905.448233 C907.895823,905.03995 906.719145,904.79685 905.483323,904.79685 L825.329177,904.79685 C824.090242,904.79685 822.913565,905.03995 821.820935,905.45135 L821.820935,904.634783 Z M893.230935,936.356217 C892.16321,934.2774 890.052661,932.8375 887.596581,932.8375 L866.671645,932.8375 L866.671645,911.030183 L905.483323,911.030183 C907.413323,911.030183 908.985339,912.42645 908.985339,914.14685 L908.985339,936.356217 L893.230935,936.356217 Z M895.957839,940.66345 L893.981145,940.66345 L893.981145,939.472883 L908.985339,939.472883 L908.985339,952.054867 L906.379839,952.054867 L906.379839,950.66795 C906.379839,945.15145 901.704258,940.66345 895.957839,940.66345 L895.957839,940.66345 Z M830.773645,950.66795 C830.773645,948.589133 832.653839,946.896783 834.969839,946.896783 L836.267919,946.896783 C836.267919,948.617183 837.659387,950.01345 839.380823,950.01345 C841.099145,950.01345 842.493726,948.617183 842.493726,946.896783 L842.493726,939.35445 C842.493726,939.170567 842.60579,939.070833 842.649371,939.070833 L887.596581,939.070833 C887.643274,939.070833 887.755339,939.170567 887.755339,939.35445 L887.755339,946.896783 C887.755339,948.617183 889.146806,950.01345 890.868242,950.01345 C892.586565,950.01345 893.981145,948.617183 893.981145,946.896783 L895.957839,946.896783 C898.273839,946.896783 900.154032,948.589133 900.154032,950.66795 L900.154032,952.793517 C899.478532,953.102067 898.837274,953.47295 898.276952,953.95915 L889.595065,961.498367 C888.085306,962.819833 887.219919,964.677367 887.219919,966.591 L887.204355,973.871533 L843.608145,973.871533 L843.592581,966.597233 C843.592581,964.677367 842.727194,962.819833 841.21121,961.49525 L832.535548,953.956033 C832.006355,953.501 831.405565,953.1457 830.773645,952.849617 L830.773645,950.66795 Z M821.824048,936.356217 L821.820935,914.159317 C821.820935,914.153083 821.824048,914.153083 821.824048,914.14685 C821.824048,912.42645 823.396065,911.030183 825.329177,911.030183 L863.558742,911.030183 L863.558742,932.8375 L842.649371,932.8375 C840.19329,932.8375 838.082742,934.2774 837.018129,936.356217 L821.824048,936.356217 Z M836.267919,939.472883 L836.267919,940.66345 L834.969839,940.66345 C829.223419,940.66345 824.547839,945.15145 824.547839,950.66795 L824.547839,952.054867 L821.824048,952.054867 L821.824048,939.472883 L836.267919,939.472883 Z M918.327161,958.2882 L918.327161,973.871533 L893.430161,973.871533 L893.445726,966.597233 C893.445726,966.481917 893.536,966.3292 893.682306,966.201417 L902.354855,958.668433 C902.62879,958.431567 903.052145,958.2882 903.484839,958.2882 L918.327161,958.2882 Z M915.211145,917.762183 L916.860984,917.762183 C917.667226,917.762183 918.324048,918.394867 918.324048,919.174033 L918.324048,935.050333 C918.324048,935.8295 917.667226,936.462183 916.860984,936.462183 L915.211145,936.462183 L915.211145,917.762183 Z M958.209677,992.830217 L916.378484,992.830217 C917.576952,991.402783 918.327161,989.567067 918.327161,987.541233 L918.327161,980.104867 L921.440065,980.104867 C923.1615,980.104867 924.552968,978.711717 924.552968,976.9882 L924.552968,957.11945 C924.552968,954.3238 922.149806,952.054867 919.198774,952.054867 L915.211145,952.054867 L915.211145,939.57885 L916.860984,939.57885 C919.388661,939.57885 921.436952,937.5499 921.436952,935.050333 L921.436952,919.174033 C921.436952,916.67135 919.388661,914.645517 916.860984,914.645517 L915.211145,914.645517 L915.211145,904.4322 C915.192468,903.855617 914.946548,898.722467 911.65621,895.537233 C908.932419,892.897417 907.070903,892.255383 905.302774,891.803467 C900.60229,890.559917 883.886,886.483317 866.291871,886.205933 L864.470823,886.205933 C846.923387,886.483317 830.21021,890.559917 825.266919,891.8658 C824.161839,892.149417 822.10421,892.67925 819.15629,895.537233 C815.865952,898.722467 815.616919,903.855617 815.598242,904.5257 L815.598242,914.645517 L813.951516,914.645517 C811.420726,914.645517 809.372435,916.67135 809.372435,919.174033 L809.372435,935.050333 C809.372435,937.5499 811.420726,939.57885 813.951516,939.57885 L815.598242,939.57885 L815.598242,952.054867 L811.613726,952.054867 C808.659581,952.054867 806.259532,954.3238 806.259532,957.11945 L806.259532,976.9882 C806.259532,978.711717 807.651,980.104867 809.372435,980.104867 L812.485339,980.104867 L812.485339,987.541233 C812.485339,989.567067 813.235548,991.402783 814.437129,992.830217 L796.33871,992.830217 C792.902065,992.830217 790.112903,995.619633 790.112903,999.06355 C790.112903,1002.50435 792.902065,1005.29688 796.33871,1005.29688 L958.209677,1005.29688 C961.646323,1005.29688 964.432371,1002.50435 964.432371,999.06355 C964.432371,995.619633 961.646323,992.830217 958.209677,992.830217 L958.209677,992.830217 Z" id="bus"></path>
            </g>
        </g>
    </g>
</svg>