<?xml version="1.0" encoding="UTF-8"?>
<svg width="29px" height="64px" viewBox="0 0 29 64" version="1.1" xmlns="http://www.w3.org/2000/svg" xmlns:xlink="http://www.w3.org/1999/xlink">
    <!-- Generator: Sketch 42 (36781) - http://www.bohemiancoding.com/sketch -->
    <title>Fill 1</title>
    <desc>Created with Sketch.</desc>
    <defs></defs>
    <g id="website" stroke="none" stroke-width="1" fill="none" fill-rule="evenodd">
        <g id="face-to-fesse-website" transform="translate(-706.000000, -797.000000)" fill="#FFFFFF">
            <g id="Accroche" transform="translate(319.000000, 280.000000)">
                <g id="know-more" transform="translate(319.000000, 455.000000)">
                    <path d="M82.1633092,104.40993 C82.6777129,104.40993 83.0935147,103.994128 83.0935147,103.479724 L83.0935147,89.0671201 C83.0935147,88.5527165 82.6777129,88.1369146 82.1633092,88.1369146 C81.6489056,88.1369146 81.2331037,88.5527165 81.2331037,89.0671201 L81.2331037,103.479724 C81.2331037,103.994128 81.6489056,104.40993 82.1633092,104.40993 M82.1633092,83.9072701 C82.6777129,83.9072701 83.0935147,83.4914683 83.0935147,82.9770646 L83.0935147,72.8452661 C83.0935147,72.3317927 82.6777129,71.9150606 82.1633092,71.9150606 C81.6489056,71.9150606 81.2331037,72.3317927 81.2331037,72.8452661 L81.2331037,82.9770646 C81.2331037,83.4914683 81.6489056,83.9072701 82.1633092,83.9072701 M94.4652772,62 C93.4374001,62 92.6048661,62.8334641 92.6048661,63.860411 L92.6048661,105.108514 C92.6048661,109.982791 90.2858638,113.679428 86.403186,114.994739 C85.6469289,115.250545 85.1390367,115.959362 85.1390367,116.756548 L85.1390367,119.30252 C85.1390367,120.331328 84.5167292,122.279178 82.1633092,122.279178 C79.808959,122.279178 79.1866516,120.331328 79.1866516,119.30252 L79.1866516,116.756548 C79.1866516,115.959362 78.6787593,115.250545 77.9225023,114.994739 C74.0398244,113.678498 71.7208221,109.982791 71.7208221,105.108514 L71.7208221,63.860411 C71.7208221,62.8334641 70.8882881,62 69.860411,62 C68.8334641,62 68,62.8334641 68,63.860411 L68,105.108514 C68,111.034854 70.8268946,115.856109 75.4658295,118.013255 L75.4658295,119.30252 C75.4658295,122.548938 77.812738,126 82.1633092,126 C86.5129502,126 88.8598587,122.548938 88.8598587,119.30252 L88.8598587,118.013255 C93.4987936,115.856109 96.3256882,111.034854 96.3256882,105.108514 L96.3256882,63.860411 C96.3256882,62.8334641 95.4922241,62 94.4652772,62" id="Fill-1"></path>
                </g>
            </g>
        </g>
    </g>
</svg>