<?xml version="1.0" encoding="UTF-8"?>
<svg width="40px" height="51px" viewBox="0 0 40 51" version="1.1" xmlns="http://www.w3.org/2000/svg" xmlns:xlink="http://www.w3.org/1999/xlink">
    <!-- Generator: Sketch 42 (36781) - http://www.bohemiancoding.com/sketch -->
    <title>Fill 1</title>
    <desc>Created with Sketch.</desc>
    <defs></defs>
    <g id="website" stroke="none" stroke-width="1" fill="none" fill-rule="evenodd">
        <g id="face-to-fesse-website" transform="translate(-210.000000, -6347.000000)" fill="#4BD1A4">
            <g id="Dispositif" transform="translate(190.000000, 3465.000000)">
                <g id="Les-témoignages" transform="translate(20.000000, 2628.000000)">
                    <path d="M29.5957386,263.504662 C29.8033312,263.504662 30.0109239,263.425193 30.1690511,263.267066 L32.9593883,260.476729 C33.2764536,260.159663 33.2764536,259.646358 32.9593883,259.330104 C32.6431339,259.013038 32.1298286,259.013038 31.8127632,259.330104 L29.0224261,262.120441 C28.7053607,262.437506 28.7053607,262.95 29.0224261,263.267066 C29.1805533,263.425193 29.3881459,263.504662 29.5957386,263.504662 L29.5957386,263.504662 Z M10.7291344,263.267066 C10.8880725,263.425193 11.0956651,263.504662 11.3024469,263.504662 C11.5100395,263.504662 11.7176322,263.425193 11.8757594,263.267066 C12.1928248,262.95 12.1928248,262.437506 11.8757594,262.120441 L9.08542223,259.330104 C8.76835689,259.013038 8.25586252,259.013038 7.93879718,259.330104 C7.62173184,259.646358 7.62173184,260.159663 7.93879718,260.476729 L10.7291344,263.267066 Z M3.34743154,272.650902 L7.54875005,272.650902 C7.99637171,272.650902 8.35965885,272.288426 8.35965885,271.839994 C8.35965885,271.392372 7.99637171,271.029085 7.54875005,271.029085 L3.34743154,271.029085 C2.89899897,271.029085 2.53652274,271.392372 2.53652274,271.839994 C2.53652274,272.288426 2.89899897,272.650902 3.34743154,272.650902 L3.34743154,272.650902 Z M34.161966,272.650902 L38.3632846,272.650902 C38.8109062,272.650902 39.1741934,272.288426 39.1741934,271.839994 C39.1741934,271.392372 38.8109062,271.029085 38.3632846,271.029085 L34.161966,271.029085 C33.7135335,271.029085 33.3510572,271.392372 33.3510572,271.839994 C33.3510572,272.288426 33.7135335,272.650902 34.161966,272.650902 L34.161966,272.650902 Z M21.3341997,259.676362 C21.7818214,259.676362 22.1451085,259.313885 22.1451085,258.865453 L22.1451085,254.810909 C22.1451085,254.363287 21.7818214,254 21.3341997,254 C20.8857671,254 20.5232909,254.363287 20.5232909,254.810909 L20.5232909,258.865453 C20.5232909,259.313885 20.8857671,259.676362 21.3341997,259.676362 L21.3341997,259.676362 Z M36.705787,285.182687 L34.7158168,297.553101 C34.5406605,298.910562 33.9714025,299.924198 33.033181,300.559951 C32.2538976,301.082176 31.2021489,301.357885 29.992273,301.357885 L14.6393366,301.357885 C13.658137,301.357885 12.7207264,300.970271 12.0022612,300.266402 C11.8814358,300.14882 11.7452031,300.061242 11.6032941,299.98826 L11.6032941,283.170011 L11.7249304,283.139197 C11.905763,283.084866 13.5381225,282.582913 15.1656164,281.412772 C17.3891284,279.820958 18.5641352,277.697999 18.5641352,275.273382 L18.5641352,269.271845 C19.2339459,269.117773 21.1330943,268.806384 22.4735266,269.785151 C23.4993262,270.54335 24.0207406,271.912975 24.0207406,273.859157 L24.0207406,279.05546 C24.0207406,279.950704 24.7473148,280.677278 25.6425582,280.677278 L33.0031774,280.677278 C33.8732825,280.677278 34.7271695,280.998398 35.4083329,281.582252 C35.4091438,281.583874 35.4107656,281.584685 35.4123874,281.586307 C36.430078,282.453168 36.9255432,283.830091 36.705787,285.182687 L36.705787,285.182687 Z M9.98147645,300.075027 C9.92390193,300.112329 9.8655165,300.148009 9.81280742,300.194231 C9.64170567,300.341816 9.40897484,300.42534 9.1754331,300.42534 L4.26862394,300.42534 C3.70260959,300.42534 3.24363521,299.966365 3.24363521,299.401162 L3.24363521,283.372739 C3.24363521,282.807535 3.70260959,282.34775 4.26862394,282.34775 L9.15353857,282.34775 C9.45357482,282.34775 9.72604018,282.468575 9.91822557,282.687521 C9.93687647,282.709415 9.96120373,282.721579 9.98147645,282.741852 L9.98147645,300.075027 Z M37.5175067,279.118711 C36.2492453,278.032093 34.6468895,277.433643 33.0031774,277.433643 L27.2643758,277.433643 L27.2643758,273.859157 C27.2643758,270.825547 26.3002052,268.577708 24.3929477,267.170781 C21.4980033,265.053498 17.7824191,266.106058 17.3493938,266.239047 C16.1362743,266.626661 15.3205,267.738417 15.3205,269.005056 L15.3205,275.273382 C15.3205,276.645439 14.6523112,277.791253 13.275388,278.777318 C12.6136864,279.253322 11.9333339,279.583362 11.4662505,279.782034 C10.7850871,279.344144 9.98309827,279.104115 9.15353857,279.104115 L4.26862394,279.104115 C1.91455568,279.104115 0,281.019481 0,283.372739 L0,299.401162 C0,301.754419 1.91455568,303.668975 4.26862394,303.668975 L9.1754331,303.668975 C9.70414564,303.668975 10.2223164,303.570855 10.7064289,303.384346 C11.8644067,304.174982 13.2251117,304.60152 14.6393366,304.60152 L29.992273,304.60152 C31.8468214,304.60152 33.5229699,304.135248 34.8455622,303.250546 C36.5695543,302.081216 37.6367103,300.25586 37.9253938,298.019373 L39.9072549,285.700858 C40.3078439,283.238939 39.3923278,280.717012 37.5175067,279.118711 L37.5175067,279.118711 Z" id="Fill-1"></path>
                </g>
            </g>
        </g>
    </g>
</svg>