<?xml version="1.0" encoding="UTF-8"?>
<svg width="31px" height="25px" viewBox="0 0 31 25" version="1.1" xmlns="http://www.w3.org/2000/svg" xmlns:xlink="http://www.w3.org/1999/xlink">
    <!-- Generator: Sketch 42 (36781) - http://www.bohemiancoding.com/sketch -->
    <title>twitter</title>
    <desc>Created with Sketch.</desc>
    <defs></defs>
    <g id="website" stroke="none" stroke-width="1" fill="none" fill-rule="evenodd">
        <g id="face-to-fesse-website" transform="translate(-698.000000, -8032.000000)" fill="#FFFFFF">
            <g id="RS" transform="translate(560.000000, 7970.000000)">
                <g id="picto" transform="translate(92.000000, 60.000000)">
                    <path d="M56.4042031,25.4617236 L56.4052784,26.1760084 L56.4052784,25.4663664 C66.434727,25.4663664 72.42838,17.3492336 72.42838,9.50174332 C72.42838,9.25388648 72.42838,9.01960106 72.4129666,8.79245848 C72.3961194,8.5467445 72.5075976,8.30960194 72.7079715,8.1653164 C73.139546,7.85424536 73.5463875,7.51496006 73.9270621,7.14960337 C73.5445953,7.23138899 73.1581855,7.29531748 72.7685496,7.34138885 C72.4298138,7.38103166 72.1147357,7.18138905 72.0057667,6.86246087 C71.8967977,6.54388984 72.0258399,6.19210456 72.3161849,6.01924763 C72.7836046,5.73996226 73.2004827,5.3917484 73.5542734,4.98960604 C72.9441905,5.21210577 72.3161849,5.38746269 71.673483,5.51353397 C71.4315288,5.56174819 71.1820472,5.48103401 71.0125,5.30210566 C70.0658319,4.29924975 68.7843709,3.72389332 67.4036191,3.68175052 C66.0296778,3.637822 64.7080703,4.13532138 63.701541,5.0785345 C62.3645201,6.3313901 61.791716,8.21603063 62.2068018,9.99745699 C62.2577018,10.215671 62.2028589,10.4449564 62.0584033,10.6170991 C61.9146646,10.7892417 61.7074801,10.882813 61.472695,10.8720988 C56.9264656,10.6453133 52.6501496,8.64495867 49.5724925,5.3403199 C48.8444793,7.50103151 49.6327122,9.95495705 51.6023984,11.2653126 C51.8687272,11.4424552 51.9848652,11.7731691 51.8873667,12.0767401 C51.7902265,12.3806683 51.5052583,12.5824538 51.1833696,12.5735252 C50.5654007,12.5549538 49.9506579,12.4481682 49.3624404,12.2592399 C49.7825446,14.2335232 51.3507661,15.8342355 53.3960854,16.2460207 C53.7222754,16.3117349 53.9599282,16.5917346 53.9710402,16.9224484 C53.9821521,17.2531623 53.7638557,17.5481619 53.4430424,17.6353047 C52.8917453,17.7853045 52.3196581,17.8624473 51.7472125,17.8656616 C52.6454898,19.3860168 54.2846845,20.369587 56.1077644,20.4035156 C56.4110136,20.4092298 56.6777009,20.6042296 56.7741241,20.8906578 C56.8705473,21.1767289 56.7755579,21.4927999 56.5375467,21.6792283 C54.7334647,23.0920837 52.5576693,23.983154 50.2897522,24.2567251 C52.2185751,25.0524384 54.2775155,25.4649379 56.4042031,25.4617236 M56.4052784,26.8949361 L56.4052784,26.8902933 L56.3830545,26.8902933 C53.0498221,26.8902933 49.8058439,25.9424373 47.0002508,24.1485109 C46.718867,23.9688683 46.599503,23.6192259 46.7127734,23.306012 C46.8249684,22.9924409 47.1389712,22.7960126 47.4723303,22.8381554 C47.9078478,22.8902982 48.3508928,22.9170839 48.7892779,22.9177982 L48.8000314,22.9177982 C50.6879909,22.9177982 52.5519341,22.4295845 54.193638,21.5210142 C52.1985018,20.8853007 50.5800972,19.3245883 49.9151713,17.2656623 C49.8381044,17.0253054 49.8933058,16.7620915 50.0614192,16.5731631 C50.1417121,16.482449 50.2427952,16.4153062 50.353198,16.3756634 C48.7982391,15.1578078 47.8178767,13.2685244 47.8175182,11.2003126 L47.8175182,11.1256699 C47.8175182,10.8724559 47.9522957,10.6381705 48.171309,10.5099564 C48.3906808,10.3813851 48.661311,10.3781708 48.8835504,10.5017421 L48.9032652,10.5128135 C47.6210873,8.49674456 47.4906112,5.85853354 48.7634694,3.6756791 C48.8817581,3.4728222 49.0925271,3.34067951 49.3273123,3.3221081 C49.5628143,3.30460813 49.7915058,3.40175086 49.9395459,3.5838935 C52.607494,6.85424659 56.477327,8.93460117 60.6625965,9.37674348 C60.4998599,7.39853164 61.2465126,5.4178198 62.7193862,4.03782151 C64.0047902,2.83318014 65.6902251,2.19639521 67.4477085,2.253538 C69.0732821,2.30353794 70.5913205,2.93175144 71.7652463,4.03282151 C72.8717834,3.77639326 73.9263452,3.35425092 74.9049154,2.77568021 C75.1604907,2.62353754 75.4848885,2.64639465 75.7178814,2.83139443 C75.9508743,3.01675134 76.0447884,3.32639381 75.953025,3.60889346 C75.7537265,4.22424985 75.466966,4.80210627 75.1049308,5.3260342 C75.3300378,5.2435343 75.5529941,5.15389155 75.7727244,5.05674882 C76.0655785,4.92817755 76.407182,5.00674888 76.6118573,5.24996286 C76.8172495,5.49317685 76.8366058,5.84246213 76.6595312,6.10674752 C75.8920884,7.25031753 74.9511555,8.25281629 73.8596734,9.09138669 C73.8621825,9.22995794 73.8621825,9.36710063 73.8621825,9.50174332 C73.8621825,18.0513756 67.3322874,26.8949361 56.4052784,26.8949361" id="twitter"></path>
                </g>
            </g>
        </g>
    </g>
</svg>