<?xml version="1.0" encoding="UTF-8"?>
<svg width="62px" height="44px" viewBox="0 0 62 44" version="1.1" xmlns="http://www.w3.org/2000/svg" xmlns:xlink="http://www.w3.org/1999/xlink">
    <!-- Generator: Sketch 42 (36781) - http://www.bohemiancoding.com/sketch -->
    <title>Group</title>
    <desc>Created with Sketch.</desc>
    <defs></defs>
    <g id="Page-1" stroke="none" stroke-width="1" fill="none" fill-rule="evenodd">
        <g id="noun_49615_cc" fill-rule="nonzero" fill="#000000">
            <g id="Group">
                <path d="M61.174,13.441 C61.183,13.086 61.188,12.736 61.188,12.391 C61.188,11.104 61.115,9.867 60.825,8.635 C60.537,7.404 60.02,6.189 59.196,5.014 C58.45,3.948 57.529,3.097 56.513,2.441 C54.988,1.454 53.266,0.894 51.512,0.563 C49.757,0.233 47.958,0.131 46.241,0.104 C44.107,0.07 40.729,0.059 37.055,0.059 C29.706,0.059 21.172,0.104 19.195,0.104 L19.078,0.104 L19.081,0.104 L18.585,0.104 C17.205,0.104 14.686,0.122 12.132,0.365 C10.853,0.487 9.564,0.664 8.381,0.936 C7.196,1.212 6.119,1.561 5.209,2.143 C4.132,2.837 3.279,3.688 2.648,4.648 C1.696,6.093 1.25,7.735 1.018,9.474 C0.788,11.218 0.764,13.087 0.727,15.107 C0.7,16.629 0.571,19.999 0.571,23.746 C0.571,26.615 0.646,29.711 0.905,32.435 C1.035,33.798 1.211,35.07 1.457,36.193 C1.707,37.318 2.008,38.289 2.491,39.112 C3.203,40.313 3.996,41.24 4.914,41.915 C5.6,42.421 6.346,42.773 7.113,43.004 C8.267,43.351 9.455,43.446 10.737,43.492 C12.021,43.536 13.412,43.525 15,43.596 C23.726,43.988 29.762,43.929 37.188,43.942 C37.358,43.943 37.525,43.943 37.691,43.943 C43.105,43.941 46.98,43.795 50.038,43.323 C53.088,42.856 55.364,42.026 57.331,40.689 C58.136,40.145 58.841,39.535 59.414,38.792 C60.281,37.674 60.792,36.311 61.07,34.654 C61.351,32.99 61.432,30.988 61.433,28.367 C61.433,24.762 61.271,19.98 61.176,13.389 C61.165,12.606 60.522,11.981 59.738,11.993 C58.956,12.004 58.33,12.648 58.342,13.431 C58.437,20.045 58.599,24.847 58.598,28.368 C58.604,31.78 58.432,33.985 57.997,35.391 C57.78,36.098 57.517,36.608 57.17,37.059 C56.822,37.509 56.373,37.914 55.742,38.342 C54.154,39.41 52.394,40.085 49.603,40.523 C46.821,40.955 43.05,41.11 37.69,41.109 L37.192,41.109 C29.743,41.096 23.779,41.153 15.127,40.765 C12.153,40.64 9.96,40.75 8.467,40.426 C7.715,40.267 7.142,40.032 6.594,39.632 C6.048,39.23 5.503,38.632 4.929,37.665 C4.701,37.291 4.432,36.544 4.226,35.586 C3.909,34.147 3.697,32.229 3.573,30.16 C3.448,28.09 3.406,25.859 3.406,23.746 C3.406,20.056 3.533,16.741 3.562,15.157 C3.605,12.459 3.655,10.183 4.086,8.446 C4.3,7.575 4.598,6.842 5.016,6.209 C5.435,5.575 5.975,5.026 6.749,4.523 C7.182,4.236 8.012,3.925 9.016,3.699 C10.527,3.351 12.43,3.153 14.189,3.052 C15.951,2.95 17.574,2.939 18.586,2.939 C18.771,2.939 18.935,2.939 19.078,2.94 L19.081,2.94 L19.196,2.94 C21.195,2.94 29.715,2.895 37.056,2.895 C40.723,2.895 44.097,2.906 46.197,2.939 C48.376,2.972 50.578,3.143 52.448,3.698 C53.384,3.974 54.233,4.342 54.973,4.822 C55.714,5.303 56.347,5.891 56.874,6.642 C57.496,7.534 57.848,8.369 58.066,9.287 C58.282,10.204 58.354,11.215 58.353,12.393 C58.353,12.709 58.348,13.036 58.34,13.375 C58.321,14.157 58.941,14.807 59.723,14.826 C60.506,14.843 61.155,14.224 61.174,13.441 Z" id="Shape"></path>
                <path d="M23.943,13.5 L23.946,13.513 C23.974,13.616 24.028,14.035 24.059,14.567 C24.181,16.469 24.169,20.022 24.181,23.067 C24.187,24.594 24.2,25.999 24.241,27.053 C24.262,27.582 24.289,28.018 24.335,28.383 C24.36,28.571 24.383,28.731 24.448,28.949 C24.486,29.064 24.523,29.193 24.662,29.408 C24.735,29.515 24.839,29.652 25.035,29.795 C25.224,29.936 25.543,30.07 25.881,30.066 C26.121,30.066 26.344,30.004 26.508,29.923 C26.758,29.8 26.894,29.661 26.988,29.556 C27.082,29.449 27.135,29.363 27.178,29.286 L25.947,28.585 L26.642,29.821 C27.067,29.581 27.958,29.124 29.078,28.559 C30.763,27.707 32.992,26.596 35.175,25.471 C37.36,24.342 39.49,23.205 41.027,22.274 C41.44,22.023 41.7,21.573 41.709,21.09 C41.719,20.607 41.477,20.147 41.073,19.881 C40.281,19.358 39.142,18.726 37.796,18.012 C35.781,16.945 33.325,15.717 31.124,14.599 C30.023,14.04 28.987,13.509 28.108,13.044 C27.23,12.58 26.503,12.175 26.056,11.895 C25.392,11.48 24.518,11.682 24.103,12.345 C23.688,13.008 23.89,13.883 24.553,14.298 C25.301,14.765 26.407,15.359 27.731,16.047 C29.712,17.074 32.158,18.291 34.368,19.424 C35.472,19.99 36.517,20.535 37.41,21.021 C38.301,21.505 39.044,21.936 39.512,22.246 L40.293,21.064 L39.558,19.853 C37.663,21.004 34.562,22.616 31.719,24.057 C30.295,24.778 28.933,25.459 27.803,26.03 C26.67,26.602 25.783,27.055 25.255,27.352 C25.033,27.477 24.845,27.664 24.718,27.885 L25.783,28.492 L24.95,27.596 C24.802,27.737 24.753,27.828 24.718,27.885 L25.783,28.492 L24.95,27.596 L25.87,28.584 L25.287,27.367 C25.131,27.441 25.026,27.525 24.95,27.596 L25.87,28.584 L25.287,27.367 L25.883,28.611 L25.883,27.232 C25.654,27.23 25.441,27.291 25.287,27.367 L25.883,28.611 L25.883,27.232 L25.883,28.609 L26.768,27.55 C26.6,27.402 26.263,27.226 25.883,27.232 L25.883,28.609 L26.768,27.55 L25.926,28.558 L27.065,27.904 C27.016,27.82 26.943,27.701 26.768,27.55 L25.926,28.558 L27.065,27.904 L26.224,28.386 L27.167,28.138 C27.158,28.117 27.155,28.066 27.065,27.904 L26.224,28.386 L27.167,28.138 L26.941,28.199 L27.169,28.146 L27.168,28.138 L26.942,28.199 L27.17,28.146 C27.169,28.146 27.151,28.042 27.137,27.898 C27.079,27.336 27.046,26.168 27.032,24.785 C27.01,22.699 27.022,20.072 26.995,17.805 C26.982,16.671 26.958,15.627 26.915,14.769 C26.893,14.339 26.866,13.957 26.831,13.622 C26.792,13.282 26.757,13.008 26.667,12.695 C26.444,11.945 25.656,11.516 24.905,11.739 C24.154,11.962 23.72,12.75 23.943,13.5 Z" id="Shape"></path>
            </g>
        </g>
    </g>
</svg>