<?xml version="1.0" encoding="UTF-8"?>
<svg width="214px" height="169px" viewBox="0 0 214 169" version="1.1" xmlns="http://www.w3.org/2000/svg" xmlns:xlink="http://www.w3.org/1999/xlink">
    <!-- Generator: Sketch 43.2 (39069) - http://www.bohemiancoding.com/sketch -->
    <title>Group</title>
    <desc>Created with Sketch.</desc>
    <defs>
        <path d="M56.0220743,77.0971655 C56.1836681,74.4302287 57.5282036,62.8626656 68.7153605,55 C69.3019214,63.6909831 71.484367,67.4172678 72.6355581,68.8062868 C80.4765754,66.4012922 91.0108179,64.4515324 104.691049,63.2546672 C127.163152,61.288613 170.521609,63.872149 172.707062,88.8681608 C174.477367,109.119007 144.661478,124.002177 108.865243,127.133942 C90.6161824,128.730528 47.7074688,124.502657 45.2438258,100.546774 C43.9969129,88.420548 49.8123027,81.7073875 56.0220743,77.0971655 Z" id="path-1"></path>
        <filter x="-47.0%" y="-82.8%" width="194.0%" height="265.7%" filterUnits="objectBoundingBox" id="filter-2">
            <feOffset dx="0" dy="0" in="SourceAlpha" result="shadowOffsetOuter1"></feOffset>
            <feGaussianBlur stdDeviation="20" in="shadowOffsetOuter1" result="shadowBlurOuter1"></feGaussianBlur>
            <feColorMatrix values="0 0 0 0 0.141176471   0 0 0 0 0.164705882   0 0 0 0 0.180392157  0 0 0 0.2 0" type="matrix" in="shadowBlurOuter1"></feColorMatrix>
        </filter>
    </defs>
    <g id="01_website" stroke="none" stroke-width="1" fill="none" fill-rule="evenodd">
        <g id="ftf-website" transform="translate(-393.000000, -4007.000000)">
            <g id="Parcours-narratif" transform="translate(270.000000, 3690.000000)">
                <g id="info">
                    <g id="Group" transform="translate(126.000000, 320.000000)">
                        <g id="bubble">
                            <use fill="black" fill-opacity="1" filter="url(#filter-2)" xlink:href="#path-1"></use>
                            <use fill="#FFFFFF" fill-rule="evenodd" xlink:href="#path-1"></use>
                        </g>
                        <path d="M59.5975954,99.5702859 C59.5975954,98.6718439 59.6708369,97.7172636 59.817322,96.7065164 C59.9638071,95.6957691 60.1688831,94.7021267 60.4325563,93.7255593 C60.6962295,92.748992 61.0258161,91.8139427 61.4213259,90.9203836 C61.8168357,90.0268244 62.2440775,89.2431408 62.7030641,88.5693093 C63.1620508,87.8954778 63.6796238,87.3583738 64.2557985,86.9579812 C64.8319733,86.5575886 65.4227877,86.3573953 66.0282595,86.3573953 C66.282167,86.3573953 66.5482776,86.3915746 66.8265993,86.4599343 C67.104921,86.5282941 67.3905627,86.6308321 67.6835329,86.7675515 C67.9765031,86.904271 68.2548206,87.089816 68.5184938,87.3241921 C68.782167,87.5585683 69.0165397,87.8295617 69.2216188,88.1371804 C69.426698,88.4447992 69.5902706,88.8158892 69.7123415,89.2504617 C69.8344124,89.6850342 69.895447,90.1562209 69.895447,90.6640359 C69.895447,91.9628705 69.7172261,93.1786787 69.360779,94.3114968 C69.0043319,95.444315 68.5184969,96.3451849 67.9032595,97.0141336 C67.288022,97.6830822 66.6190834,98.0175515 65.8964235,98.0175515 C65.5936876,98.0175515 65.308046,97.9711653 65.0394899,97.8783914 C64.7709339,97.7856175 64.5536509,97.6684311 64.3876345,97.5268289 C64.221618,97.3852266 64.0800179,97.2460678 63.9628298,97.1093484 C63.8456417,96.972629 63.7626347,96.8554426 63.7138063,96.7577859 L63.6405641,96.62595 L63.4721071,97.1313211 C63.3988646,97.3510487 63.3060921,97.8075871 63.1937868,98.50095 C63.0814816,99.1943128 63.0253298,99.8876652 63.0253298,100.581028 C63.0253298,101.088843 63.0936885,101.518526 63.2304079,101.870091 C63.3671273,102.221655 63.5844103,102.49509 63.8822634,102.690403 C64.1801164,102.885717 64.5487651,102.983372 64.9882204,102.983372 C65.41791,102.983372 65.8402691,102.890599 66.2553102,102.705052 C66.6703514,102.519504 67.0414414,102.272924 67.3685915,101.965305 C67.6957416,101.657687 68.0009143,101.308569 68.2841188,100.917942 C68.5673234,100.527315 68.8065788,100.124487 69.0018923,99.7094461 C69.1972058,99.2944049 69.3558956,98.8915769 69.4779665,98.50095 C69.6000374,98.110323 69.6708375,97.7538813 69.6903688,97.431614 C69.7001345,97.402317 69.7196656,97.3730204 69.7489626,97.3437234 C69.7782596,97.3144264 69.8466183,97.2704815 69.9540407,97.2118875 C70.0614631,97.1532934 70.1835322,97.1239968 70.3202516,97.1239968 C70.6425189,97.1239968 70.9354847,97.1850314 71.1991579,97.3071023 C71.4628311,97.4291732 71.6752313,97.619601 71.8363649,97.8783914 C71.9974985,98.1371817 72.0780641,98.4423545 72.0780641,98.7939187 C72.0780641,99.3407964 71.9974985,99.9169626 71.8363649,100.522434 C71.6752313,101.127906 71.4213276,101.740693 71.0746462,102.360813 C70.7279648,102.980934 70.3104885,103.537569 69.8222048,104.030735 C69.3339211,104.523902 68.7284584,104.924288 68.0057985,105.231907 C67.2831387,105.539526 66.5067792,105.693333 65.676697,105.693333 C64.9052087,105.693333 64.1581459,105.556615 63.435486,105.283177 C62.7128262,105.009738 62.0634186,104.619117 61.4872438,104.111302 C60.9110691,103.603486 60.4520893,102.95652 60.1102907,102.170384 C59.7684921,101.384247 59.5975954,100.517556 59.5975954,99.5702859 Z M64.0214235,94.8974343 C64.0311892,94.9169657 64.0385133,94.9438209 64.0433962,94.9780007 C64.048279,95.0121806 64.0702515,95.0732151 64.1093141,95.1611062 C64.1483768,95.2489973 64.1923217,95.3246801 64.2411501,95.388157 C64.2899785,95.4516339 64.3607785,95.510227 64.4535524,95.5639382 C64.5463263,95.6176494 64.6513058,95.6445046 64.7684938,95.6445046 C64.973573,95.6445046 65.1737663,95.5273183 65.3690798,95.2929421 C65.5643933,95.058566 65.7401727,94.7460691 65.8964235,94.3554421 C66.0526743,93.9648152 66.1918331,93.5253665 66.313904,93.0370828 C66.4359749,92.5487991 66.5311888,92.0361089 66.5995485,91.4989968 C66.6679082,90.9618848 66.7020876,90.4443118 66.7020876,89.9462625 C66.7020876,89.0185234 66.589784,88.5546609 66.3651735,88.5546609 C66.2382198,88.5546609 66.0819713,88.7353232 65.8964235,89.0966531 C65.5155622,89.9267354 65.149355,90.8715501 64.7977907,91.9311257 C64.4462265,92.9907014 64.18744,93.979461 64.0214235,94.8974343 Z M71.7304079,101.650364 C71.7304079,100.859344 71.8305046,99.3627774 72.0307009,97.1606179 C72.2308972,94.9584585 72.4799181,92.6244974 72.7777712,90.1586648 C73.0756242,87.6928322 73.4296246,85.4394367 73.8397829,83.3984109 C74.2499412,81.3573851 74.625914,80.180639 74.9677126,79.8681375 C75.1141977,79.731418 75.3803083,79.680149 75.7660524,79.7143289 C76.1517965,79.7485087 76.5473004,79.8217502 76.9525759,79.9340554 C77.3578513,80.0463607 77.7142931,80.2026091 78.0219118,80.4028054 C78.3295305,80.6030017 78.4833376,80.8007537 78.4833376,80.9960671 C78.4833376,81.4941165 78.4369513,81.9848343 78.3441774,82.4682351 C78.2514035,82.951636 78.1171275,83.4814158 77.9413454,84.0575906 C77.7655633,84.6337653 77.6483769,85.0439175 77.5897829,85.2880593 C77.3456411,86.1767357 76.9916407,88.0688066 76.5277712,90.9643289 C76.0639017,93.8598512 75.8319704,95.629853 75.8319704,96.2743875 L76.1249391,96.3329812 C76.2421272,95.9911826 76.3764032,95.6176512 76.5277712,95.2123757 C76.6791391,94.8071003 76.8793324,94.2846446 77.1283571,93.6449929 C77.3773818,93.0053413 77.6239614,92.3949958 77.8681032,91.8139382 C78.1122451,91.2328807 78.3807971,90.6347421 78.6737673,90.0195046 C78.9667375,89.4042672 79.2426136,88.872046 79.501404,88.422825 C79.7601943,87.973604 80.0189808,87.6049553 80.2777712,87.3168679 C80.5365615,87.0287806 80.76361,86.884739 80.9589235,86.884739 C81.5643953,86.884739 82.1674166,86.9823943 82.7680056,87.1777078 C83.3685945,87.3730213 83.8471053,87.6073939 84.2035524,87.8808328 C84.5599995,88.1542716 84.7382204,88.4081754 84.7382204,88.6425515 C84.7382204,88.9745844 84.6356824,89.6191092 84.4306032,90.5761453 C84.2255241,91.5331813 84.0009169,92.5194996 83.7567751,93.5351296 C83.5126332,94.5507597 83.2880261,95.6615885 83.082947,96.8676492 C82.8778678,98.0737099 82.7753298,99.0722351 82.7753298,99.8632546 C82.7753298,100.498023 82.8827506,101.005831 83.0975954,101.386692 C83.3124402,101.767553 83.6395854,101.957981 84.0790407,101.957981 C84.4208393,101.957981 84.7553086,101.774878 85.0824587,101.408665 C85.4096088,101.042452 85.6854849,100.593238 85.9100954,100.061009 C86.1347059,99.5287793 86.3056026,98.9648201 86.4227907,98.369114 L86.5253298,98.369114 C86.5643925,98.369114 86.6473995,98.3715554 86.7743532,98.3764382 C86.901307,98.3813211 87.0184933,98.3959694 87.1259157,98.4203836 C87.2333381,98.4447977 87.3554072,98.4863012 87.4921266,98.5448953 C87.6288461,98.6034893 87.7460324,98.6791722 87.8436891,98.7719461 C87.9413459,98.86472 88.0243529,98.9892304 88.0927126,99.1454812 C88.1610723,99.301732 88.1952516,99.4823942 88.1952516,99.6874734 C88.1952516,100.224585 88.0487687,100.761689 87.7557985,101.298802 C87.4628283,101.835914 87.07709,102.309542 86.598572,102.7197 C86.1200539,103.129858 85.5487706,103.461886 84.8847048,103.715794 C84.220639,103.969701 83.537052,104.096653 82.8339235,104.096653 C82.2772801,104.096653 81.7743555,104.003881 81.3251345,103.818333 C80.8759135,103.632785 80.502382,103.383764 80.204529,103.071262 C79.9066759,102.758761 79.657655,102.390112 79.4574587,101.965305 C79.2572624,101.540499 79.1132208,101.098609 79.0253298,100.639622 C78.9374387,100.180635 78.8934938,99.7021243 78.8934938,99.204075 C78.8934938,98.3739927 79.0082388,97.3168744 79.2377321,96.0326882 C79.4672255,94.7485021 79.6649774,93.8036874 79.8309938,93.1982156 L79.4940798,93.110325 C79.337829,93.3154041 79.0961322,93.8036805 78.7689821,94.5751687 C78.441832,95.3466569 78.0927144,96.2426441 77.7216188,97.263157 C77.3505232,98.2836699 77.0136125,99.4067056 76.7108766,100.632298 C76.4081408,101.85789 76.2225957,102.934539 76.154236,103.862278 C75.8807972,104.086889 75.4755278,104.199192 74.9384157,104.199192 C74.0985678,104.199192 73.3539463,103.942847 72.704529,103.430149 C72.0551117,102.917451 71.7304079,102.324196 71.7304079,101.650364 Z M95.1024782,96.62595 C95.1610723,95.278287 95.4491553,93.8744924 95.966736,92.4145242 C96.4843167,90.9545559 97.1434898,89.6899202 97.9442751,88.6205789 C98.7450603,87.5512376 99.5555991,86.9238025 100.375916,86.7382546 C100.961856,86.9726308 101.298767,87.2314173 101.386658,87.5146218 C101.787051,87.2607143 102.265561,87.1337625 102.822205,87.1337625 C103.408145,87.1337625 103.940366,87.194797 104.418884,87.3168679 C104.897402,87.4389389 105.302672,87.6049528 105.634705,87.8149148 C105.966738,88.0248768 106.257262,88.2861046 106.506287,88.5986062 C106.755311,88.9111078 106.955505,89.2431357 107.106873,89.5947 C107.258241,89.9462642 107.377868,90.3417681 107.465759,90.7812234 C107.543885,91.210913 107.592712,91.6405963 107.612244,92.0702859 C107.631775,92.3730218 107.641541,92.6952842 107.641541,93.0370828 L107.641541,93.4618875 C107.612244,93.9989995 107.556092,94.5654001 107.473084,95.1611062 C107.390075,95.7568123 107.263124,96.4184268 107.092224,97.1459695 C106.921325,97.8735122 106.716249,98.569306 106.47699,99.2333718 C106.237731,99.8974377 105.935,100.549287 105.568787,101.188938 C105.202574,101.82859 104.794863,102.385225 104.345642,102.85886 C103.896421,103.332495 103.361759,103.710909 102.741638,103.994114 C102.121518,104.277319 101.455021,104.418919 100.742127,104.418919 C99.92181,104.418919 99.17963,104.257788 98.5155641,103.93552 C97.8514983,103.613253 97.3070702,103.190894 96.8822634,102.66843 C96.4574566,102.145967 96.1034562,101.542946 95.8202516,100.859348 C95.5370471,100.15622 95.3368538,99.4531019 95.2196657,98.7499734 C95.1317746,98.1835643 95.0878298,97.6220465 95.0878298,97.0654031 C95.0878298,96.918918 95.0927125,96.7724351 95.1024782,96.62595 Z M98.6181032,97.7245828 C98.6083375,97.9394276 98.598572,98.1445037 98.5888063,98.3398171 C98.5888063,98.8476322 98.6278684,99.3163775 98.7059938,99.7460671 C98.8036506,100.351539 98.9818714,100.834933 99.2406618,101.196262 C99.4994522,101.557592 99.8192732,101.738255 100.200134,101.738255 C100.63959,101.738255 101.052183,101.545385 101.437927,101.159641 C101.823672,100.773897 102.153258,100.268531 102.426697,99.6435281 C102.700136,99.018525 102.949157,98.3447036 103.173767,97.6220437 C103.398378,96.8993838 103.57904,96.1694107 103.715759,95.4321023 C103.852479,94.6947939 103.957458,94.0551519 104.030701,93.513157 C104.103943,92.9711621 104.15033,92.529272 104.169861,92.1874734 C104.169861,92.1484107 104.174744,92.0849348 104.184509,91.9970437 C104.204041,91.7724332 104.216248,91.591771 104.221131,91.4550515 C104.226013,91.3183321 104.228455,91.1254629 104.228455,90.8764382 C104.228455,90.6274136 104.211365,90.4223375 104.177185,90.2612039 C104.143005,90.1000703 104.094178,89.9340563 104.030701,89.763157 C103.967224,89.5922577 103.874451,89.4628645 103.752381,89.3749734 C103.63031,89.2870823 103.476503,89.2431375 103.290955,89.2431375 C102.968688,89.2431375 102.639101,89.4286825 102.302185,89.7997781 C101.965269,90.1708737 101.66498,90.6249707 101.401306,91.1620828 C101.137633,91.6991948 100.888612,92.294892 100.654236,92.9491921 C100.41986,93.6034923 100.231873,94.1869826 100.090271,94.6996804 C99.9486689,95.2123783 99.833924,95.6640339 99.7460329,96.0546609 C99.7362672,96.1132549 99.6141981,96.1059308 99.379822,96.0326882 C99.1454458,95.9594457 98.9843146,95.8886456 98.8964235,95.8202859 C98.7499384,96.357398 98.6571659,96.9921572 98.6181032,97.7245828 Z M108.612244,99.4238015 C108.612244,98.2030923 108.792906,96.6699045 109.154236,94.8241921 C109.515566,92.9784798 109.969663,91.3329884 110.516541,89.8876687 C111.063418,88.442349 111.566343,87.7197 112.02533,87.7197 C112.425722,87.7197 112.823668,87.7782931 113.219177,87.8954812 C113.614687,88.0126693 113.93695,88.1493867 114.185974,88.3056375 C114.434999,88.4618882 114.598572,88.6132539 114.676697,88.759739 C114.002865,90.8691246 113.451113,92.9735957 113.021424,95.0732156 C112.669859,96.7822085 112.49408,98.2714514 112.49408,99.540989 C112.49408,99.8241936 112.503845,100.097628 112.523377,100.361302 L112.933533,100.493137 C113.568302,99.6337582 114.227475,98.3691224 114.911072,96.6991921 C115.594669,95.0292619 116.16107,93.405743 116.610291,91.8285867 C117.059512,90.2514304 117.381774,88.9013462 117.577088,87.7782937 C117.606385,87.5146205 117.904233,87.3827859 118.470642,87.3827859 C118.841738,87.3827859 119.25189,87.4706756 119.701111,87.6464578 C120.150332,87.8222399 120.526305,88.0297574 120.829041,88.2690164 C121.131777,88.5082754 121.27826,88.7109101 121.268494,88.8769265 C121.248962,89.0917713 121.002383,90.566366 120.528748,93.3007546 C120.055113,96.0351433 119.808533,97.8271176 119.789002,98.6767312 L119.789002,98.9257546 C119.789002,99.1796622 119.808533,99.4335659 119.847595,99.6874734 C119.906189,100.019506 120.033141,100.319796 120.228455,100.588352 C120.423768,100.856908 120.672789,100.991184 120.975525,100.991184 C121.219667,100.991184 121.45404,100.886205 121.67865,100.676243 C121.903261,100.466281 122.091247,100.212377 122.242615,99.9145242 C122.393983,99.6166711 122.525817,99.3163812 122.638123,99.0136453 C122.750428,98.7109094 122.835876,98.4570057 122.89447,98.2519265 L122.967713,97.9296609 C124.051702,97.9296609 124.593689,98.3349303 124.593689,99.1454812 C124.593689,99.5165768 124.476503,99.94626 124.242127,100.434544 C124.00775,100.922827 123.697695,101.389131 123.311951,101.833469 C122.926207,102.277808 122.445255,102.651339 121.86908,102.954075 C121.292905,103.256811 120.706973,103.408177 120.111267,103.408177 C119.535093,103.408177 119.037051,103.317845 118.617127,103.13718 C118.197203,102.956515 117.870058,102.727026 117.635681,102.448704 C117.401305,102.170382 117.21576,101.835913 117.079041,101.445286 C116.942321,101.054659 116.859314,100.683569 116.830017,100.332005 C116.810486,100.156223 116.803162,99.9755603 116.808045,99.7900125 C116.812927,99.6044647 116.820252,99.4091541 116.830017,99.204075 L116.580994,99.1747781 C116.463806,99.5165767 116.331971,99.8632529 116.185486,100.214817 C116.039001,100.566381 115.84369,100.964327 115.599549,101.408665 C115.355407,101.853003 115.101503,102.241183 114.83783,102.573216 C114.574157,102.905248 114.271425,103.186007 113.929627,103.415501 C113.587828,103.644994 113.246035,103.759739 112.904236,103.759739 C112.474546,103.759739 112.005801,103.632787 111.497986,103.37888 C110.990171,103.124972 110.523867,102.797827 110.09906,102.397434 C109.674253,101.997042 109.320253,101.528296 109.037049,100.991184 C108.753844,100.454072 108.612244,99.9316166 108.612244,99.4238015 Z M123.469666,97.8124734 C123.469666,96.6991866 123.572204,95.6005648 123.777283,94.516575 C123.982362,93.4325852 124.289976,92.4169703 124.700134,91.4697 C125.110293,90.5224296 125.596128,89.687477 126.157654,88.9648171 C126.71918,88.2421573 127.380795,87.6708739 128.142517,87.25095 C128.90424,86.831026 129.719661,86.6210671 130.588806,86.6210671 C131.936469,86.6210671 133.025326,86.8896192 133.855408,87.4267312 C134.68549,87.9638433 135.100525,88.569306 135.100525,89.2431375 L135.027283,89.6532937 C135.085877,89.6728251 135.198181,89.6947975 135.364197,89.7192117 C135.530213,89.7436259 135.691345,89.7729224 135.847595,89.8071023 C136.003846,89.8412822 136.160095,89.885227 136.316345,89.9389382 C136.472596,89.9926494 136.589783,90.0658909 136.667908,90.1586648 C136.746033,90.2514387 136.765564,90.3661837 136.726502,90.5029031 C135.642512,94.1650308 135.085877,97.0653924 135.05658,99.204075 C135.046814,99.3310287 135.041931,99.4530978 135.041931,99.5702859 C135.041931,100.888652 135.403256,101.547825 136.125916,101.547825 C136.40912,101.547825 136.658141,101.472142 136.872986,101.320774 C137.087831,101.169406 137.266052,100.978978 137.407654,100.749485 C137.549256,100.519992 137.673767,100.227026 137.781189,99.8705789 C137.888612,99.5141318 137.971619,99.1674556 138.030213,98.8305398 C138.088807,98.4936241 138.142517,98.1054443 138.191345,97.665989 C138.210877,97.665989 138.245056,97.6635476 138.293884,97.6586648 C138.342713,97.653782 138.433044,97.653782 138.564881,97.6586648 C138.696717,97.6635476 138.821228,97.6781959 138.938416,97.7026101 C139.055604,97.7270243 139.187438,97.7734106 139.333924,97.8417703 C139.480409,97.91013 139.60736,97.993137 139.714783,98.0907937 C139.822205,98.1884505 139.912536,98.3276092 139.985779,98.5082742 C140.059022,98.6889391 140.095642,98.8915738 140.095642,99.1161843 C140.095642,99.4970456 140.037049,99.902315 139.919861,100.332005 C139.802673,100.761694 139.619569,101.198702 139.370545,101.64304 C139.12152,102.087378 138.826113,102.490206 138.484314,102.851536 C138.142516,103.212866 137.720157,103.505832 137.217224,103.730442 C136.714292,103.955053 136.174747,104.067356 135.598572,104.067356 C135.100523,104.067356 134.658632,103.986791 134.272888,103.825657 C133.887144,103.664523 133.589296,103.457006 133.379334,103.203098 C133.169372,102.949191 133.010682,102.705053 132.903259,102.470677 C132.795837,102.2363 132.727478,102.011693 132.698181,101.796848 L132.507752,101.796848 C132.156187,102.412086 131.643497,102.944307 130.969666,103.393528 C130.295834,103.842749 129.553654,104.067356 128.743103,104.067356 C127.17083,104.067356 125.89887,103.50828 124.927185,102.39011 C123.955501,101.27194 123.469666,99.7460768 123.469666,97.8124734 Z M127.527283,98.9843484 C127.517517,99.1503649 127.512634,99.3066133 127.512634,99.4530984 C127.512634,100.117164 127.571228,100.605441 127.688416,100.917942 C127.825135,101.308569 128.069273,101.50388 128.420838,101.50388 C128.791933,101.50388 129.184996,101.140114 129.600037,100.412571 C130.015078,99.6850284 130.37152,98.845193 130.669373,97.8930398 C130.967226,96.9408866 131.218688,96.0473409 131.423767,95.2123757 C131.628846,94.3774106 131.74115,93.8036859 131.760681,93.4911843 C131.692322,93.4814187 131.606873,93.4618876 131.504334,93.4325906 C131.401794,93.4032936 131.238222,93.3324935 131.013611,93.2201882 C130.789001,93.107883 130.618104,92.9833725 130.500916,92.8466531 C131.135685,91.9677424 131.482361,91.0009552 131.540955,89.9462625 L131.540955,89.8583718 C131.540955,89.2724314 131.374941,88.9794656 131.042908,88.9794656 C130.671812,88.9794656 130.303164,89.2260452 129.936951,89.7192117 C129.570738,90.2123782 129.253358,90.8446961 128.984802,91.6161843 C128.716246,92.3876726 128.472108,93.2275079 128.252381,94.1357156 C128.032653,95.0439233 127.861756,95.9203793 127.739685,96.7651101 C127.617614,97.6098409 127.546814,98.3495796 127.527283,98.9843484 Z M138.95697,100.405247 C138.95697,99.0575838 139.259702,97.0336783 139.865174,94.3334695 C140.470645,91.6332607 141.012632,89.6093551 141.49115,88.2616921 C141.588807,87.9882533 141.828062,87.8515359 142.208924,87.8515359 C142.355409,87.8515359 142.609312,87.8832739 142.970642,87.9467507 C143.331972,88.0102276 143.732359,88.1054415 144.171814,88.2323953 C144.611269,88.359349 144.970153,88.5448941 145.248474,88.7890359 C145.526796,89.0331777 145.62201,89.3017297 145.534119,89.5947 C144.957944,91.5868974 144.423281,93.6376582 143.930115,95.7470437 C143.436948,97.8564293 143.180603,99.4189136 143.161072,100.434544 C143.151306,100.786108 143.183044,101.083957 143.256287,101.328098 C143.329529,101.57224 143.427185,101.74802 143.549256,101.855442 C143.671326,101.962865 143.810485,102.016575 143.966736,102.016575 C144.298769,102.016575 144.608824,101.90183 144.896912,101.672337 C145.184999,101.442843 145.421813,101.162084 145.607361,100.830052 C145.792909,100.498019 145.95404,100.124487 146.090759,99.7094461 C146.227479,99.2944049 146.330017,98.9184321 146.398377,98.5815164 C146.466736,98.2446006 146.510681,97.9394279 146.530213,97.665989 L146.779236,97.665989 C146.867127,97.665989 146.955017,97.6708718 147.042908,97.6806375 C147.130799,97.6904031 147.233337,97.7099342 147.350525,97.7392312 C147.467713,97.7685282 147.577575,97.805149 147.680115,97.8490945 C147.782655,97.89304 147.885193,97.9540746 147.987732,98.0322 C148.090272,98.1103254 148.178161,98.2006565 148.251404,98.3031961 C148.324647,98.4057356 148.38324,98.5326875 148.427185,98.6840554 C148.471131,98.8354234 148.493103,98.998996 148.493103,99.1747781 C148.493103,99.6044677 148.410096,100.058565 148.24408,100.537083 C148.078063,101.015601 147.826601,101.489229 147.489685,101.957981 C147.152769,102.426734 146.759707,102.851534 146.310486,103.232395 C145.861265,103.613257 145.324161,103.920871 144.699158,104.155247 C144.074155,104.389623 143.414982,104.506809 142.721619,104.506809 C141.510675,104.506809 140.580509,104.162574 139.931091,103.474094 C139.281674,102.785614 138.95697,101.762675 138.95697,100.405247 Z M142.15033,83.735325 C142.15033,83.5204801 142.172302,83.2665764 142.216248,82.9736062 C142.260193,82.680636 142.350524,82.3510494 142.487244,81.9848367 C142.623963,81.6186239 142.789977,81.2817132 142.985291,80.9740945 C143.180604,80.6664758 143.446715,80.4101307 143.783631,80.2050515 C144.120546,79.9999724 144.49896,79.8974343 144.918884,79.8974343 C145.524356,79.9072 145.949157,79.9999725 146.193299,80.1757546 C146.349549,80.2929427 146.427674,80.473605 146.427674,80.7177468 C146.427674,80.8544663 146.40326,81.0155975 146.354431,81.2011453 C146.608339,81.3085677 146.820739,81.4184299 146.991638,81.5307351 C147.162538,81.6430404 147.316345,81.8114957 147.453064,82.0361062 C147.589784,82.2607167 147.658142,82.5146204 147.658142,82.797825 C147.658142,82.9931384 147.631287,83.1982145 147.577576,83.4130593 C147.523865,83.6279042 147.438416,83.8549527 147.321228,84.0942117 C147.20404,84.3334707 147.047792,84.5580778 146.852478,84.7680398 C146.657165,84.9780018 146.427675,85.170871 146.164002,85.3466531 C145.900328,85.5224352 145.580507,85.661594 145.204529,85.7641336 C144.828551,85.8666731 144.415957,85.9179421 143.966736,85.9179421 C143.790954,85.9179421 143.600526,85.8739973 143.395447,85.7861062 C143.190368,85.6982151 142.992616,85.5712633 142.802185,85.4052468 C142.611755,85.2392304 142.455506,85.0097405 142.333435,84.7167703 C142.211364,84.4238001 142.15033,84.0966549 142.15033,83.735325 Z M146.372986,99.4238015 C146.372986,98.9159865 146.465759,98.3813239 146.651306,97.8197976 C146.836854,97.2582714 147.115172,96.7651122 147.486267,96.3403054 C147.857363,95.9154986 148.262632,95.7030984 148.702088,95.7030984 C149.03412,95.7030984 149.385679,95.7983123 149.756775,95.9887429 C150.127871,96.1791736 150.420837,96.3744841 150.635681,96.5746804 C150.850526,96.7748767 150.957947,96.923801 150.957947,97.0214578 C150.948181,97.1874742 150.894471,97.4194055 150.796814,97.7172586 C150.699157,98.0151116 150.581971,98.3154016 150.445252,98.6181375 C150.308532,98.9208734 150.174256,99.2162806 150.04242,99.5043679 C149.910583,99.7924553 149.795838,100.039035 149.698181,100.244114 C149.600525,100.449193 149.551697,100.571262 149.551697,100.610325 C149.541931,100.698216 149.571228,100.822727 149.639588,100.98386 C149.707947,101.144994 149.810485,101.318332 149.947205,101.50388 C150.083924,101.689427 150.296324,101.850559 150.584412,101.987278 C150.872499,102.123998 151.206968,102.192356 151.58783,102.192356 C152.456975,102.192356 153.121031,101.894508 153.580017,101.298802 C154.039004,100.703095 154.268494,99.9023222 154.268494,98.8964578 C154.268494,98.4765338 154.205018,98.0639403 154.078064,97.6586648 C153.95111,97.2533893 153.780214,96.8798579 153.565369,96.5380593 C153.350524,96.1962608 153.099062,95.8691156 152.810974,95.556614 C152.522887,95.2441125 152.212831,94.9682363 151.880799,94.7289773 C151.548766,94.4897183 151.206972,94.2773181 150.855408,94.0917703 C150.503844,93.9062225 150.157167,93.7548568 149.815369,93.6376687 C149.47357,93.5204806 149.146425,93.4423564 148.833924,93.4032937 C148.589782,93.1786832 148.355409,92.7245862 148.130799,92.040989 C147.945251,91.4745799 147.852478,91.0058346 147.852478,90.634739 C147.852478,90.5566136 147.857361,90.4784894 147.867127,90.400364 C147.896424,90.0976281 148.411555,89.7240967 149.412537,89.2797586 C150.413518,88.8354204 151.526788,88.4325924 152.752381,88.0712625 C153.977973,87.7099325 155.108332,87.3974357 156.143494,87.1337625 C157.178655,86.8700893 157.779235,86.7382546 157.945252,86.7382546 C158.140565,86.7382546 158.438414,87.0165722 158.838806,87.5732156 C159.239199,88.129859 159.439392,88.5448939 159.439392,88.8183328 C159.439392,89.1894284 159.231875,89.6093461 158.816834,90.0780984 C158.401793,90.5468507 157.930606,90.9374718 157.403259,91.2499734 C156.875913,91.562475 156.44623,91.7187234 156.114197,91.7187234 C155.997009,91.7187234 155.889588,91.6479233 155.791931,91.5063211 C155.694275,91.3647188 155.599061,91.22556 155.506287,91.0888406 C155.413513,90.9521212 155.308533,90.8837625 155.191345,90.8837625 C154.722593,90.8935281 154.060979,91.0546593 153.206482,91.3671609 C152.351986,91.6796625 151.841737,91.9140351 151.67572,92.0702859 L151.705017,92.1874734 C151.763611,92.2070047 151.839294,92.2363013 151.932068,92.275364 C152.024842,92.3144267 152.21527,92.4071992 152.503357,92.5536843 C152.791444,92.7001694 153.077086,92.8588593 153.360291,93.0297586 C153.643495,93.2006578 153.975523,93.4228236 154.356384,93.6962625 C154.737246,93.9697013 155.091246,94.255343 155.418396,94.5531961 C155.745546,94.8510491 156.077574,95.2074909 156.41449,95.622532 C156.751406,96.0375731 157.037047,96.4623736 157.271424,96.8969461 C157.5058,97.3315185 157.698669,97.8246777 157.850037,98.3764382 C158.001405,98.9281988 158.077088,99.4970408 158.077088,100.082981 C158.077088,100.952126 157.937929,101.711396 157.659607,102.360813 C157.381285,103.010231 157.00043,103.522921 156.517029,103.898899 C156.033628,104.274878 155.494083,104.555637 154.898377,104.741184 C154.302671,104.926732 153.653263,105.019505 152.950134,105.019505 C152.315366,105.019505 151.668399,104.90476 151.009216,104.675266 C150.350034,104.445773 149.749454,104.138159 149.207459,103.752415 C148.665464,103.366671 148.177187,102.936987 147.742615,102.463352 C147.308042,101.989717 146.971132,101.486792 146.731873,100.954563 C146.492614,100.422334 146.372986,99.9120852 146.372986,99.4238015 Z" id="eh-ouais" fill="#98ADFE" transform="translate(109.518494, 92.698704) rotate(-5.000000) translate(-109.518494, -92.698704) "></path>
                        <g id="gaia">
                            <path d="M117.168844,29.29412 C117.168844,29.29412 111.203764,25.10012 100.894073,24.86432 C90.5843819,24.62852 85.2187657,28.83092 85.2187657,28.83092" id="Stroke-1" stroke="#242A2E" stroke-width="4" stroke-linecap="round"></path>
                            <path d="M39.6167688,24.94432 C39.6167688,30.46712 35.1395688,34.94432 29.6167688,34.94432 C24.0939688,34.94432 19.6167688,30.46712 19.6167688,24.94432 C19.6167688,19.42152 24.0939688,14.94432 29.6167688,14.94432 C35.1395688,14.94432 39.6167688,19.42152 39.6167688,24.94432" id="Fill-3" fill="#242A2E"></path>
                            <path d="M0.0998040562,5.70154 C0.0998040562,5.70154 10.1668743,0.09994 26.385932,0.09994 C42.6049897,0.09994 52.6720599,5.70154 52.6720599,5.70154" id="Stroke-5" stroke="#242A2E" stroke-width="6" stroke-linecap="round"></path>
                            <path d="M127.900116,5.70154 C127.900116,5.70154 117.833046,0.09994 101.613988,0.09994 C85.3949304,0.09994 75.3280599,5.70154 75.3280599,5.70154" id="Stroke-7" stroke="#242A2E" stroke-width="6" stroke-linecap="round"></path>
                        </g>
                    </g>
                </g>
            </g>
        </g>
    </g>
</svg>