<?xml version="1.0" encoding="utf-8"?>
<!-- Generator: Adobe Illustrator 21.0.0, SVG Export Plug-In . SVG Version: 6.00 Build 0)  -->
<svg version="1.1" id="gaia-bubble" xmlns="http://www.w3.org/2000/svg" xmlns:xlink="http://www.w3.org/1999/xlink" x="0px"
	 y="0px" width="214px" height="169px" viewBox="0 0 214 169" style="enable-background:new 0 0 214 169;" xml:space="preserve">
<g id="bubble">
	
		<image style="overflow:visible;opacity:0.2;" width="368" height="313" xlink:href="1F162AF8E610141C.png"  transform="matrix(1 0 0 1 -72 -62)">
	</image>
	<g>
		<path style="fill:#FFFFFF;" d="M59,80.1c0.2-2.7,1.5-14.2,12.7-22.1c0.6,8.7,2.8,12.4,3.9,13.8c7.8-2.4,18.4-4.4,32.1-5.6
			c22.5-2,65.8,0.6,68,25.6c1.8,20.3-28,35.1-63.8,38.3c-18.2,1.6-61.2-2.6-63.6-26.6C47,91.4,52.8,84.7,59,80.1z"/>
	</g>
</g>
<path id="eh-ouais" style="fill:#98ADFE;" d="M91.4,103.6c-0.1-0.1-0.2-0.2-0.4-0.2c-0.1,0-0.3-0.1-0.4-0.1c-0.1,0-0.2,0-0.4,0
	s-0.2,0-0.2,0c0,0-0.1,0-0.1,0.1c-0.1,0.6-0.2,1.2-0.4,1.7c-0.2,0.6-0.4,1-0.7,1.4c-0.3,0.4-0.6,0.6-1,0.6c-0.4,0-0.8-0.1-1-0.5
	c-0.2-0.4-0.4-0.9-0.5-1.5c-0.1-0.8-0.1-1.8,0-3s0.2-2.4,0.4-3.4c0.2-1,0.3-2,0.4-3c0.1-1,0.2-1.6,0.1-2c0-0.2-0.2-0.5-0.6-0.7
	c-0.4-0.2-0.9-0.4-1.5-0.6s-1.2-0.2-1.8-0.1c-0.2,0-0.4,0.2-0.6,0.5c-0.2,0.3-0.5,0.7-0.7,1.2c-0.2,0.5-0.4,1-0.7,1.7
	c-0.2,0.6-0.5,1.3-0.6,1.9s-0.4,1.2-0.6,1.9c-0.2,0.7-0.3,1.2-0.5,1.6c-0.1,0.4-0.2,0.8-0.3,1.2l-0.3,0c-0.1-0.6,0-2.4,0.2-5.4
	c0.2-2.9,0.4-4.9,0.6-5.8c0-0.2,0.1-0.7,0.2-1.3c0.1-0.6,0.2-1.1,0.3-1.6c0.1-0.5,0.1-1,0-1.5c0-0.2-0.2-0.4-0.5-0.6
	c-0.3-0.2-0.7-0.3-1.1-0.4c-0.4-0.1-0.8-0.1-1.2-0.1c-0.4,0-0.6,0.1-0.8,0.2c-0.3,0.3-0.6,1.5-0.8,3.6c-0.2,2.1-0.4,4.4-0.5,6.8
	c-0.1,2.5-0.1,4.9-0.1,7.1c0,0.3,0,0.6,0,0.9c0-0.1-0.1-0.2-0.1-0.2c-0.2-0.2-0.4-0.4-0.7-0.5c-0.3-0.1-0.6-0.1-0.9-0.1
	c-0.1,0-0.3,0.1-0.4,0.1c-0.1,0.1-0.2,0.1-0.2,0.2c0,0,0,0.1-0.1,0.1c0,0.3,0,0.7-0.1,1.1c-0.1,0.4-0.2,0.8-0.4,1.2
	c-0.2,0.4-0.4,0.8-0.6,1.3s-0.5,0.8-0.8,1.1c-0.3,0.3-0.6,0.6-1,0.8c-0.4,0.2-0.8,0.3-1.2,0.4c-0.4,0-0.8,0-1.1-0.1
	c-0.3-0.1-0.5-0.3-0.7-0.6s-0.3-0.6-0.3-1c0-0.5,0-1.2,0.1-2c0.1-0.8,0.2-1.3,0.2-1.6c0-0.3,0.1-0.5,0.1-0.9l0.1,0.1
	c0.1,0.1,0.1,0.2,0.3,0.3s0.3,0.3,0.4,0.4s0.4,0.2,0.7,0.3c0.3,0.1,0.5,0.1,0.8,0.1c0.8-0.1,1.4-0.5,2-1.2c0.6-0.7,1-1.7,1.3-2.8
	c0.3-1.2,0.4-2.4,0.2-3.7c0-0.5-0.2-1-0.3-1.4c-0.2-0.4-0.4-0.8-0.6-1.1c-0.2-0.3-0.5-0.5-0.8-0.8s-0.6-0.4-0.9-0.5
	c-0.3-0.1-0.6-0.2-0.9-0.2c-0.3,0-0.6-0.1-0.9,0c-0.6,0.1-1.2,0.3-1.7,0.8c-0.5,0.4-1,1-1.4,1.7s-0.8,1.5-1.1,2.5
	c-0.3,0.9-0.5,1.9-0.7,2.9c-0.1,1-0.2,2-0.4,3s-0.1,2-0.1,2.9c0.1,0.9,0.3,1.8,0.7,2.5c0.4,0.8,0.9,1.4,1.5,1.8c0.6,0.5,1.3,0.8,2,1
	c0.7,0.2,1.5,0.3,2.3,0.2c0.8-0.1,1.6-0.3,2.3-0.7c0.7-0.4,1.3-0.8,1.7-1.4c0.4-0.5,0.8-1.1,1.1-1.8c0.3-0.6,0.4-1.1,0.5-1.6
	c0,0.4,0,0.7,0.1,0.9c0.1,0.7,0.4,1.2,1.1,1.6s1.5,0.6,2.3,0.5c0.5,0,0.9-0.2,1.2-0.4c0-0.9,0.1-2,0.3-3.3c0.2-1.2,0.4-2.4,0.7-3.4
	c0.3-1,0.6-2,0.8-2.8c0.3-0.8,0.5-1.3,0.6-1.5l0.3,0.1c-0.1,0.6-0.2,1.6-0.3,2.9c-0.1,1.3-0.1,2.4-0.1,3.2c0,0.5,0.1,1,0.3,1.4
	s0.3,0.9,0.5,1.3c0.2,0.4,0.5,0.7,0.8,1c0.3,0.3,0.7,0.5,1.2,0.6c0.5,0.1,1,0.2,1.5,0.1c0.7-0.1,1.4-0.2,2-0.6
	c0.6-0.3,1.2-0.7,1.6-1.1c0.4-0.4,0.8-0.9,1-1.5c0.2-0.6,0.3-1.1,0.3-1.6c0-0.2-0.1-0.4-0.2-0.6C91.6,103.8,91.5,103.7,91.4,103.6z
	 M68,98.9c0.2-1.1,0.5-2,0.8-2.9c0.1-0.4,0.3-0.6,0.4-0.6c0.2,0,0.4,0.4,0.4,1.3c0,0.5,0.1,1,0,1.5c0,0.5-0.1,1-0.1,1.5
	c-0.1,0.5-0.2,0.9-0.3,1.3c-0.1,0.4-0.3,0.7-0.4,1c-0.2,0.2-0.3,0.4-0.5,0.4c-0.1,0-0.2,0-0.3,0c-0.1,0-0.2-0.1-0.2-0.2
	c-0.1-0.1-0.1-0.1-0.1-0.2c0-0.1-0.1-0.1-0.1-0.2c0,0,0-0.1,0-0.1C67.6,100.9,67.8,99.9,68,98.9z M110.6,95.2
	c-0.1-0.4-0.1-0.8-0.3-1.3c-0.1-0.4-0.3-0.8-0.5-1.1c-0.2-0.3-0.4-0.6-0.7-0.9c-0.3-0.3-0.6-0.5-0.9-0.7c-0.3-0.2-0.8-0.3-1.3-0.4
	c-0.5-0.1-1-0.1-1.6,0c-0.6,0-1,0.2-1.4,0.5c-0.1-0.3-0.5-0.5-1.1-0.7c-0.8,0.3-1.6,1-2.3,2.1c-0.7,1.1-1.3,2.5-1.7,4
	c-0.4,1.5-0.6,2.9-0.5,4.3c0,0.1,0,0.3,0,0.4c0,0.6,0.1,1.1,0.3,1.7c0.2,0.7,0.4,1.4,0.8,2c0.3,0.7,0.8,1.2,1.2,1.7s1.1,0.9,1.8,1.1
	c0.7,0.3,1.5,0.4,2.3,0.3c0.7-0.1,1.4-0.3,2-0.6c0.6-0.3,1.1-0.8,1.5-1.3c0.4-0.5,0.8-1.1,1.1-1.8c0.3-0.7,0.6-1.3,0.7-2
	c0.2-0.7,0.3-1.4,0.4-2.1c0.1-0.7,0.2-1.4,0.2-2c0-0.6,0-1.2,0-1.7c0-0.1,0-0.3,0-0.4C110.7,95.8,110.6,95.5,110.6,95.2z
	 M107.1,96.9c0,0.5-0.1,1.2-0.1,2c-0.1,0.8-0.2,1.5-0.3,2.2c-0.2,0.7-0.3,1.4-0.6,2.1c-0.2,0.7-0.5,1.2-0.8,1.6s-0.7,0.6-1.2,0.7
	c-0.4,0-0.7-0.1-1-0.5c-0.3-0.3-0.5-0.8-0.7-1.4c-0.1-0.4-0.2-0.9-0.2-1.4c0-0.2,0-0.4,0-0.6c0-0.7,0-1.4,0.1-1.9
	c0.1,0.1,0.3,0.1,0.5,0.2c0.2,0.1,0.4,0,0.4,0c0.1-0.4,0.1-0.9,0.2-1.4c0.1-0.5,0.2-1.1,0.4-1.8c0.2-0.7,0.4-1.3,0.6-1.9
	c0.2-0.6,0.5-1,0.8-1.4c0.3-0.4,0.6-0.6,0.9-0.6c0.2,0,0.3,0,0.5,0.1c0.1,0.1,0.2,0.2,0.3,0.4c0.1,0.2,0.1,0.3,0.2,0.5
	c0,0.2,0.1,0.4,0.1,0.6c0,0.2,0,0.4,0,0.6c0,0.1,0,0.3,0,0.5c0,0.1,0,0.2,0,0.2C107.2,95.9,107.2,96.4,107.1,96.9z M144.4,84.9
	c0.1,0.3,0.3,0.5,0.5,0.6c0.2,0.1,0.4,0.3,0.6,0.3c0.2,0.1,0.4,0.1,0.6,0.1c0.4,0,0.9-0.1,1.2-0.3c0.4-0.1,0.7-0.3,0.9-0.5
	c0.2-0.2,0.5-0.4,0.6-0.6c0.2-0.2,0.3-0.5,0.4-0.7c0.1-0.2,0.2-0.5,0.2-0.7c0-0.2,0-0.4,0-0.6c0-0.3-0.1-0.5-0.3-0.7
	c-0.2-0.2-0.3-0.4-0.5-0.5c-0.2-0.1-0.4-0.2-0.7-0.3c0-0.2,0-0.4,0-0.5c0-0.2-0.1-0.4-0.3-0.5c-0.3-0.2-0.7-0.2-1.3-0.2
	c-0.4,0-0.8,0.2-1.1,0.4c-0.3,0.2-0.6,0.5-0.7,0.8c-0.2,0.3-0.3,0.7-0.4,1c-0.1,0.4-0.2,0.7-0.2,1c0,0.3,0,0.6,0,0.8
	C144.2,84.3,144.3,84.6,144.4,84.9z M161.3,97.1c-0.2-0.5-0.4-1-0.7-1.4c-0.3-0.4-0.6-0.8-1-1.2c-0.4-0.4-0.7-0.7-1.1-1
	s-0.7-0.5-1.1-0.8c-0.4-0.2-0.7-0.4-1-0.6s-0.6-0.3-0.9-0.4c-0.3-0.1-0.5-0.2-0.6-0.2c-0.1,0-0.2-0.1-0.2-0.1l0-0.1
	c0.2-0.2,0.6-0.4,1.5-0.8c0.8-0.4,1.5-0.6,1.9-0.7c0.1,0,0.2,0,0.3,0.2c0.1,0.1,0.2,0.3,0.3,0.4c0.1,0.1,0.2,0.2,0.3,0.2
	c0.3,0,0.7-0.2,1.2-0.6s0.9-0.8,1.3-1.3c0.4-0.5,0.5-0.9,0.5-1.3c0-0.3-0.3-0.7-0.7-1.2c-0.4-0.5-0.8-0.8-1-0.8
	c-0.2,0-0.8,0.2-1.8,0.6c-1,0.4-2.1,0.8-3.3,1.2c-1.2,0.5-2.3,1-3.2,1.5c-1,0.5-1.4,0.9-1.4,1.3c0,0.1,0,0.2,0,0.2
	c0,0.4,0.2,0.8,0.4,1.4c0.3,0.7,0.6,1.1,0.8,1.3c0.3,0,0.7,0.1,1,0.1c0.4,0.1,0.7,0.2,1.1,0.4c0.4,0.2,0.7,0.3,1.1,0.5
	c0.4,0.2,0.7,0.5,1,0.7c0.3,0.3,0.6,0.6,0.8,0.9c0.2,0.3,0.4,0.7,0.6,1.1c0.2,0.4,0.3,0.8,0.3,1.2c0.1,1-0.1,1.8-0.5,2.5
	c-0.4,0.6-1,1-1.9,1.1c-0.4,0-0.7,0-1-0.1c-0.3-0.1-0.5-0.3-0.7-0.4c-0.2-0.2-0.3-0.3-0.4-0.5c-0.1-0.2-0.1-0.3-0.1-0.4
	c0,0,0-0.2,0.1-0.4c0.1-0.2,0.1-0.5,0.2-0.8c0.1-0.3,0.2-0.6,0.3-0.9s0.2-0.6,0.2-0.9c0.1-0.3,0.1-0.5,0.1-0.7
	c0-0.1-0.1-0.2-0.4-0.4c-0.2-0.2-0.5-0.3-0.9-0.5c-0.4-0.2-0.7-0.2-1.1-0.2c-0.4,0-0.8,0.3-1.2,0.7c-0.3,0.4-0.5,0.9-0.7,1.4
	c0,0,0,0,0,0c-0.1,0-0.1,0-0.2,0s-0.1,0-0.1,0c0,0.3,0,0.6-0.1,0.9c0,0.3-0.1,0.7-0.2,1.2c-0.1,0.4-0.2,0.8-0.4,1.2
	c-0.2,0.3-0.4,0.6-0.6,0.9c-0.3,0.3-0.6,0.4-0.9,0.4c-0.2,0-0.3,0-0.4-0.1c-0.1-0.1-0.2-0.3-0.3-0.5s-0.2-0.5-0.2-0.9
	c-0.1-1,0-2.6,0.4-4.7c0.3-2.1,0.7-4.2,1.1-6.3c0.1-0.3-0.1-0.6-0.4-0.8c-0.3-0.2-0.7-0.4-1.1-0.5s-0.9-0.1-1.2-0.2
	c-0.4,0-0.6,0-0.8,0c-0.4,0-0.6,0.2-0.7,0.5c-0.4,1.4-0.7,3.5-1.1,6.2c-0.2,1.3-0.3,2.5-0.4,3.5c-0.1,0-0.2-0.1-0.3-0.1
	c-0.1,0-0.2,0-0.4,0c-0.1,0-0.2,0-0.3,0c0,0-0.1,0-0.1,0c0,0.4,0,0.8-0.1,1.2s-0.1,0.7-0.2,1.1c-0.1,0.4-0.2,0.7-0.3,0.9
	c-0.1,0.2-0.3,0.4-0.5,0.6c-0.2,0.2-0.4,0.3-0.7,0.3c-0.7,0.1-1.1-0.6-1.3-1.9c0-0.1,0-0.2,0-0.4c-0.2-2.1,0.1-5.1,0.9-8.8
	c0-0.1,0-0.3-0.1-0.3c-0.1-0.1-0.2-0.2-0.4-0.2c-0.2,0-0.3-0.1-0.5-0.1c-0.2,0-0.3,0-0.5,0c-0.2,0-0.3,0-0.3,0l0-0.4
	c-0.1-0.7-0.5-1.2-1.4-1.7c-0.9-0.5-2-0.6-3.3-0.5c-0.9,0.1-1.7,0.4-2.4,0.8c-0.7,0.5-1.3,1.1-1.8,1.9c-0.5,0.8-0.9,1.6-1.2,2.6
	c-0.3,1-0.5,2-0.7,3.1c-0.1,1.1-0.1,2.2,0,3.3c0,0.1,0,0.1,0,0.2c-0.2,0-0.3,0-0.5,0l0,0.3c0,0.2-0.1,0.5-0.2,0.8
	c-0.1,0.3-0.2,0.6-0.3,0.9c-0.1,0.3-0.3,0.6-0.5,0.8c-0.2,0.2-0.4,0.4-0.7,0.4c-0.3,0-0.6-0.1-0.8-0.3c-0.2-0.2-0.4-0.5-0.5-0.9
	c-0.1-0.2-0.1-0.5-0.1-0.8c0-0.1,0-0.2,0-0.2c-0.1-0.8,0-2.7,0.3-5.4c0.2-2.8,0.3-4.3,0.4-4.5c0-0.2-0.2-0.4-0.5-0.6
	c-0.3-0.2-0.7-0.4-1.2-0.5c-0.5-0.1-0.9-0.2-1.2-0.2c-0.6,0-0.8,0.2-0.9,0.5c-0.1,1.1-0.3,2.5-0.6,4.1c-0.3,1.6-0.7,3.3-1.3,5
	c-0.5,1.7-1.1,3-1.6,4l-0.4-0.1c0-0.3-0.1-0.5-0.1-0.8c-0.1-1.3-0.1-2.8,0.1-4.5c0.2-2.1,0.6-4.3,1.1-6.4c-0.1-0.1-0.3-0.3-0.5-0.4
	s-0.6-0.2-1-0.3s-0.8-0.1-1.2-0.1c-0.5,0-0.9,0.8-1.3,2.3c-0.4,1.5-0.7,3.2-0.9,5c-0.2,1.9-0.2,3.4-0.1,4.6c0,0.5,0.2,1,0.6,1.5
	c0.3,0.5,0.7,0.9,1.2,1.3c0.5,0.4,1,0.6,1.5,0.9c0.5,0.2,1,0.3,1.4,0.3c0.3,0,0.7-0.2,1-0.4c0.3-0.3,0.6-0.6,0.8-0.9
	c0.2-0.4,0.5-0.8,0.7-1.2c0.2-0.5,0.4-0.9,0.5-1.2c0.1-0.4,0.2-0.7,0.3-1.1l0.3,0c0,0.2,0,0.4,0,0.6c0,0.2,0,0.4,0.1,0.5
	c0.1,0.3,0.2,0.7,0.3,1.1c0.2,0.4,0.4,0.7,0.6,0.9c0.3,0.3,0.6,0.5,1,0.6s0.9,0.2,1.5,0.1c0.6-0.1,1.2-0.3,1.7-0.6s1-0.8,1.3-1.2
	c0.2-0.3,0.4-0.7,0.6-1.1c0.3,0.5,0.6,1,1,1.5c1.1,1,2.4,1.5,3.9,1.3c0.8-0.1,1.5-0.4,2.2-0.9c0.6-0.5,1.1-1.1,1.4-1.7l0.2,0
	c0,0.2,0.1,0.4,0.3,0.7c0.1,0.2,0.3,0.5,0.5,0.7c0.2,0.2,0.5,0.4,0.9,0.5c0.4,0.1,0.8,0.2,1.3,0.1c0.6,0,1.1-0.2,1.6-0.5
	c0.5-0.3,0.9-0.6,1.2-1c0.2-0.3,0.4-0.6,0.6-0.9c0.2,0.6,0.5,1.1,0.9,1.4c0.7,0.6,1.7,0.9,2.9,0.8c0.7-0.1,1.3-0.2,1.9-0.5
	c0.6-0.3,1.1-0.6,1.5-1.1c0.4-0.4,0.8-0.9,1-1.3c0.1,0.1,0.3,0.3,0.4,0.4c0.5,0.4,1,0.8,1.6,1.1c0.6,0.3,1.2,0.6,1.9,0.8
	c0.7,0.2,1.4,0.2,2,0.2c0.7-0.1,1.3-0.2,1.9-0.4c0.6-0.2,1.1-0.6,1.5-1c0.4-0.4,0.8-1,1-1.6c0.2-0.7,0.3-1.4,0.2-2.3
	C161.7,98.2,161.5,97.6,161.3,97.1z M134.5,96.2c-0.1,0.9-0.3,1.8-0.5,2.7c-0.2,1-0.5,1.8-0.8,2.6c-0.3,0.8-0.7,1.2-1.1,1.2
	c-0.4,0-0.6-0.1-0.8-0.5c-0.1-0.3-0.2-0.8-0.3-1.4c0-0.1,0-0.3,0-0.5c0-0.6,0-1.4,0-2.2c0-0.9,0.1-1.7,0.3-2.7
	c0.1-0.9,0.3-1.8,0.5-2.6c0.2-0.8,0.5-1.5,0.8-2c0.3-0.5,0.7-0.8,1-0.8c0.3,0,0.5,0.2,0.6,0.8l0,0.1c0,1.1-0.2,2.1-0.8,3
	c0.1,0.1,0.3,0.2,0.5,0.3c0.2,0.1,0.4,0.1,0.5,0.2c0.1,0,0.2,0,0.3,0C134.7,94.8,134.6,95.4,134.5,96.2z"/>
<path id="gaia" style="fill:#242A2E;" d="M121.3,30.7c-0.3-0.2-6.6-4.5-17.4-4.8c-10.9-0.3-16.7,4.2-17,4.4c-0.9,0.7-1,1.9-0.3,2.8
	c0.7,0.9,1.9,1,2.8,0.3c0,0,4.9-3.8,14.4-3.5c9.5,0.2,15.1,4,15.2,4.1c0.3,0.2,0.7,0.4,1.1,0.4c0.6,0,1.2-0.3,1.6-0.8
	C122.4,32.5,122.2,31.3,121.3,30.7z M32.6,17.9c-5.5,0-10,4.5-10,10c0,5.5,4.5,10,10,10c5.5,0,10-4.5,10-10
	C42.6,22.4,38.1,17.9,32.6,17.9z M57.1,6.1c-0.4-0.2-10.9-6-27.7-6c-16.8,0-27.3,5.7-27.7,6c-1.4,0.8-2,2.6-1.2,4.1
	c0.8,1.4,2.6,2,4.1,1.2c0.1-0.1,9.7-5.2,24.8-5.2c15.1,0,24.7,5.2,24.8,5.2c0.5,0.3,1,0.4,1.5,0.4c1.1,0,2.1-0.6,2.6-1.5
	C59.1,8.7,58.6,6.9,57.1,6.1z M132.4,6.1c-0.4-0.2-10.9-6-27.7-6s-27.3,5.7-27.7,6c-1.4,0.8-2,2.6-1.2,4.1c0.5,1,1.6,1.5,2.6,1.5
	c0.5,0,1-0.1,1.5-0.4c0.1-0.1,9.6-5.2,24.8-5.2c15.1,0,24.7,5.2,24.8,5.2c1.4,0.8,3.3,0.3,4.1-1.2C134.3,8.7,133.8,6.9,132.4,6.1z"
	/>
</svg>
