<?xml version="1.0" encoding="UTF-8"?>
<svg width="690px" height="324px" viewBox="0 0 690 324" version="1.1" xmlns="http://www.w3.org/2000/svg" xmlns:xlink="http://www.w3.org/1999/xlink">
    <!-- Generator: Sketch 43 (38999) - http://www.bohemiancoding.com/sketch -->
    <title>illus-parcours</title>
    <desc>Created with Sketch.</desc>
    <defs></defs>
    <g id="01_website" stroke="none" stroke-width="1" fill="none" fill-rule="evenodd">
        <g id="ftf-website" transform="translate(-750.000000, -3700.000000)" fill="#FFFFFF">
            <g id="Parcours-narratif" transform="translate(270.000000, 3690.000000)">
                <g id="illus-parcours" transform="translate(480.000000, 10.000000)">
                    <path d="M624.444326,150.135795 C618.173557,150.135795 613.090407,155.223295 613.090407,161.499432 L613.090407,237.627841 C613.090407,266.497159 589.70701,289.900568 560.862379,289.900568 C532.017747,289.900568 508.63435,266.497159 508.63435,237.627841 L508.63435,80.8414773 C508.63435,80.2142045 508.12683,79.7051136 507.498958,79.7051136 L495.579614,79.7051136 C494.952877,79.7051136 494.444222,80.2142045 494.444222,80.8414773 L494.444222,187.91875 C494.444222,211.610795 475.254963,230.817614 451.582041,230.817614 C427.90912,230.817614 408.719861,211.610795 408.719861,187.91875 L408.719861,80.8414773 C408.719861,80.2142045 408.211205,79.7051136 407.584469,79.7051136 L396.233956,79.7051136 C395.607219,79.7051136 395.098564,80.2142045 395.098564,80.8414773 L395.098564,185.363068 C395.098564,210.466477 374.765965,230.817614 349.684022,230.817614 C324.602079,230.817614 304.268345,210.466477 304.268345,185.363068 L304.268345,80.8414773 C304.268345,80.2142045 303.760825,79.7051136 303.132953,79.7051136 L287.743851,79.7051136 C287.11598,79.7051136 286.608459,80.2142045 286.608459,80.8414773 L286.608459,198.88125 C286.608459,230.325568 261.138212,255.817614 229.720782,255.817614 C198.302217,255.817614 172.833105,230.325568 172.833105,198.88125 L172.833105,80.8414773 C172.833105,80.2142045 172.32445,79.7051136 171.697714,79.7051136 L154.666835,79.7051136 C154.038963,79.7051136 153.531443,80.2142045 153.531443,80.8414773 L153.531443,236.499432 C153.531443,261.602841 133.197709,281.953977 108.115766,281.953977 L108.115766,281.953977 C83.0326874,281.953977 62.7000888,261.602841 62.7000888,236.499432 L62.7000888,114.934659 C62.7000888,114.307386 62.1914333,113.798295 61.5646969,113.798295 L20.4158228,113.798295 C19.7879511,113.798295 19.2804309,114.307386 19.2804309,114.934659 L19.2804309,306.953977 L618.767367,306.953977 C631.307771,306.953977 641.475205,296.777841 641.475205,284.226705 L641.475205,150.135795 L624.444326,150.135795 Z M61.5646969,50.1357955 C63.4426352,50.1357955 64.9708727,48.60625 64.9708727,46.7267045 L64.9708727,17.18125 L17.0085116,17.18125 L17.0085116,46.7267045 C17.0085116,48.60625 18.5367492,50.1357955 20.4146874,50.1357955 L61.5646969,50.1357955 Z" id="parcours-opacity" opacity="0.4" transform="translate(329.241858, 162.067614) scale(-1, 1) translate(-329.241858, -162.067614) "></path>
                    <path d="M272.735219,288.536932 C272.291281,288.092614 271.573713,288.092614 271.129775,288.536932 L243.880369,315.809659 C243.436431,316.253977 243.436431,316.972159 243.880369,317.416477 C244.10177,317.638068 244.392431,317.749432 244.683091,317.749432 C244.973751,317.749432 245.264412,317.638068 245.485813,317.416477 L272.735219,290.14375 C273.179158,289.699432 273.179158,288.98125 272.735219,288.536932 L272.735219,288.536932 Z M261.3813,288.536932 C260.937362,288.092614 260.218659,288.092614 259.774721,288.536932 L232.525314,315.809659 C232.082512,316.253977 232.082512,316.972159 232.525314,317.416477 C232.747851,317.638068 233.038512,317.749432 233.328036,317.749432 C233.618697,317.749432 233.909357,317.638068 234.131894,317.416477 L261.3813,290.14375 C261.824103,289.699432 261.824103,288.98125 261.3813,288.536932 L261.3813,288.536932 Z M238.671191,288.536932 C238.227253,288.092614 237.509685,288.092614 237.065747,288.536932 L209.816341,315.809659 C209.372402,316.253977 209.372402,316.972159 209.816341,317.416477 C210.037742,317.638068 210.328402,317.749432 210.619063,317.749432 C210.909723,317.749432 211.200383,317.638068 211.421785,317.416477 L238.671191,290.14375 C239.115129,289.699432 239.115129,288.98125 238.671191,288.536932 L238.671191,288.536932 Z M284.089139,288.536932 C283.646336,288.092614 282.927633,288.092614 282.483694,288.536932 L255.234288,315.809659 C254.791485,316.253977 254.791485,316.972159 255.234288,317.416477 C255.456825,317.638068 255.747485,317.749432 256.03701,317.749432 C256.327671,317.749432 256.618331,317.638068 256.839732,317.416477 L284.089139,290.14375 C284.533077,289.699432 284.533077,288.98125 284.089139,288.536932 L284.089139,288.536932 Z M250.026246,288.536932 C249.582307,288.092614 248.863604,288.092614 248.419666,288.536932 L221.17026,315.809659 C220.727457,316.253977 220.727457,316.972159 221.17026,317.416477 C221.392797,317.638068 221.683457,317.749432 221.974117,317.749432 C222.263642,317.749432 222.554303,317.638068 222.776839,317.416477 L250.026246,290.14375 C250.469048,289.699432 250.469048,288.98125 250.026246,288.536932 L250.026246,288.536932 Z M861.195229,278.544886 C860.568493,278.544886 860.059837,279.052841 860.059837,279.68125 C860.059837,280.308523 860.568493,280.817614 861.195229,280.817614 C861.821965,280.817614 862.330621,280.308523 862.330621,279.68125 C862.330621,279.052841 861.821965,278.544886 861.195229,278.544886 L861.195229,278.544886 Z M295.444193,288.536932 C295.000255,288.092614 294.282687,288.092614 293.838749,288.536932 L266.589343,315.809659 C266.145405,316.253977 266.145405,316.972159 266.589343,317.416477 C266.810744,317.638068 267.101405,317.749432 267.392065,317.749432 C267.682725,317.749432 267.973386,317.638068 268.194787,317.416477 L295.444193,290.14375 C295.888131,289.699432 295.888131,288.98125 295.444193,288.536932 L295.444193,288.536932 Z M883.903067,246.726705 L886.173851,246.726705 L886.173851,260.363068 C886.173851,260.990341 886.682507,261.499432 887.309243,261.499432 C887.935979,261.499432 888.444635,260.990341 888.444635,260.363068 L888.444635,246.726705 L890.715419,246.726705 C891.342155,246.726705 891.850811,246.217614 891.850811,245.590341 C891.850811,244.963068 891.342155,244.453977 890.715419,244.453977 L888.444635,244.453977 L888.444635,242.18125 C888.444635,241.553977 887.935979,241.044886 887.309243,241.044886 C886.682507,241.044886 886.173851,241.553977 886.173851,242.18125 L886.173851,244.453977 L883.903067,244.453977 C883.276331,244.453977 882.767675,244.963068 882.767675,245.590341 C882.767675,246.217614 883.276331,246.726705 883.903067,246.726705 L883.903067,246.726705 Z M873.68454,256.953977 L875.955324,256.953977 L875.955324,260.363068 C875.955324,260.990341 876.463979,261.499432 877.090716,261.499432 C877.717452,261.499432 878.226108,260.990341 878.226108,260.363068 L878.226108,256.953977 L880.496892,256.953977 C881.123628,256.953977 881.632284,256.444886 881.632284,255.817614 C881.632284,255.190341 881.123628,254.68125 880.496892,254.68125 L878.226108,254.68125 L878.226108,242.18125 C878.226108,241.553977 877.717452,241.044886 877.090716,241.044886 C876.463979,241.044886 875.955324,241.553977 875.955324,242.18125 L875.955324,254.68125 L873.68454,254.68125 C873.057804,254.68125 872.549148,255.190341 872.549148,255.817614 C872.549148,256.444886 873.057804,256.953977 873.68454,256.953977 L873.68454,256.953977 Z M306.799248,288.536932 C306.35531,288.092614 305.637742,288.092614 305.193804,288.536932 L277.944398,315.809659 C277.500459,316.253977 277.500459,316.972159 277.944398,317.416477 C278.165799,317.638068 278.456459,317.749432 278.74712,317.749432 C279.03778,317.749432 279.32844,317.638068 279.549842,317.416477 L306.799248,290.14375 C307.243186,289.699432 307.243186,288.98125 306.799248,288.536932 L306.799248,288.536932 Z M227.317272,288.536932 C226.873333,288.092614 226.15463,288.092614 225.710692,288.536932 L198.461286,315.809659 C198.018483,316.253977 198.018483,316.972159 198.461286,317.416477 C198.683823,317.638068 198.974483,317.749432 199.265143,317.749432 C199.554668,317.749432 199.845329,317.638068 200.067865,317.416477 L227.317272,290.14375 C227.760074,289.699432 227.760074,288.98125 227.317272,288.536932 L227.317272,288.536932 Z M855.518269,278.544886 C854.891533,278.544886 854.382877,279.052841 854.382877,279.68125 C854.382877,280.308523 854.891533,280.817614 855.518269,280.817614 C856.145006,280.817614 856.653661,280.308523 856.653661,279.68125 C856.653661,279.052841 856.145006,278.544886 855.518269,278.544886 L855.518269,278.544886 Z M408.917533,208.201705 C409.812222,215.591477 414.00863,215.047159 415.132668,214.777841 C419.695808,213.685795 420.391804,207.432386 420.073894,203.690341 C419.862711,201.185795 417.602146,196.011932 417.60101,196.011932 L410.803419,196.727841 C410.803419,196.727841 408.268089,202.825568 408.917533,208.201705 L408.917533,208.201705 Z M402.008673,169.602841 C397.274089,168.342614 396.601937,175.465341 396.601937,175.465341 L403.214459,176.871023 C404.280592,174.174432 405.092398,170.424432 402.008673,169.602841 L402.008673,169.602841 Z M395.816246,178.717614 C395.81511,178.717614 393.027723,183.628977 392.554265,186.097159 C391.84578,189.784659 391.887789,196.076705 396.310141,197.639205 C397.400117,198.024432 401.518184,199.005114 403.180398,191.750568 C404.383913,186.472159 402.503704,180.141477 402.503704,180.141477 L395.816246,178.717614 Z M863.466013,251.272159 L865.736797,251.272159 L865.736797,260.363068 C865.736797,260.990341 866.245452,261.499432 866.872189,261.499432 C867.498925,261.499432 868.00758,260.990341 868.00758,260.363068 L868.00758,251.272159 L870.278364,251.272159 C870.905101,251.272159 871.413756,250.763068 871.413756,250.135795 C871.413756,249.508523 870.905101,248.999432 870.278364,248.999432 L868.00758,248.999432 L868.00758,242.18125 C868.00758,241.553977 867.498925,241.044886 866.872189,241.044886 C866.245452,241.044886 865.736797,241.553977 865.736797,242.18125 L865.736797,248.999432 L863.466013,248.999432 C862.839276,248.999432 862.330621,249.508523 862.330621,250.135795 C862.330621,250.763068 862.839276,251.272159 863.466013,251.272159 L863.466013,251.272159 Z M318.145219,56.3857955 C317.701281,55.9414773 316.982578,55.9414773 316.539775,56.3857955 C316.095837,56.8289773 316.095837,57.5482955 316.539775,57.9926136 L359.959433,101.450568 C360.18197,101.672159 360.471495,101.783523 360.762155,101.783523 C361.052816,101.783523 361.343476,101.672159 361.564877,101.450568 C362.008816,101.00625 362.008816,100.286932 361.564877,99.84375 L318.145219,56.3857955 Z M412.394103,186.298295 C409.24112,186.79375 409.657808,190.607386 410.436687,193.399432 L417.159343,192.692614 C417.159343,192.692614 417.234279,185.539205 412.394103,186.298295 L412.394103,186.298295 Z M262.870934,86.7005682 C266.025053,86.2051136 265.608364,82.3903409 264.829485,79.5982955 L258.10683,80.30625 C258.10683,80.30625 258.031894,87.4585227 262.870934,86.7005682 L262.870934,86.7005682 Z M204.607162,288.536932 C204.163224,288.092614 203.445656,288.092614 203.001718,288.536932 L175.752312,315.809659 C175.308374,316.253977 175.308374,316.972159 175.752312,317.416477 C175.973713,317.638068 176.264374,317.749432 176.555034,317.749432 C176.845694,317.749432 177.136355,317.638068 177.357756,317.416477 L204.607162,290.14375 C205.051101,289.699432 205.051101,288.98125 204.607162,288.536932 L204.607162,288.536932 Z M193.253243,288.536932 C192.809305,288.092614 192.090602,288.092614 191.647799,288.536932 L164.398393,315.809659 C163.954455,316.253977 163.954455,316.972159 164.398393,317.416477 C164.619794,317.638068 164.910455,317.749432 165.201115,317.749432 C165.49064,317.749432 165.7813,317.638068 166.003837,317.416477 L193.253243,290.14375 C193.696046,289.699432 193.696046,288.98125 193.253243,288.536932 L193.253243,288.536932 Z M282.711908,86.9017045 C283.419257,83.2130682 283.378383,76.9210227 278.956032,75.3585227 C277.866055,74.9732955 273.747989,73.9926136 272.085775,81.2482955 C270.88226,86.5267045 272.761333,92.8573864 272.761333,92.8573864 L279.448792,94.2801136 C279.449927,94.2801136 282.237314,89.36875 282.711908,86.9017045 L282.711908,86.9017045 Z M273.256364,103.394886 C277.992084,104.655114 278.664236,97.5335227 278.664236,97.5335227 L272.050578,96.1267045 C270.984445,98.8232955 270.173775,102.574432 273.256364,103.394886 L273.256364,103.394886 Z M266.34864,64.7971591 C265.452816,57.4073864 261.256407,57.9505682 260.133504,58.2198864 C255.570364,59.3130682 254.873234,65.5664773 255.191143,69.3073864 C255.403462,71.8130682 257.664027,76.9869318 257.664027,76.9869318 L264.462754,76.2710227 C264.462754,76.2710227 266.998084,70.1721591 266.34864,64.7971591 L266.34864,64.7971591 Z M215.962217,288.536932 C215.518279,288.092614 214.799576,288.092614 214.356773,288.536932 L187.107367,315.809659 C186.663428,316.253977 186.663428,316.972159 187.107367,317.416477 C187.328768,317.638068 187.619428,317.749432 187.910089,317.749432 C188.199614,317.749432 188.490274,317.638068 188.712811,317.416477 L215.962217,290.14375 C216.40502,289.699432 216.40502,288.98125 215.962217,288.536932 L215.962217,288.536932 Z M838.48739,247.863068 L844.16435,247.863068 L844.16435,242.18125 L838.48739,242.18125 L838.48739,247.863068 Z M836.216607,250.135795 L846.435134,250.135795 L846.435134,239.908523 L836.216607,239.908523 L836.216607,250.135795 Z M622.19977,202.984659 C622.19977,204.782386 623.398744,206.30625 625.03825,206.796023 L625.03825,213.400568 C625.03825,215.28125 626.566488,216.809659 628.444426,216.809659 C630.322364,216.809659 631.850602,215.28125 631.850602,213.400568 L631.850602,206.796023 C633.490108,206.30625 634.689082,204.782386 634.689082,202.984659 C634.689082,202.357386 634.180426,201.848295 633.55369,201.848295 C632.926953,201.848295 632.418298,202.357386 632.418298,202.984659 C632.418298,203.924432 631.654179,204.689205 630.71521,204.689205 L629.579818,204.689205 L629.579818,213.400568 C629.579818,214.027841 629.070027,214.536932 628.444426,214.536932 C627.818825,214.536932 627.309034,214.027841 627.309034,213.400568 L627.309034,204.689205 L626.173642,204.689205 C625.234673,204.689205 624.470554,203.924432 624.470554,202.984659 C624.470554,202.357386 623.961899,201.848295 623.335162,201.848295 C622.708426,201.848295 622.19977,202.357386 622.19977,202.984659 L622.19977,202.984659 Z M541.406417,220.469886 C544.536692,220.469886 547.083376,223.017614 547.083376,226.151705 C547.083376,229.283523 544.536692,231.833523 541.406417,231.833523 C538.277276,231.833523 535.731728,229.283523 535.731728,226.151705 C535.731728,223.017614 538.277276,220.469886 541.406417,220.469886 L541.406417,220.469886 Z M541.406417,234.10625 C545.796977,234.10625 549.35416,230.544886 549.35416,226.151705 C549.35416,221.757386 545.796977,218.197159 541.406417,218.197159 C537.019262,218.197159 533.460944,221.757386 533.460944,226.151705 C533.460944,230.544886 537.019262,234.10625 541.406417,234.10625 L541.406417,234.10625 Z M617.090507,192.189205 C616.46377,192.189205 615.955115,192.698295 615.955115,193.325568 C615.955115,193.952841 616.46377,194.461932 617.090507,194.461932 C617.717243,194.461932 618.225899,193.952841 618.225899,193.325568 C618.225899,192.698295 617.717243,192.189205 617.090507,192.189205 L617.090507,192.189205 Z M682.943238,200.14375 L645.475305,200.14375 L645.475305,186.507386 L669.318535,186.507386 L669.318535,200.14375 L671.589319,200.14375 L671.589319,186.507386 L682.943238,186.507386 L682.943238,200.14375 Z M643.204521,202.416477 L685.214022,202.416477 L685.214022,184.234659 L643.204521,184.234659 L643.204521,202.416477 Z M634.689082,190.484659 C636.257058,190.484659 637.527561,191.75625 637.527561,193.325568 C637.527561,194.894886 636.257058,196.166477 634.689082,196.166477 C633.122241,196.166477 631.850602,194.894886 631.850602,193.325568 C631.850602,191.75625 633.122241,190.484659 634.689082,190.484659 L634.689082,190.484659 Z M634.689082,198.439205 C637.505989,198.439205 639.798345,196.144886 639.798345,193.325568 C639.798345,190.505114 637.505989,188.211932 634.689082,188.211932 C631.872174,188.211932 629.579818,190.505114 629.579818,193.325568 C629.579818,196.144886 631.872174,198.439205 634.689082,198.439205 L634.689082,198.439205 Z M934.995704,284.226705 C934.995704,294.251705 926.845861,302.408523 916.829433,302.408523 L319.612146,302.408523 L319.612146,116.071023 L358.491371,116.071023 L358.491371,236.499432 C358.491371,262.816477 379.883291,284.226705 406.177832,284.226705 C432.471238,284.226705 453.864293,262.816477 453.864293,236.499432 L453.864293,81.9778409 L468.624388,81.9778409 L468.624388,198.88125 C468.624388,231.528977 495.161903,258.090341 527.782849,258.090341 C560.402659,258.090341 586.940174,231.528977 586.940174,198.88125 L586.940174,81.9778409 L600.059628,81.9778409 L600.059628,185.364205 C600.059628,211.680114 621.451547,233.090341 647.746089,233.090341 C674.039495,233.090341 695.431414,211.680114 695.431414,185.364205 L695.431414,81.9778409 L704.511143,81.9778409 L704.511143,187.91875 C704.511143,212.826705 724.757452,233.090341 749.644108,233.090341 C774.530763,233.090341 794.778208,212.826705 794.778208,187.91875 L794.778208,81.9778409 L804.425633,81.9778409 L804.425633,237.627841 C804.425633,267.703977 828.874027,292.173295 858.924445,292.173295 C888.974863,292.173295 913.423257,267.703977 913.423257,237.627841 L913.423257,161.499432 C913.423257,156.486932 917.497044,152.408523 922.506393,152.408523 L934.995704,152.408523 L934.995704,284.226705 Z M793.071713,311.360795 C793.071713,311.988068 792.563058,312.497159 791.936322,312.497159 L464.943447,312.497159 C464.315576,312.497159 463.808055,311.988068 463.808055,311.360795 L463.808055,306.953977 L793.071713,306.953977 L793.071713,311.360795 Z M610.273614,319.453977 L646.606155,319.453977 L646.606155,317.18125 L610.273614,317.18125 L610.273614,319.453977 Z M363.032939,229.68125 L449.322725,229.68125 L449.322725,236.499432 C449.322725,260.309659 429.967699,279.68125 406.177832,279.68125 C382.387965,279.68125 363.032939,260.309659 363.032939,236.499432 L363.032939,229.68125 Z M582.186288,203.544886 C579.812184,231.509659 556.327737,253.544886 527.781713,253.544886 C499.23796,253.544886 475.752379,231.509659 473.378274,203.544886 L582.186288,203.544886 Z M604.601196,179.689205 L690.889846,179.689205 L690.889846,185.364205 C690.889846,209.174432 671.535956,228.544886 647.746089,228.544886 C623.956222,228.544886 604.601196,209.174432 604.601196,185.364205 L604.601196,179.689205 Z M709.052711,179.689205 L721.25931,179.689205 L721.25931,206.961932 L778.028906,206.961932 L778.028906,179.689205 L790.23664,179.689205 L790.23664,187.91875 C790.23664,210.319886 772.026089,228.544886 749.644108,228.544886 C727.262127,228.544886 709.052711,210.319886 709.052711,187.91875 L709.052711,179.689205 Z M808.9672,233.090341 L908.88169,233.090341 L908.88169,237.627841 C908.88169,265.197159 886.470189,287.627841 858.924445,287.627841 C831.377566,287.627841 808.9672,265.197159 808.9672,237.627841 L808.9672,233.090341 Z M953.728535,147.863068 L950.786735,147.863068 L927.281851,124.338068 C926.839048,123.89375 926.120345,123.89375 925.676407,124.338068 C925.232469,124.782386 925.232469,125.500568 925.676407,125.944886 L947.575846,147.863068 L939.432816,147.863068 L927.281851,135.701705 C926.839048,135.258523 926.120345,135.258523 925.676407,135.701705 C925.232469,136.146023 925.232469,136.865341 925.676407,137.308523 L936.221927,147.863068 L928.077761,147.863068 L927.281851,147.066477 C926.839048,146.623295 926.120345,146.623295 925.676407,147.066477 C925.457276,147.286932 925.347143,147.574432 925.346008,147.863068 L922.506393,147.863068 C914.993504,147.863068 908.88169,153.980114 908.88169,161.499432 L908.88169,228.544886 L808.9672,228.544886 L808.9672,80.8414773 C808.9672,78.9619318 807.438963,77.4323864 805.561025,77.4323864 L798.652165,77.4323864 L793.310146,72.0857955 C792.866208,71.6414773 792.147504,71.6414773 791.703566,72.0857955 C791.260763,72.5301136 791.260763,73.2482955 791.703566,73.6926136 L795.441276,77.4323864 L793.642816,77.4323864 C791.763742,77.4323864 790.23664,78.9619318 790.23664,80.8414773 L790.23664,175.14375 L709.052711,175.14375 L709.052711,80.8414773 C709.052711,78.9619318 707.524474,77.4323864 705.646535,77.4323864 L699.305371,77.4323864 L693.963352,72.0857955 C693.519414,71.6414773 692.800711,71.6414773 692.356773,72.0857955 C691.91397,72.5301136 691.91397,73.2482955 692.356773,73.6926136 L696.094483,77.4323864 L694.296022,77.4323864 C692.418084,77.4323864 690.889846,78.9619318 690.889846,80.8414773 L690.889846,175.14375 L604.601196,175.14375 L604.601196,80.8414773 C604.601196,80.30625 604.467219,79.8073864 604.246953,79.35625 C604.326431,78.9971591 604.234464,78.6130682 603.954022,78.3335227 L584.65236,59.0153409 C584.209557,58.5710227 583.490854,58.5710227 583.046915,59.0153409 C582.602977,59.4585227 582.602977,60.1778409 583.046915,60.6221591 L599.843903,77.4323864 L591.700873,77.4323864 L584.65236,70.3789773 C584.209557,69.9346591 583.490854,69.9346591 583.046915,70.3789773 C582.602977,70.8232955 582.602977,71.5414773 583.046915,71.9857955 L588.489984,77.4323864 L585.804782,77.4323864 C583.926844,77.4323864 582.398607,78.9619318 582.398607,80.8414773 L582.398607,198.88125 C582.398607,198.921023 582.396336,198.959659 582.396336,198.999432 L473.169362,198.999432 C473.169362,198.959659 473.165956,198.921023 473.165956,198.88125 L473.165956,80.8414773 C473.165956,79.4221591 472.293975,78.2039773 471.057533,77.6926136 L452.396231,59.0153409 C451.952293,58.5710227 451.23359,58.5710227 450.790787,59.0153409 C450.346849,59.4585227 450.346849,60.1778409 450.790787,60.6221591 L467.587775,77.4323864 L459.443609,77.4323864 L452.396231,70.3789773 C451.952293,69.9346591 451.23359,69.9346591 450.790787,70.3789773 C450.346849,70.8232955 450.346849,71.5414773 450.790787,71.9857955 L456.232721,77.4323864 L452.728901,77.4323864 C450.849827,77.4323864 449.322725,78.9619318 449.322725,80.8414773 L449.322725,225.135795 L363.032939,225.135795 L363.032939,114.934659 C363.032939,113.899432 362.559481,112.982386 361.830559,112.35625 C361.956588,111.964205 361.875975,111.519886 361.564877,111.207386 L318.145219,67.7494318 C317.701281,67.3051136 316.982578,67.3051136 316.539775,67.7494318 C316.095837,68.19375 316.095837,68.9119318 316.539775,69.35625 L358.671899,111.525568 L350.528868,111.525568 L318.145219,79.1142045 C317.701281,78.6698864 316.982578,78.6698864 316.539775,79.1142045 C316.095837,79.5585227 316.095837,80.2767045 316.539775,80.7210227 L347.316844,111.525568 L339.173813,111.525568 L318.145219,90.4778409 C317.701281,90.0346591 316.982578,90.0346591 316.539775,90.4778409 C316.095837,90.9221591 316.095837,91.6414773 316.539775,92.0857955 L335.962925,111.525568 L327.818759,111.525568 L318.145219,101.842614 C317.701281,101.398295 316.982578,101.398295 316.539775,101.842614 C316.095837,102.286932 316.095837,103.005114 316.539775,103.449432 L324.60787,111.525568 L318.476754,111.525568 C316.598816,111.525568 315.070578,113.055114 315.070578,114.934659 L315.070578,290.015341 L289.298317,315.809659 C288.855514,316.253977 288.855514,316.972159 289.298317,317.416477 C289.520854,317.638068 289.811514,317.749432 290.101039,317.749432 C290.391699,317.749432 290.68236,317.638068 290.903761,317.416477 L315.070578,293.228977 L315.070578,301.380114 L300.653371,315.809659 C300.209433,316.253977 300.209433,316.972159 300.653371,317.416477 C300.874773,317.638068 301.165433,317.749432 301.456093,317.749432 C301.746754,317.749432 302.037414,317.638068 302.258816,317.416477 L315.070578,304.59375 L315.070578,312.744886 L312.008426,315.809659 C311.564488,316.253977 311.564488,316.972159 312.008426,317.416477 C312.229827,317.638068 312.520488,317.749432 312.811148,317.749432 C313.101808,317.749432 313.392469,317.638068 313.61387,317.416477 L315.070578,315.958523 L315.070578,316.613068 C315.070578,317.86875 316.087889,318.885795 317.341362,318.885795 C318.59597,318.885795 319.612146,317.86875 319.612146,316.613068 L319.612146,306.953977 L459.266488,306.953977 L459.266488,311.360795 C459.266488,314.49375 461.812036,317.042614 464.943447,317.042614 L605.732046,317.042614 L605.732046,322.863068 C605.732046,323.490341 606.239566,323.999432 606.867438,323.999432 L650.012331,323.999432 C650.639067,323.999432 651.147723,323.490341 651.147723,322.863068 L651.147723,317.042614 L791.936322,317.042614 C795.065462,317.042614 797.613281,314.49375 797.613281,311.360795 L797.613281,306.953977 L916.829433,306.953977 C929.369837,306.953977 939.537272,296.777841 939.537272,284.226705 L939.537272,152.408523 L953.728535,152.408523 C954.983143,152.408523 955.999319,151.391477 955.999319,150.135795 C955.999319,148.88125 954.983143,147.863068 953.728535,147.863068 L953.728535,147.863068 Z M514.15701,233.85625 C518.547571,233.85625 522.105889,230.29375 522.105889,225.900568 C522.105889,221.507386 518.547571,217.947159 514.15701,217.947159 C509.769856,217.947159 506.210402,221.507386 506.210402,225.900568 C506.210402,230.29375 509.769856,233.85625 514.15701,233.85625 L514.15701,233.85625 Z M376.657642,255.817614 L435.698022,255.817614 L435.698022,251.272159 L376.657642,251.272159 L376.657642,255.817614 Z M374.386858,258.090341 L437.968806,258.090341 L437.968806,248.999432 L374.386858,248.999432 L374.386858,258.090341 Z M674.995495,196.734659 C675.622231,196.734659 676.130887,196.225568 676.130887,195.598295 C676.130887,194.971023 675.622231,194.461932 674.995495,194.461932 C674.368759,194.461932 673.860103,194.971023 673.860103,195.598295 C673.860103,196.225568 674.368759,196.734659 674.995495,196.734659 L674.995495,196.734659 Z M861.195229,272.294886 C861.195229,273.860795 859.922455,275.135795 858.356749,275.135795 C856.792179,275.135795 855.518269,273.860795 855.518269,272.294886 C855.518269,270.728977 856.792179,269.453977 858.356749,269.453977 C859.922455,269.453977 861.195229,270.728977 861.195229,272.294886 L861.195229,272.294886 Z M853.247485,272.294886 C853.247485,275.114205 855.539842,277.408523 858.356749,277.408523 C861.174792,277.408523 863.466013,275.114205 863.466013,272.294886 C863.466013,269.475568 861.174792,267.18125 858.356749,267.18125 C855.539842,267.18125 853.247485,269.475568 853.247485,272.294886 L853.247485,272.294886 Z M399.365481,242.18125 L412.990184,242.18125 L412.990184,239.908523 L399.365481,239.908523 L399.365481,242.18125 Z M397.094697,244.453977 L415.260968,244.453977 L415.260968,237.635795 L397.094697,237.635795 L397.094697,244.453977 Z M376.657642,242.18125 L390.282345,242.18125 L390.282345,239.908523 L376.657642,239.908523 L376.657642,242.18125 Z M374.386858,244.453977 L392.553129,244.453977 L392.553129,237.635795 L374.386858,237.635795 L374.386858,244.453977 Z M422.073319,242.18125 L435.698022,242.18125 L435.698022,239.908523 L422.073319,239.908523 L422.073319,242.18125 Z M419.802535,244.453977 L437.968806,244.453977 L437.968806,237.635795 L419.802535,237.635795 L419.802535,244.453977 Z M838.48739,260.363068 L844.16435,260.363068 L844.16435,254.68125 L838.48739,254.68125 L838.48739,260.363068 Z M836.216607,262.635795 L846.435134,262.635795 L846.435134,252.408523 L836.216607,252.408523 L836.216607,262.635795 Z M471.697894,44.2403409 L452.396231,24.9221591 C451.952293,24.4778409 451.23359,24.4778409 450.790787,24.9221591 C450.346849,25.3653409 450.346849,26.0846591 450.790787,26.5289773 L470.09245,45.8471591 C470.313851,46.06875 470.604512,46.1801136 470.895172,46.1801136 C471.185832,46.1801136 471.476493,46.06875 471.697894,45.8471591 C472.140697,45.4028409 472.140697,44.6835227 471.697894,44.2403409 L471.697894,44.2403409 Z M850.976702,247.863068 L856.653661,247.863068 L856.653661,242.18125 L850.976702,242.18125 L850.976702,247.863068 Z M848.705918,250.135795 L858.924445,250.135795 L858.924445,239.908523 L848.705918,239.908523 L848.705918,250.135795 Z M850.976702,260.363068 L856.653661,260.363068 L856.653661,254.68125 L850.976702,254.68125 L850.976702,260.363068 Z M848.705918,262.635795 L858.924445,262.635795 L858.924445,252.408523 L848.705918,252.408523 L848.705918,262.635795 Z M825.998079,247.863068 L831.675039,247.863068 L831.675039,242.18125 L825.998079,242.18125 L825.998079,247.863068 Z M823.727295,250.135795 L833.945823,250.135795 L833.945823,239.908523 L823.727295,239.908523 L823.727295,250.135795 Z M674.995495,192.189205 C675.622231,192.189205 676.130887,191.680114 676.130887,191.052841 C676.130887,190.425568 675.622231,189.916477 674.995495,189.916477 C674.368759,189.916477 673.860103,190.425568 673.860103,191.052841 C673.860103,191.680114 674.368759,192.189205 674.995495,192.189205 L674.995495,192.189205 Z M679.537063,196.734659 C680.163799,196.734659 680.672455,196.225568 680.672455,195.598295 C680.672455,194.971023 680.163799,194.461932 679.537063,194.461932 C678.910326,194.461932 678.401671,194.971023 678.401671,195.598295 C678.401671,196.225568 678.910326,196.734659 679.537063,196.734659 L679.537063,196.734659 Z M679.537063,192.189205 C680.163799,192.189205 680.672455,191.680114 680.672455,191.052841 C680.672455,190.425568 680.163799,189.916477 679.537063,189.916477 C678.910326,189.916477 678.401671,190.425568 678.401671,191.052841 C678.401671,191.680114 678.910326,192.189205 679.537063,192.189205 L679.537063,192.189205 Z M668.179737,210.45625 C667.848203,210.565341 666.901286,210.501705 666.199614,210.45625 C665.584231,210.414205 664.913215,210.371023 664.209272,210.371023 C663.505329,210.371023 662.834312,210.414205 662.21893,210.45625 C661.516122,210.502841 660.570341,210.565341 660.238806,210.45625 C660.236535,210.434659 660.2354,210.40625 660.2354,210.371023 C660.2354,210.335795 660.236535,210.307386 660.238806,210.285795 C660.56807,210.176705 661.514987,210.239205 662.220065,210.285795 C663.448559,210.367614 664.969984,210.367614 666.198478,210.285795 C666.902421,210.239205 667.849338,210.176705 668.179737,210.285795 C668.182008,210.307386 668.183143,210.335795 668.183143,210.371023 C668.183143,210.40625 668.182008,210.434659 668.179737,210.45625 L668.179737,210.45625 Z M666.048607,208.01875 C664.912079,208.09375 663.506464,208.09375 662.369937,208.01875 C660.836022,207.915341 659.509884,207.828977 658.648122,208.634659 C658.193965,209.059659 657.964616,209.64375 657.964616,210.371023 C657.964616,211.098295 658.195101,211.682386 658.648122,212.107386 C659.508749,212.913068 660.833751,212.826705 662.369937,212.723295 C663.505329,212.648295 664.913215,212.648295 666.048607,212.723295 C666.548179,212.75625 667.023908,212.788068 667.471253,212.788068 C668.396597,212.788068 669.189101,212.651705 669.770421,212.107386 C670.223443,211.682386 670.453927,211.098295 670.453927,210.371023 C670.453927,209.64375 670.224578,209.059659 669.770421,208.634659 C668.909794,207.828977 667.581386,207.915341 666.048607,208.01875 L666.048607,208.01875 Z M825.998079,260.363068 L831.675039,260.363068 L831.675039,254.68125 L825.998079,254.68125 L825.998079,260.363068 Z M823.727295,262.635795 L833.945823,262.635795 L833.945823,252.408523 L823.727295,252.408523 L823.727295,262.635795 Z M647.746089,210.371023 C647.746089,209.74375 647.237433,209.234659 646.610697,209.234659 C644.292227,209.234659 640.461414,210.372159 638.995623,211.840341 C638.551685,212.283523 638.551685,213.002841 638.995623,213.447159 C639.217025,213.66875 639.507685,213.780114 639.798345,213.780114 C640.089006,213.780114 640.379666,213.66875 640.601067,213.447159 C641.44807,212.600568 644.513628,211.507386 646.610697,211.507386 C647.237433,211.507386 647.746089,210.998295 647.746089,210.371023 L647.746089,210.371023 Z M648.881481,212.64375 C646.56301,212.64375 642.732198,213.78125 641.266407,215.249432 C640.822469,215.692614 640.822469,216.411932 641.266407,216.85625 C641.487808,217.077841 641.778469,217.189205 642.069129,217.189205 C642.359789,217.189205 642.65045,217.077841 642.871851,216.85625 C643.718854,216.009659 646.784412,214.916477 648.881481,214.916477 C649.508217,214.916477 650.016873,214.407386 650.016873,213.780114 C650.016873,213.152841 649.508217,212.64375 648.881481,212.64375 L648.881481,212.64375 Z M617.090507,197.871023 C614.582426,197.871023 612.548939,195.835795 612.548939,193.325568 C612.548939,190.815341 614.582426,188.780114 617.090507,188.780114 C619.598588,188.780114 621.632074,190.815341 621.632074,193.325568 C621.632074,195.835795 619.598588,197.871023 617.090507,197.871023 L617.090507,197.871023 Z M623.902858,193.325568 C623.902858,189.566477 620.847519,186.507386 617.090507,186.507386 C613.33463,186.507386 610.278155,189.566477 610.278155,193.325568 C610.278155,197.084659 613.33463,200.14375 617.090507,200.14375 C620.847519,200.14375 623.902858,197.084659 623.902858,193.325568 L623.902858,193.325568 Z M848.114379,179.853977 C848.113243,179.853977 845.325856,184.765341 844.852398,187.233523 C844.145048,190.921023 844.185922,197.213068 848.608274,198.775568 C849.69825,199.160795 853.816317,200.141477 855.477395,192.886932 C856.682046,187.608523 854.801837,181.277841 854.801837,181.277841 L848.114379,179.853977 Z M854.307941,170.739205 C849.572222,169.478977 848.898934,176.601705 848.898934,176.601705 L855.513728,178.007386 C856.578725,175.310795 857.390531,171.560795 854.307941,170.739205 L854.307941,170.739205 Z M806.930307,62.9892045 L793.310146,49.3573864 C792.866208,48.9130682 792.147504,48.9130682 791.703566,49.3573864 C791.260763,49.8017045 791.260763,50.5198864 791.703566,50.9642045 L805.324863,64.5960227 C805.546265,64.8176136 805.836925,64.9289773 806.127585,64.9289773 C806.41711,64.9289773 806.70777,64.8176136 806.930307,64.5960227 C807.37311,64.1517045 807.37311,63.4323864 806.930307,62.9892045 L806.930307,62.9892045 Z M806.930307,40.2607955 L793.310146,26.6289773 C792.866208,26.1846591 792.147504,26.1846591 791.703566,26.6289773 C791.260763,27.0721591 791.260763,27.7914773 791.703566,28.2357955 L805.324863,41.8676136 C805.546265,42.0892045 805.836925,42.2005682 806.127585,42.2005682 C806.41711,42.2005682 806.70777,42.0892045 806.930307,41.8676136 C807.37311,41.4232955 807.37311,40.7039773 806.930307,40.2607955 L806.930307,40.2607955 Z M755.861514,134.034659 C752.707395,134.528977 753.124084,138.34375 753.902963,141.135795 L760.625618,140.427841 C760.625618,140.427841 760.700554,133.275568 755.861514,134.034659 L755.861514,134.034659 Z M806.930307,51.6244318 L793.310146,37.9926136 C792.866208,37.5482955 792.147504,37.5482955 791.703566,37.9926136 C791.260763,38.4369318 791.260763,39.1551136 791.703566,39.5994318 L805.324863,53.23125 C805.546265,53.4528409 805.836925,53.5642045 806.127585,53.5642045 C806.41711,53.5642045 806.70777,53.4528409 806.930307,53.23125 C807.37311,52.7880682 807.37311,52.06875 806.930307,51.6244318 L806.930307,51.6244318 Z M864.693371,187.434659 C861.539253,187.930114 861.955941,191.74375 862.73482,194.535795 L869.456341,193.828977 C869.456341,193.828977 869.531276,186.675568 864.693371,187.434659 L864.693371,187.434659 Z M793.310146,60.7210227 C792.866208,60.2778409 792.147504,60.2778409 791.703566,60.7210227 C791.260763,61.1653409 791.260763,61.8846591 791.703566,62.3289773 L805.324863,75.9607955 C805.546265,76.1823864 805.836925,76.29375 806.127585,76.29375 C806.41711,76.29375 806.70777,76.1823864 806.930307,75.9607955 C807.37311,75.5164773 807.37311,74.7971591 806.930307,74.3539773 L793.310146,60.7210227 Z M752.383808,155.936932 C753.278497,163.326705 757.476041,162.783523 758.597808,162.514205 C763.162084,161.421023 763.859215,155.16875 763.54017,151.426705 C763.328987,148.921023 761.068421,143.747159 761.068421,143.747159 L754.269694,144.463068 C754.269694,144.463068 751.734364,150.561932 752.383808,155.936932 L752.383808,155.936932 Z M954.531257,128.88125 L927.281851,101.608523 C926.839048,101.165341 926.120345,101.165341 925.676407,101.608523 C925.232469,102.052841 925.232469,102.772159 925.676407,103.215341 L952.925813,130.488068 C953.147215,130.710795 953.437875,130.821023 953.728535,130.821023 C954.019196,130.821023 954.309856,130.710795 954.531257,130.488068 C954.975196,130.044886 954.975196,129.325568 954.531257,128.88125 L954.531257,128.88125 Z M861.215666,209.338068 C862.110355,216.727841 866.307899,216.183523 867.429666,215.914205 C871.992806,214.822159 872.691072,208.56875 872.372027,204.826705 C872.160844,202.322159 869.900279,197.148295 869.900279,197.148295 L863.100417,197.864205 C863.100417,197.864205 860.565086,203.961932 861.215666,209.338068 L861.215666,209.338068 Z M927.281851,112.973295 C926.839048,112.530114 926.120345,112.530114 925.676407,112.973295 C925.232469,113.417614 925.232469,114.136932 925.676407,114.580114 L952.925813,141.852841 C953.147215,142.075568 953.437875,142.185795 953.728535,142.185795 C954.019196,142.185795 954.309856,142.075568 954.531257,141.852841 C954.975196,141.409659 954.975196,140.690341 954.531257,140.246023 L927.281851,112.973295 Z M151.574141,241.044886 L151.574141,302.408523 L132.289509,302.408523 C128.534768,302.408523 125.478293,299.350568 125.477158,295.591477 C125.477158,291.519886 122.166355,288.20625 118.095975,288.20625 L23.2907491,288.222159 C13.2754569,288.222159 5.12674907,280.067614 5.12447829,270.04375 L5.08814575,54.1346591 C5.08701036,49.2789773 6.97516713,44.7119318 10.4063215,41.2778409 C13.8363405,37.8426136 18.3983453,35.9505682 23.2510104,35.9494318 L118.05283,35.9335227 C120.02387,35.9323864 121.87683,35.1642045 123.269956,33.76875 C124.664217,32.3744318 125.431742,30.51875 125.431742,28.5460227 C125.430607,26.7244318 126.139091,25.0130682 127.42549,23.7244318 C128.711889,22.4369318 130.422925,21.7267045 132.241823,21.7267045 L218.562265,21.7267045 L218.562265,101.272159 C218.562265,122.676705 206.955153,144.683523 184.063381,166.677841 C155.267571,194.346023 151.574141,220.955114 151.574141,241.044886 L151.574141,241.044886 Z M223.104968,33.0903409 L315.071713,33.0903409 L315.071713,21.7267045 L223.104968,21.7267045 L223.104968,33.0903409 Z M319.612146,45.5903409 L358.491371,45.5903409 L358.491371,21.7267045 L319.612146,21.7267045 L319.612146,45.5903409 Z M581.889951,12.6357955 C581.889951,12.0085227 582.397471,11.4994318 583.025343,11.4994318 L886.174987,11.4994318 C886.801723,11.4994318 887.310379,12.0085227 887.310379,12.6357955 L887.310379,17.18125 L581.889951,17.18125 L581.889951,12.6357955 Z M594.379262,6.95397727 L600.056222,6.95397727 L600.056222,2.40852273 L594.379262,2.40852273 L594.379262,6.95397727 Z M619.357884,6.95397727 L625.034844,6.95397727 L625.034844,2.40852273 L619.357884,2.40852273 L619.357884,6.95397727 Z M644.336507,6.95397727 L650.013466,6.95397727 L650.013466,2.40852273 L644.336507,2.40852273 L644.336507,6.95397727 Z M669.315129,6.95397727 L674.992089,6.95397727 L674.992089,2.40852273 L669.315129,2.40852273 L669.315129,6.95397727 Z M694.293751,6.95397727 L699.970711,6.95397727 L699.970711,2.40852273 L694.293751,2.40852273 L694.293751,6.95397727 Z M719.272374,6.95397727 L724.949333,6.95397727 L724.949333,2.40852273 L719.272374,2.40852273 L719.272374,6.95397727 Z M744.250996,6.95397727 L749.927956,6.95397727 L749.927956,2.40852273 L744.250996,2.40852273 L744.250996,6.95397727 Z M769.229618,6.95397727 L774.906578,6.95397727 L774.906578,2.40852273 L769.229618,2.40852273 L769.229618,6.95397727 Z M794.208241,6.95397727 L799.8852,6.95397727 L799.8852,2.40852273 L794.208241,2.40852273 L794.208241,6.95397727 Z M819.186863,6.95397727 L824.863823,6.95397727 L824.863823,2.40852273 L819.186863,2.40852273 L819.186863,6.95397727 Z M844.165485,6.95397727 L849.842445,6.95397727 L849.842445,2.40852273 L844.165485,2.40852273 L844.165485,6.95397727 Z M869.144108,6.95397727 L874.821067,6.95397727 L874.821067,2.40852273 L869.144108,2.40852273 L869.144108,6.95397727 Z M181.898189,288.536932 C181.45425,288.092614 180.736683,288.092614 180.292744,288.536932 L156.115709,312.734659 L156.115709,304.583523 L170.543134,290.14375 C170.987072,289.699432 170.987072,288.98125 170.543134,288.536932 C170.100331,288.092614 169.381628,288.092614 168.93769,288.536932 L156.115709,301.369886 L156.115709,293.219886 L159.189215,290.14375 C159.632017,289.699432 159.632017,288.98125 159.189215,288.536932 C158.745276,288.092614 158.026573,288.092614 157.58377,288.536932 L156.115709,290.005114 L156.115709,241.044886 C156.115709,221.85625 159.650184,196.435795 187.208417,169.957386 C211.026668,147.072159 223.103832,123.963068 223.103832,101.272159 L223.103832,37.6357955 L315.070578,37.6357955 L315.070578,46.7267045 C315.070578,48.60625 316.598816,50.1357955 318.476754,50.1357955 L320.043595,50.1357955 L359.959433,90.0857955 C360.18197,90.3073864 360.471495,90.41875 360.762155,90.41875 C361.052816,90.41875 361.343476,90.3073864 361.564877,90.0857955 C362.008816,89.6414773 362.008816,88.9221591 361.564877,88.4789773 L323.254483,50.1357955 L331.397514,50.1357955 L359.959433,78.7210227 C360.18197,78.94375 360.471495,79.0539773 360.762155,79.0539773 C361.052816,79.0539773 361.343476,78.94375 361.564877,78.7210227 C362.008816,78.2778409 362.008816,77.5585227 361.564877,77.1142045 L334.609538,50.1357955 L342.752569,50.1357955 L359.959433,67.3573864 C360.18197,67.5789773 360.471495,67.6903409 360.762155,67.6903409 C361.052816,67.6903409 361.343476,67.5789773 361.564877,67.3573864 C362.008816,66.9130682 362.008816,66.19375 361.564877,65.7505682 L345.963457,50.1357955 L354.106488,50.1357955 L359.959433,55.9926136 C360.18197,56.2153409 360.471495,56.3255682 360.762155,56.3255682 C361.052816,56.3255682 361.343476,56.2153409 361.564877,55.9926136 C362.008816,55.5494318 362.008816,54.8301136 361.564877,54.3857955 L357.318512,50.1357955 L359.626763,50.1357955 C361.504702,50.1357955 363.032939,48.60625 363.032939,46.7267045 L363.032939,21.7267045 L457.347675,21.7267045 L470.09245,34.4823864 C470.313851,34.7039773 470.604512,34.8153409 470.895172,34.8153409 C471.185832,34.8153409 471.476493,34.7039773 471.697894,34.4823864 C472.140697,34.0392045 472.140697,33.3198864 471.697894,32.8755682 L460.558564,21.7267045 L468.701595,21.7267045 L470.09245,23.11875 C470.313851,23.3403409 470.604512,23.4517045 470.895172,23.4517045 C471.185832,23.4517045 471.476493,23.3403409 471.697894,23.11875 C472.07825,22.7380682 472.112312,22.1642045 471.840953,21.7267045 L589.603804,21.7267045 L602.348578,34.4823864 C602.569979,34.7039773 602.86064,34.8153409 603.1513,34.8153409 C603.44196,34.8153409 603.732621,34.7039773 603.954022,34.4823864 C604.39796,34.0392045 604.39796,33.3198864 603.954022,32.8755682 L592.814692,21.7267045 L600.957723,21.7267045 L602.348578,23.11875 C602.569979,23.3403409 602.86064,23.4517045 603.1513,23.4517045 C603.44196,23.4517045 603.732621,23.3403409 603.954022,23.11875 C604.334379,22.7380682 604.36844,22.1642045 604.097082,21.7267045 L697.208303,21.7267045 L705.97807,30.5028409 C706.199471,30.7244318 706.490131,30.8357955 706.780792,30.8357955 C707.070317,30.8357955 707.360977,30.7244318 707.583514,30.5028409 C708.026317,30.0596591 708.026317,29.3403409 707.583514,28.8960227 L700.420326,21.7267045 L796.555096,21.7267045 L805.324863,30.5028409 C805.546265,30.7244318 805.836925,30.8357955 806.127585,30.8357955 C806.41711,30.8357955 806.70777,30.7244318 806.930307,30.5028409 C807.37311,30.0596591 807.37311,29.3403409 806.930307,28.8960227 L799.76712,21.7267045 L916.829433,21.7267045 C926.845861,21.7267045 934.995704,29.8823864 934.995704,39.9085227 L934.995704,42.18125 L926.479129,42.18125 C925.225656,42.18125 924.208345,43.1994318 924.208345,44.4539773 C924.208345,45.5210227 924.94635,46.4096591 925.936412,46.6539773 L952.925813,73.6676136 C953.147215,73.8892045 953.437875,74.0005682 953.728535,74.0005682 C954.019196,74.0005682 954.309856,73.8892045 954.531257,73.6676136 C954.975196,73.2232955 954.975196,72.5039773 954.531257,72.0596591 L929.219965,46.7267045 L937.362996,46.7267045 L952.925813,62.3028409 C953.147215,62.5244318 953.437875,62.6357955 953.728535,62.6357955 C954.019196,62.6357955 954.309856,62.5244318 954.531257,62.3028409 C954.975196,61.8585227 954.975196,61.1403409 954.531257,60.6960227 L940.573884,46.7267045 L948.718051,46.7267045 L952.925813,50.9380682 C953.147215,51.1596591 953.437875,51.2710227 953.728535,51.2710227 C954.019196,51.2710227 954.309856,51.1596591 954.531257,50.9380682 C954.975196,50.49375 954.975196,49.7755682 954.531257,49.33125 L951.928939,46.7267045 L953.728535,46.7267045 C954.983143,46.7267045 955.999319,45.7096591 955.999319,44.4539773 C955.999319,43.1994318 954.983143,42.18125 953.728535,42.18125 L939.537272,42.18125 L939.537272,39.9085227 C939.537272,27.35625 929.369837,17.18125 916.829433,17.18125 L891.851946,17.18125 L891.851946,12.6357955 C891.851946,9.50284091 889.305262,6.95397727 886.174987,6.95397727 L877.091851,6.95397727 L877.091851,0.135795455 L866.873324,0.135795455 L866.873324,6.95397727 L852.113229,6.95397727 L852.113229,0.135795455 L841.894702,0.135795455 L841.894702,6.95397727 L827.134607,6.95397727 L827.134607,0.135795455 L816.916079,0.135795455 L816.916079,6.95397727 L802.155984,6.95397727 L802.155984,0.135795455 L791.937457,0.135795455 L791.937457,6.95397727 L777.177362,6.95397727 L777.177362,0.135795455 L766.958835,0.135795455 L766.958835,6.95397727 L752.19874,6.95397727 L752.19874,0.135795455 L741.980212,0.135795455 L741.980212,6.95397727 L727.220117,6.95397727 L727.220117,0.135795455 L717.00159,0.135795455 L717.00159,6.95397727 L702.241495,6.95397727 L702.241495,0.135795455 L692.022968,0.135795455 L692.022968,6.95397727 L677.262873,6.95397727 L677.262873,0.135795455 L667.044345,0.135795455 L667.044345,6.95397727 L652.28425,6.95397727 L652.28425,0.135795455 L642.065723,0.135795455 L642.065723,6.95397727 L627.305628,6.95397727 L627.305628,0.135795455 L617.087101,0.135795455 L617.087101,6.95397727 L602.327006,6.95397727 L602.327006,0.135795455 L592.108478,0.135795455 L592.108478,6.95397727 L583.025343,6.95397727 C579.895067,6.95397727 577.348383,9.50284091 577.348383,12.6357955 L577.348383,17.18125 L363.032939,17.18125 L363.032939,17.18125 L315.070578,17.18125 L315.070578,17.18125 L218.5634,17.18125 L132.241823,17.18125 C125.971053,17.1823864 120.889039,22.2710227 120.890174,28.5460227 C120.890174,30.1153409 119.619671,31.3880682 118.051694,31.3880682 L23.249875,31.4039773 C10.7083358,31.40625 0.544307269,41.5835227 0.546578053,54.1357955 L0.582910594,270.044886 C0.585181378,282.594886 10.7514807,292.767614 23.2907491,292.767614 L23.2952906,292.767614 L118.09711,292.751705 L118.09711,292.751705 C119.665086,292.751705 120.93559,294.023295 120.93559,295.591477 C120.936725,301.866477 126.019875,306.953977 132.289509,306.953977 L151.574141,306.953977 L151.574141,316.613068 C151.574141,317.86875 152.591452,318.885795 153.844925,318.885795 C155.099533,318.885795 156.115709,317.86875 156.115709,316.613068 L156.115709,315.948295 L181.898189,290.14375 C182.342127,289.699432 182.342127,288.98125 181.898189,288.536932 L181.898189,288.536932 Z M954.531257,83.4244318 L927.281851,56.1517045 C926.839048,55.7073864 926.120345,55.7073864 925.676407,56.1517045 C925.232469,56.5960227 925.232469,57.3142045 925.676407,57.7585227 L952.925813,85.03125 C953.147215,85.2528409 953.437875,85.3642045 953.728535,85.3642045 C954.019196,85.3642045 954.309856,85.2528409 954.531257,85.03125 C954.975196,84.5869318 954.975196,83.86875 954.531257,83.4244318 L954.531257,83.4244318 Z M954.531257,117.517614 L927.281851,90.2448864 C926.839048,89.8005682 926.120345,89.8005682 925.676407,90.2448864 C925.232469,90.6892045 925.232469,91.4073864 925.676407,91.8517045 L952.925813,119.124432 C953.147215,119.346023 953.437875,119.457386 953.728535,119.457386 C954.019196,119.457386 954.309856,119.346023 954.531257,119.124432 C954.975196,118.680114 954.975196,117.961932 954.531257,117.517614 L954.531257,117.517614 Z M954.531257,106.152841 L927.281851,78.8801136 C926.839048,78.4369318 926.120345,78.4369318 925.676407,78.8801136 C925.232469,79.3244318 925.232469,80.04375 925.676407,80.4880682 L952.925813,107.760795 C953.147215,107.982386 953.437875,108.092614 953.728535,108.092614 C954.019196,108.092614 954.309856,107.982386 954.531257,107.760795 C954.975196,107.316477 954.975196,106.597159 954.531257,106.152841 L954.531257,106.152841 Z M954.531257,94.7892045 L927.281851,67.5164773 C926.839048,67.0721591 926.120345,67.0721591 925.676407,67.5164773 C925.232469,67.9607955 925.232469,68.6789773 925.676407,69.1232955 L952.925813,96.3960227 C953.147215,96.6176136 953.437875,96.7289773 953.728535,96.7289773 C954.019196,96.7289773 954.309856,96.6176136 954.531257,96.3960227 C954.975196,95.9517045 954.975196,95.2335227 954.531257,94.7892045 L954.531257,94.7892045 Z M452.396231,47.6505682 C451.952293,47.20625 451.23359,47.20625 450.790787,47.6505682 C450.346849,48.0948864 450.346849,48.8130682 450.790787,49.2573864 L470.09245,68.5755682 C470.313851,68.7971591 470.604512,68.9085227 470.895172,68.9085227 C471.185832,68.9085227 471.476493,68.7971591 471.697894,68.5755682 C472.140697,68.13125 472.140697,67.4130682 471.697894,66.96875 L452.396231,47.6505682 Z M530.52255,182.064205 C531.417238,189.453977 535.613647,188.910795 536.73655,188.640341 C541.29969,187.548295 541.99682,181.294886 541.678911,177.552841 C541.467728,175.048295 539.207162,169.874432 539.206027,169.874432 L532.4073,170.590341 C532.4073,170.590341 529.873105,176.688068 530.52255,182.064205 L530.52255,182.064205 Z M603.954022,44.2403409 L584.65236,24.9221591 C584.209557,24.4778409 583.490854,24.4778409 583.046915,24.9221591 C582.602977,25.3653409 582.602977,26.0846591 583.046915,26.5289773 L602.348578,45.8471591 C602.569979,46.06875 602.86064,46.1801136 603.1513,46.1801136 C603.44196,46.1801136 603.732621,46.06875 603.954022,45.8471591 C604.39796,45.4028409 604.39796,44.6835227 603.954022,44.2403409 L603.954022,44.2403409 Z M603.954022,55.6039773 L584.65236,36.2857955 C584.209557,35.8414773 583.490854,35.8414773 583.046915,36.2857955 C582.602977,36.7301136 582.602977,37.4482955 583.046915,37.8926136 L602.348578,57.2107955 C602.569979,57.4323864 602.86064,57.54375 603.1513,57.54375 C603.44196,57.54375 603.732621,57.4323864 603.954022,57.2107955 C604.39796,56.7664773 604.39796,56.0482955 603.954022,55.6039773 L603.954022,55.6039773 Z M533.99912,160.160795 C530.846136,160.65625 531.26169,164.471023 532.041704,167.261932 L538.763224,166.555114 C538.763224,166.555114 538.83816,159.402841 533.99912,160.160795 L533.99912,160.160795 Z M584.65236,47.6505682 C584.209557,47.20625 583.490854,47.20625 583.046915,47.6505682 C582.602977,48.0948864 582.602977,48.8130682 583.046915,49.2573864 L602.348578,68.5755682 C602.569979,68.7971591 602.86064,68.9085227 603.1513,68.9085227 C603.44196,68.9085227 603.732621,68.7971591 603.954022,68.5755682 C604.39796,68.13125 604.39796,67.4130682 603.954022,66.96875 L584.65236,47.6505682 Z M745.476084,117.339205 C740.740364,116.078977 740.068212,123.200568 740.068212,123.200568 L746.68187,124.607386 C747.746868,121.910795 748.558673,118.159659 745.476084,117.339205 L745.476084,117.339205 Z M471.697894,55.6039773 L452.396231,36.2857955 C451.952293,35.8414773 451.23359,35.8414773 450.790787,36.2857955 C450.346849,36.7301136 450.346849,37.4482955 450.790787,37.8926136 L470.09245,57.2107955 C470.313851,57.4323864 470.604512,57.54375 470.895172,57.54375 C471.185832,57.54375 471.476493,57.4323864 471.697894,57.2107955 C472.140697,56.7664773 472.140697,56.0482955 471.697894,55.6039773 L471.697894,55.6039773 Z M523.61369,143.465341 C518.879105,142.20625 518.206953,149.327841 518.206953,149.327841 L524.819476,150.733523 C525.885609,148.038068 526.697414,144.288068 523.61369,143.465341 L523.61369,143.465341 Z M517.421262,152.580114 C517.420127,152.58125 514.63274,157.492614 514.158146,159.959659 C513.450797,163.647159 513.491671,169.940341 517.915158,171.501705 C519.005134,171.888068 523.1232,172.86875 524.784279,165.613068 C525.98893,160.334659 524.108721,154.003977 524.108721,154.003977 L517.421262,152.580114 Z M707.583514,40.2607955 L693.963352,26.6289773 C693.519414,26.1846591 692.800711,26.1846591 692.356773,26.6289773 C691.91397,27.0721591 691.91397,27.7914773 692.356773,28.2357955 L705.97807,41.8676136 C706.199471,42.0892045 706.490131,42.2005682 706.780792,42.2005682 C707.070317,42.2005682 707.360977,42.0892045 707.583514,41.8676136 C708.026317,41.4232955 708.026317,40.7039773 707.583514,40.2607955 L707.583514,40.2607955 Z M655.784664,136.30625 C652.63168,136.801705 653.047234,140.616477 653.827248,143.407386 L660.548768,142.700568 C660.548768,142.700568 660.623704,135.548295 655.784664,136.30625 L655.784664,136.30625 Z M639.206806,128.725568 C639.205671,128.726705 636.418284,133.636932 635.94369,136.103977 C635.236341,139.792614 635.27835,146.085795 639.700702,147.647159 C640.790678,148.032386 644.907609,149.014205 646.569823,141.758523 C647.773338,136.480114 645.894265,130.149432 645.894265,130.149432 L639.206806,128.725568 Z M707.583514,51.6244318 L693.963352,37.9926136 C693.519414,37.5482955 692.800711,37.5482955 692.356773,37.9926136 C691.91397,38.4369318 691.91397,39.1551136 692.356773,39.5994318 L705.97807,53.23125 C706.199471,53.4528409 706.490131,53.5642045 706.780792,53.5642045 C707.070317,53.5642045 707.360977,53.4528409 707.583514,53.23125 C708.026317,52.7880682 708.026317,52.06875 707.583514,51.6244318 L707.583514,51.6244318 Z M652.308093,158.209659 C653.202782,165.598295 657.399191,165.055114 658.522093,164.785795 C663.085234,163.69375 663.782364,157.440341 663.464455,153.698295 C663.252136,151.19375 660.991571,146.019886 660.991571,146.019886 L654.192844,146.735795 C654.192844,146.735795 651.657514,152.833523 652.308093,158.209659 L652.308093,158.209659 Z M739.283656,126.453977 C739.283656,126.453977 736.495134,131.364205 736.02054,133.832386 C735.313191,137.519886 735.354065,143.813068 739.776417,145.375568 C740.866393,145.760795 744.984459,146.741477 746.645538,139.485795 C747.850189,134.207386 745.969979,127.877841 745.969979,127.877841 L739.283656,126.453977 Z M645.399234,119.610795 C640.664649,118.351705 639.991362,125.473295 639.991362,125.473295 L646.60502,126.878977 C647.671153,124.183523 648.481823,120.432386 645.399234,119.610795 L645.399234,119.610795 Z M693.963352,60.7210227 C693.519414,60.2778409 692.800711,60.2778409 692.356773,60.7210227 C691.91397,61.1653409 691.91397,61.8846591 692.356773,62.3289773 L705.97807,75.9607955 C706.199471,76.1823864 706.490131,76.29375 706.780792,76.29375 C707.070317,76.29375 707.360977,76.1823864 707.583514,75.9607955 C708.026317,75.5164773 708.026317,74.7971591 707.583514,74.3539773 L693.963352,60.7210227 Z M707.583514,62.9892045 L693.963352,49.3573864 C693.519414,48.9130682 692.800711,48.9130682 692.356773,49.3573864 C691.91397,49.8017045 691.91397,50.5198864 692.356773,50.9642045 L705.97807,64.5960227 C706.199471,64.8176136 706.490131,64.9289773 706.780792,64.9289773 C707.070317,64.9289773 707.360977,64.8176136 707.583514,64.5960227 C708.026317,64.1517045 708.026317,63.4323864 707.583514,62.9892045 L707.583514,62.9892045 Z" id="parcours" transform="translate(478.272948, 162.067614) scale(-1, 1) translate(-478.272948, -162.067614) "></path>
                </g>
            </g>
        </g>
    </g>
</svg>