<?xml version="1.0" encoding="utf-8"?>
<!-- Generator: Adobe Illustrator 21.0.0, SVG Export Plug-In . SVG Version: 6.00 Build 0)  -->
<svg version="1.1" id="Calque_1" xmlns="http://www.w3.org/2000/svg" xmlns:xlink="http://www.w3.org/1999/xlink" x="0px" y="0px"
	 viewBox="0 0 956 324" style="enable-background:new 0 0 956 324;" xml:space="preserve">
<style type="text/css">
	.st0{opacity:0.4;fill:#FFFFFF;enable-background:new    ;}
	.st1{fill:#FFFFFF;}
</style>
<title>illus-parcours</title>
<desc>Created with Sketch.</desc>
<g id="_x30_1_x5F_website">
	<g id="ftf-website" transform="translate(-750.000000, -3700.000000)">
		<g id="Parcours-narratif" transform="translate(270.000000, 3690.000000)">
			<g id="illus-parcours" transform="translate(480.000000, 10.000000)">
				<path id="parcours-opacity" class="st0" d="M34,150.1c6.3,0,11.4,5.1,11.4,11.4v76.1c0,28.9,23.4,52.3,52.2,52.3
					c28.8,0,52.2-23.4,52.2-52.3V80.8c0-0.6,0.5-1.1,1.1-1.1h11.9c0.6,0,1.1,0.5,1.1,1.1v107.1c0,23.7,19.2,42.9,42.9,42.9
					c23.7,0,42.9-19.2,42.9-42.9V80.8c0-0.6,0.5-1.1,1.1-1.1h11.4c0.6,0,1.1,0.5,1.1,1.1v104.5c0,25.1,20.3,45.5,45.4,45.5
					s45.4-20.4,45.4-45.5V80.8c0-0.6,0.5-1.1,1.1-1.1h15.4c0.6,0,1.1,0.5,1.1,1.1v118c0,31.4,25.5,56.9,56.9,56.9
					c31.4,0,56.9-25.5,56.9-56.9v-118c0-0.6,0.5-1.1,1.1-1.1h17c0.6,0,1.1,0.5,1.1,1.1v155.7c0,25.1,20.3,45.5,45.4,45.5l0,0
					c25.1,0,45.4-20.4,45.4-45.5V114.9c0-0.6,0.5-1.1,1.1-1.1h41.1c0.6,0,1.1,0.5,1.1,1.1v192H39.7C27.2,307,17,296.8,17,284.2
					V150.1H34z M596.9,50.1c-1.9,0-3.4-1.5-3.4-3.4V17.2h48v29.5c0,1.9-1.5,3.4-3.4,3.4H596.9z"/>
				<path id="parcours" class="st1" d="M683.8,288.5c0.4-0.4,1.2-0.4,1.6,0l27.2,27.3c0.4,0.4,0.4,1.2,0,1.6
					c-0.2,0.2-0.5,0.3-0.8,0.3s-0.6-0.1-0.8-0.3l-27.2-27.3C683.4,289.7,683.4,289,683.8,288.5L683.8,288.5z M695.2,288.5
					c0.4-0.4,1.2-0.4,1.6,0l27.2,27.3c0.4,0.4,0.4,1.2,0,1.6c-0.2,0.2-0.5,0.3-0.8,0.3c-0.3,0-0.6-0.1-0.8-0.3l-27.2-27.3
					C694.7,289.7,694.7,289,695.2,288.5L695.2,288.5z M717.9,288.5c0.4-0.4,1.2-0.4,1.6,0l27.2,27.3c0.4,0.4,0.4,1.2,0,1.6
					c-0.2,0.2-0.5,0.3-0.8,0.3c-0.3,0-0.6-0.1-0.8-0.3l-27.2-27.3C717.4,289.7,717.4,289,717.9,288.5L717.9,288.5z M672.5,288.5
					c0.4-0.4,1.2-0.4,1.6,0l27.2,27.3c0.4,0.4,0.4,1.2,0,1.6c-0.2,0.2-0.5,0.3-0.8,0.3c-0.3,0-0.6-0.1-0.8-0.3l-27.2-27.3
					C672,289.7,672,289,672.5,288.5L672.5,288.5z M706.5,288.5c0.4-0.4,1.2-0.4,1.6,0l27.2,27.3c0.4,0.4,0.4,1.2,0,1.6
					c-0.2,0.2-0.5,0.3-0.8,0.3c-0.3,0-0.6-0.1-0.8-0.3l-27.2-27.3C706.1,289.7,706.1,289,706.5,288.5L706.5,288.5z M95.4,278.5
					c0.6,0,1.1,0.5,1.1,1.1c0,0.6-0.5,1.1-1.1,1.1c-0.6,0-1.1-0.5-1.1-1.1C94.2,279.1,94.7,278.5,95.4,278.5L95.4,278.5z
					 M661.1,288.5c0.4-0.4,1.2-0.4,1.6,0l27.2,27.3c0.4,0.4,0.4,1.2,0,1.6c-0.2,0.2-0.5,0.3-0.8,0.3s-0.6-0.1-0.8-0.3l-27.2-27.3
					C660.7,289.7,660.7,289,661.1,288.5L661.1,288.5z M72.6,246.7h-2.3v13.6c0,0.6-0.5,1.1-1.1,1.1c-0.6,0-1.1-0.5-1.1-1.1v-13.6
					h-2.3c-0.6,0-1.1-0.5-1.1-1.1s0.5-1.1,1.1-1.1h2.3v-2.3c0-0.6,0.5-1.1,1.1-1.1c0.6,0,1.1,0.5,1.1,1.1v2.3h2.3
					c0.6,0,1.1,0.5,1.1,1.1S73.3,246.7,72.6,246.7L72.6,246.7z M82.9,257h-2.3v3.4c0,0.6-0.5,1.1-1.1,1.1c-0.6,0-1.1-0.5-1.1-1.1
					V257H76c-0.6,0-1.1-0.5-1.1-1.1s0.5-1.1,1.1-1.1h2.3v-12.5c0-0.6,0.5-1.1,1.1-1.1c0.6,0,1.1,0.5,1.1,1.1v12.5h2.3
					c0.6,0,1.1,0.5,1.1,1.1S83.5,257,82.9,257L82.9,257z M649.7,288.5c0.4-0.4,1.2-0.4,1.6,0l27.2,27.3c0.4,0.4,0.4,1.2,0,1.6
					c-0.2,0.2-0.5,0.3-0.8,0.3c-0.3,0-0.6-0.1-0.8-0.3l-27.2-27.3C649.3,289.7,649.3,289,649.7,288.5L649.7,288.5z M729.2,288.5
					c0.4-0.4,1.2-0.4,1.6,0l27.2,27.3c0.4,0.4,0.4,1.2,0,1.6c-0.2,0.2-0.5,0.3-0.8,0.3c-0.3,0-0.6-0.1-0.8-0.3l-27.2-27.3
					C728.8,289.7,728.8,289,729.2,288.5L729.2,288.5z M101,278.5c0.6,0,1.1,0.5,1.1,1.1c0,0.6-0.5,1.1-1.1,1.1
					c-0.6,0-1.1-0.5-1.1-1.1C99.9,279.1,100.4,278.5,101,278.5L101,278.5z M547.6,208.2c-0.9,7.4-5.1,6.8-6.2,6.6
					c-4.6-1.1-5.3-7.3-4.9-11.1c0.2-2.5,2.5-7.7,2.5-7.7l6.8,0.7C545.7,196.7,548.3,202.8,547.6,208.2L547.6,208.2z M554.5,169.6
					c4.7-1.3,5.4,5.9,5.4,5.9l-6.6,1.4C552.3,174.2,551.5,170.4,554.5,169.6L554.5,169.6z M560.7,178.7c0,0,2.8,4.9,3.3,7.4
					c0.7,3.7,0.7,10-3.8,11.5c-1.1,0.4-5.2,1.4-6.9-5.9c-1.2-5.3,0.7-11.6,0.7-11.6L560.7,178.7z M93.1,251.3h-2.3v9.1
					c0,0.6-0.5,1.1-1.1,1.1c-0.6,0-1.1-0.5-1.1-1.1v-9.1h-2.3c-0.6,0-1.1-0.5-1.1-1.1c0-0.6,0.5-1.1,1.1-1.1h2.3v-6.8
					c0-0.6,0.5-1.1,1.1-1.1c0.6,0,1.1,0.5,1.1,1.1v6.8h2.3c0.6,0,1.1,0.5,1.1,1.1C94.2,250.8,93.7,251.3,93.1,251.3L93.1,251.3z
					 M638.4,56.4c0.4-0.4,1.2-0.4,1.6,0c0.4,0.4,0.4,1.2,0,1.6l-43.4,43.5c-0.2,0.2-0.5,0.3-0.8,0.3c-0.3,0-0.6-0.1-0.8-0.3
					c-0.4-0.4-0.4-1.2,0-1.6L638.4,56.4z M544.2,186.3c3.2,0.5,2.7,4.3,2,7.1l-6.7-0.7C539.4,192.7,539.3,185.5,544.2,186.3
					L544.2,186.3z M693.7,86.7c-3.2-0.5-2.7-4.3-2-7.1l6.7,0.7C698.4,80.3,698.5,87.5,693.7,86.7L693.7,86.7z M751.9,288.5
					c0.4-0.4,1.2-0.4,1.6,0l27.2,27.3c0.4,0.4,0.4,1.2,0,1.6c-0.2,0.2-0.5,0.3-0.8,0.3s-0.6-0.1-0.8-0.3l-27.2-27.3
					C751.5,289.7,751.5,289,751.9,288.5L751.9,288.5z M763.3,288.5c0.4-0.4,1.2-0.4,1.6,0l27.2,27.3c0.4,0.4,0.4,1.2,0,1.6
					c-0.2,0.2-0.5,0.3-0.8,0.3c-0.3,0-0.6-0.1-0.8-0.3l-27.2-27.3C762.8,289.7,762.8,289,763.3,288.5L763.3,288.5z M673.8,86.9
					c-0.7-3.7-0.7-10,3.8-11.5c1.1-0.4,5.2-1.4,6.9,5.9c1.2,5.3-0.7,11.6-0.7,11.6l-6.7,1.4C677.1,94.3,674.3,89.4,673.8,86.9
					L673.8,86.9z M683.3,103.4c-4.7,1.3-5.4-5.9-5.4-5.9l6.6-1.4C685.6,98.8,686.4,102.6,683.3,103.4L683.3,103.4z M690.2,64.8
					c0.9-7.4,5.1-6.8,6.2-6.6c4.6,1.1,5.3,7.3,4.9,11.1c-0.2,2.5-2.5,7.7-2.5,7.7l-6.8-0.7C692.1,76.3,689.5,70.2,690.2,64.8
					L690.2,64.8z M740.6,288.5c0.4-0.4,1.2-0.4,1.6,0l27.2,27.3c0.4,0.4,0.4,1.2,0,1.6c-0.2,0.2-0.5,0.3-0.8,0.3
					c-0.3,0-0.6-0.1-0.8-0.3l-27.2-27.3C740.1,289.7,740.1,289,740.6,288.5L740.6,288.5z M118.1,247.9h-5.7v-5.7h5.7V247.9z
					 M120.3,250.1h-10.2v-10.2h10.2V250.1z M334.3,203c0,1.8-1.2,3.3-2.8,3.8v6.6c0,1.9-1.5,3.4-3.4,3.4c-1.9,0-3.4-1.5-3.4-3.4
					v-6.6c-1.6-0.5-2.8-2-2.8-3.8c0-0.6,0.5-1.1,1.1-1.1c0.6,0,1.1,0.5,1.1,1.1c0,0.9,0.8,1.7,1.7,1.7h1.1v8.7
					c0,0.6,0.5,1.1,1.1,1.1c0.6,0,1.1-0.5,1.1-1.1v-8.7h1.1c0.9,0,1.7-0.8,1.7-1.7c0-0.6,0.5-1.1,1.1-1.1
					C333.8,201.8,334.3,202.4,334.3,203L334.3,203z M415.1,220.5c-3.1,0-5.7,2.5-5.7,5.7c0,3.1,2.5,5.7,5.7,5.7
					c3.1,0,5.7-2.6,5.7-5.7C420.8,223,418.3,220.5,415.1,220.5L415.1,220.5z M415.1,234.1c-4.4,0-7.9-3.6-7.9-8c0-4.4,3.6-8,7.9-8
					c4.4,0,7.9,3.6,7.9,8C423.1,230.5,419.5,234.1,415.1,234.1L415.1,234.1z M339.5,192.2c0.6,0,1.1,0.5,1.1,1.1s-0.5,1.1-1.1,1.1
					c-0.6,0-1.1-0.5-1.1-1.1S338.8,192.2,339.5,192.2L339.5,192.2z M273.6,200.1h37.5v-13.6h-23.8v13.6H285v-13.6h-11.4V200.1z
					 M313.3,202.4h-42v-18.2h42V202.4z M321.9,190.5c-1.6,0-2.8,1.3-2.8,2.8c0,1.6,1.3,2.8,2.8,2.8c1.6,0,2.8-1.3,2.8-2.8
					C324.7,191.8,323.4,190.5,321.9,190.5L321.9,190.5z M321.9,198.4c-2.8,0-5.1-2.3-5.1-5.1c0-2.8,2.3-5.1,5.1-5.1s5.1,2.3,5.1,5.1
					C327,196.1,324.7,198.4,321.9,198.4L321.9,198.4z M21.6,284.2c0,10,8.1,18.2,18.2,18.2h597.2V116.1h-38.9v120.4
					c0,26.3-21.4,47.7-47.7,47.7c-26.3,0-47.7-21.4-47.7-47.7V82h-14.8v116.9c0,32.6-26.5,59.2-59.2,59.2
					c-32.6,0-59.2-26.6-59.2-59.2V82h-13.1v103.4c0,26.3-21.4,47.7-47.7,47.7c-26.3,0-47.7-21.4-47.7-47.7V82H252v105.9
					c0,24.9-20.2,45.2-45.1,45.2s-45.1-20.3-45.1-45.2V82h-9.6v155.6c0,30.1-24.4,54.5-54.5,54.5s-54.5-24.5-54.5-54.5v-76.1
					c0-5-4.1-9.1-9.1-9.1H21.6V284.2z M163.5,311.4c0,0.6,0.5,1.1,1.1,1.1h327c0.6,0,1.1-0.5,1.1-1.1V307H163.5V311.4z M346.3,319.5
					h-36.3v-2.3h36.3V319.5z M593.5,229.7h-86.3v6.8c0,23.8,19.4,43.2,43.1,43.2c23.8,0,43.1-19.4,43.1-43.2V229.7z M374.4,203.5
					c2.4,28,25.9,50,54.4,50c28.5,0,52-22,54.4-50H374.4z M351.9,179.7h-86.3v5.7c0,23.8,19.4,43.2,43.1,43.2s43.1-19.4,43.1-43.2
					V179.7z M247.5,179.7h-12.2V207h-56.8v-27.3h-12.2v8.2c0,22.4,18.2,40.6,40.6,40.6s40.6-18.2,40.6-40.6V179.7z M147.6,233.1
					H47.7v4.5c0,27.6,22.4,50,50,50c27.5,0,50-22.4,50-50V233.1z M2.8,147.9h2.9l23.5-23.5c0.4-0.4,1.2-0.4,1.6,0
					c0.4,0.4,0.4,1.2,0,1.6L9,147.9h8.1l12.2-12.2c0.4-0.4,1.2-0.4,1.6,0c0.4,0.4,0.4,1.2,0,1.6l-10.5,10.6h8.1l0.8-0.8
					c0.4-0.4,1.2-0.4,1.6,0c0.2,0.2,0.3,0.5,0.3,0.8H34c7.5,0,13.6,6.1,13.6,13.6v67h99.9V80.8c0-1.9,1.5-3.4,3.4-3.4h6.9l5.3-5.3
					c0.4-0.4,1.2-0.4,1.6,0c0.4,0.4,0.4,1.2,0,1.6l-3.7,3.7h1.8c1.9,0,3.4,1.5,3.4,3.4v94.3h81.2V80.8c0-1.9,1.5-3.4,3.4-3.4h6.3
					l5.3-5.3c0.4-0.4,1.2-0.4,1.6,0c0.4,0.4,0.4,1.2,0,1.6l-3.7,3.7h1.8c1.9,0,3.4,1.5,3.4,3.4v94.3h86.3V80.8c0-0.5,0.1-1,0.4-1.5
					c-0.1-0.4,0-0.7,0.3-1L371.9,59c0.4-0.4,1.2-0.4,1.6,0c0.4,0.4,0.4,1.2,0,1.6l-16.8,16.8h8.1l7-7.1c0.4-0.4,1.2-0.4,1.6,0
					c0.4,0.4,0.4,1.2,0,1.6l-5.4,5.4h2.7c1.9,0,3.4,1.5,3.4,3.4v118c0,0,0,0.1,0,0.1h109.2c0,0,0-0.1,0-0.1v-118
					c0-1.4,0.9-2.6,2.1-3.1L504.1,59c0.4-0.4,1.2-0.4,1.6,0c0.4,0.4,0.4,1.2,0,1.6L489,77.4h8.1l7-7.1c0.4-0.4,1.2-0.4,1.6,0
					c0.4,0.4,0.4,1.2,0,1.6l-5.4,5.4h3.5c1.9,0,3.4,1.5,3.4,3.4v144.3h86.3V114.9c0-1,0.5-2,1.2-2.6c-0.1-0.4,0-0.8,0.3-1.1
					l43.4-43.5c0.4-0.4,1.2-0.4,1.6,0c0.4,0.4,0.4,1.2,0,1.6l-42.1,42.2h8.1l32.4-32.4c0.4-0.4,1.2-0.4,1.6,0c0.4,0.4,0.4,1.2,0,1.6
					l-30.8,30.8h8.1l21-21c0.4-0.4,1.2-0.4,1.6,0c0.4,0.4,0.4,1.2,0,1.6l-19.4,19.4h8.1l9.7-9.7c0.4-0.4,1.2-0.4,1.6,0
					c0.4,0.4,0.4,1.2,0,1.6l-8.1,8.1h6.1c1.9,0,3.4,1.5,3.4,3.4V290l25.8,25.8c0.4,0.4,0.4,1.2,0,1.6c-0.2,0.2-0.5,0.3-0.8,0.3
					c-0.3,0-0.6-0.1-0.8-0.3l-24.2-24.2v8.2l14.4,14.4c0.4,0.4,0.4,1.2,0,1.6c-0.2,0.2-0.5,0.3-0.8,0.3c-0.3,0-0.6-0.1-0.8-0.3
					l-12.8-12.8v8.2l3.1,3.1c0.4,0.4,0.4,1.2,0,1.6c-0.2,0.2-0.5,0.3-0.8,0.3s-0.6-0.1-0.8-0.3l-1.5-1.5v0.7c0,1.3-1,2.3-2.3,2.3
					c-1.3,0-2.3-1-2.3-2.3V307H497.3v4.4c0,3.1-2.5,5.7-5.7,5.7H350.8v5.8c0,0.6-0.5,1.1-1.1,1.1h-43.1c-0.6,0-1.1-0.5-1.1-1.1V317
					H164.6c-3.1,0-5.7-2.5-5.7-5.7V307H39.7C27.2,307,17,296.8,17,284.2V152.4H2.8c-1.3,0-2.3-1-2.3-2.3
					C0.5,148.9,1.6,147.9,2.8,147.9L2.8,147.9z M442.4,233.9c-4.4,0-7.9-3.6-7.9-8c0-4.4,3.6-8,7.9-8c4.4,0,7.9,3.6,7.9,8
					C450.3,230.3,446.8,233.9,442.4,233.9L442.4,233.9z M579.9,255.8h-59v-4.5h59V255.8z M582.2,258.1h-63.6V249h63.6V258.1z
					 M281.6,196.7c-0.6,0-1.1-0.5-1.1-1.1s0.5-1.1,1.1-1.1c0.6,0,1.1,0.5,1.1,1.1S282.2,196.7,281.6,196.7L281.6,196.7z M95.4,272.3
					c0,1.6,1.3,2.8,2.8,2.8c1.6,0,2.8-1.3,2.8-2.8s-1.3-2.8-2.8-2.8C96.6,269.5,95.4,270.7,95.4,272.3L95.4,272.3z M103.3,272.3
					c0,2.8-2.3,5.1-5.1,5.1c-2.8,0-5.1-2.3-5.1-5.1c0-2.8,2.3-5.1,5.1-5.1C101,267.2,103.3,269.5,103.3,272.3L103.3,272.3z
					 M557.2,242.2h-13.6v-2.3h13.6V242.2z M559.5,244.5h-18.2v-6.8h18.2V244.5z M579.9,242.2h-13.6v-2.3h13.6V242.2z M582.2,244.5
					H564v-6.8h18.2V244.5z M534.5,242.2h-13.6v-2.3h13.6V242.2z M536.7,244.5h-18.2v-6.8h18.2V244.5z M118.1,260.4h-5.7v-5.7h5.7
					V260.4z M120.3,262.6h-10.2v-10.2h10.2V262.6z M484.8,44.2l19.3-19.3c0.4-0.4,1.2-0.4,1.6,0c0.4,0.4,0.4,1.2,0,1.6l-19.3,19.3
					c-0.2,0.2-0.5,0.3-0.8,0.3s-0.6-0.1-0.8-0.3C484.4,45.4,484.4,44.7,484.8,44.2L484.8,44.2z M105.6,247.9h-5.7v-5.7h5.7V247.9z
					 M107.8,250.1H97.6v-10.2h10.2V250.1z M105.6,260.4h-5.7v-5.7h5.7V260.4z M107.8,262.6H97.6v-10.2h10.2V262.6z M130.5,247.9
					h-5.7v-5.7h5.7V247.9z M132.8,250.1h-10.2v-10.2h10.2V250.1z M281.6,192.2c-0.6,0-1.1-0.5-1.1-1.1s0.5-1.1,1.1-1.1
					c0.6,0,1.1,0.5,1.1,1.1S282.2,192.2,281.6,192.2L281.6,192.2z M277,196.7c-0.6,0-1.1-0.5-1.1-1.1s0.5-1.1,1.1-1.1
					c0.6,0,1.1,0.5,1.1,1.1S277.6,196.7,277,196.7L277,196.7z M277,192.2c-0.6,0-1.1-0.5-1.1-1.1s0.5-1.1,1.1-1.1
					c0.6,0,1.1,0.5,1.1,1.1S277.6,192.2,277,192.2L277,192.2z M288.4,210.5c0.3,0.1,1.3,0,2,0c0.6,0,1.3-0.1,2-0.1
					c0.7,0,1.4,0,2,0.1c0.7,0,1.6,0.1,2,0c0,0,0-0.1,0-0.1c0,0,0-0.1,0-0.1c-0.3-0.1-1.3,0-2,0c-1.2,0.1-2.7,0.1-4,0
					c-0.7,0-1.7-0.1-2,0C288.4,210.3,288.4,210.3,288.4,210.5C288.4,210.4,288.4,210.4,288.4,210.5L288.4,210.5z M290.5,208
					c1.1,0.1,2.5,0.1,3.7,0c1.5-0.1,2.9-0.2,3.7,0.6c0.5,0.4,0.7,1,0.7,1.7c0,0.7-0.2,1.3-0.7,1.7c-0.9,0.8-2.2,0.7-3.7,0.6
					c-1.1-0.1-2.5-0.1-3.7,0c-0.5,0-1,0.1-1.4,0.1c-0.9,0-1.7-0.1-2.3-0.7c-0.5-0.4-0.7-1-0.7-1.7c0-0.7,0.2-1.3,0.7-1.7
					C287.6,207.8,289,207.9,290.5,208L290.5,208z M130.5,260.4h-5.7v-5.7h5.7V260.4z M132.8,262.6h-10.2v-10.2h10.2V262.6z
					 M308.8,210.4c0-0.6,0.5-1.1,1.1-1.1c2.3,0,6.1,1.1,7.6,2.6c0.4,0.4,0.4,1.2,0,1.6c-0.2,0.2-0.5,0.3-0.8,0.3s-0.6-0.1-0.8-0.3
					c-0.8-0.8-3.9-1.9-6-1.9C309.3,211.5,308.8,211,308.8,210.4L308.8,210.4z M307.7,212.6c2.3,0,6.1,1.1,7.6,2.6
					c0.4,0.4,0.4,1.2,0,1.6c-0.2,0.2-0.5,0.3-0.8,0.3c-0.3,0-0.6-0.1-0.8-0.3c-0.8-0.8-3.9-1.9-6-1.9c-0.6,0-1.1-0.5-1.1-1.1
					C306.5,213.2,307,212.6,307.7,212.6L307.7,212.6z M339.5,197.9c2.5,0,4.5-2,4.5-4.5c0-2.5-2-4.5-4.5-4.5c-2.5,0-4.5,2-4.5,4.5
					C334.9,195.8,336.9,197.9,339.5,197.9L339.5,197.9z M332.6,193.3c0-3.8,3.1-6.8,6.8-6.8c3.8,0,6.8,3.1,6.8,6.8
					c0,3.8-3.1,6.8-6.8,6.8C335.7,200.1,332.6,197.1,332.6,193.3L332.6,193.3z M108.4,179.9c0,0,2.8,4.9,3.3,7.4
					c0.7,3.7,0.7,10-3.8,11.5c-1.1,0.4-5.2,1.4-6.9-5.9c-1.2-5.3,0.7-11.6,0.7-11.6L108.4,179.9z M102.2,170.7
					c4.7-1.3,5.4,5.9,5.4,5.9L101,178C100,175.3,99.2,171.6,102.2,170.7L102.2,170.7z M149.6,63l13.6-13.6c0.4-0.4,1.2-0.4,1.6,0
					c0.4,0.4,0.4,1.2,0,1.6l-13.6,13.6c-0.2,0.2-0.5,0.3-0.8,0.3c-0.3,0-0.6-0.1-0.8-0.3C149.2,64.2,149.2,63.4,149.6,63L149.6,63z
					 M149.6,40.3l13.6-13.6c0.4-0.4,1.2-0.4,1.6,0c0.4,0.4,0.4,1.2,0,1.6l-13.6,13.6c-0.2,0.2-0.5,0.3-0.8,0.3
					c-0.3,0-0.6-0.1-0.8-0.3C149.2,41.4,149.2,40.7,149.6,40.3L149.6,40.3z M200.7,134c3.2,0.5,2.7,4.3,2,7.1l-6.7-0.7
					C195.9,140.4,195.8,133.3,200.7,134L200.7,134z M149.6,51.6L163.2,38c0.4-0.4,1.2-0.4,1.6,0c0.4,0.4,0.4,1.2,0,1.6l-13.6,13.6
					c-0.2,0.2-0.5,0.3-0.8,0.3c-0.3,0-0.6-0.1-0.8-0.3C149.2,52.8,149.2,52.1,149.6,51.6L149.6,51.6z M91.9,187.4
					c3.2,0.5,2.7,4.3,2,7.1l-6.7-0.7C87.1,193.8,87,186.7,91.9,187.4L91.9,187.4z M163.2,60.7c0.4-0.4,1.2-0.4,1.6,0
					c0.4,0.4,0.4,1.2,0,1.6L151.2,76c-0.2,0.2-0.5,0.3-0.8,0.3c-0.3,0-0.6-0.1-0.8-0.3c-0.4-0.4-0.4-1.2,0-1.6L163.2,60.7z
					 M204.2,155.9c-0.9,7.4-5.1,6.8-6.2,6.6c-4.6-1.1-5.3-7.3-4.9-11.1c0.2-2.5,2.5-7.7,2.5-7.7l6.8,0.7
					C202.3,144.5,204.8,150.6,204.2,155.9L204.2,155.9z M2,128.9l27.2-27.3c0.4-0.4,1.2-0.4,1.6,0c0.4,0.4,0.4,1.2,0,1.6L3.6,130.5
					c-0.2,0.2-0.5,0.3-0.8,0.3c-0.3,0-0.6-0.1-0.8-0.3C1.6,130,1.6,129.3,2,128.9L2,128.9z M95.3,209.3c-0.9,7.4-5.1,6.8-6.2,6.6
					c-4.6-1.1-5.3-7.3-4.9-11.1c0.2-2.5,2.5-7.7,2.5-7.7l6.8,0.7C93.4,197.9,96,204,95.3,209.3L95.3,209.3z M29.3,113
					c0.4-0.4,1.2-0.4,1.6,0c0.4,0.4,0.4,1.2,0,1.6L3.6,141.9c-0.2,0.2-0.5,0.3-0.8,0.3c-0.3,0-0.6-0.1-0.8-0.3
					c-0.4-0.4-0.4-1.2,0-1.6L29.3,113z M805,241v61.4h19.3c3.8,0,6.8-3.1,6.8-6.8c0-4.1,3.3-7.4,7.4-7.4l94.8,0
					c10,0,18.2-8.2,18.2-18.2l0-215.9c0-4.9-1.9-9.4-5.3-12.9c-3.4-3.4-8-5.3-12.8-5.3l-94.8,0c-2,0-3.8-0.8-5.2-2.2
					c-1.4-1.4-2.2-3.2-2.2-5.2c0-1.8-0.7-3.5-2-4.8c-1.3-1.3-3-2-4.8-2H738v79.5c0,21.4,11.6,43.4,34.5,65.4
					C801.3,194.3,805,221,805,241L805,241z M733.4,33.1h-92V21.7h92V33.1z M636.9,45.6h-38.9V21.7h38.9V45.6z M374.7,12.6
					c0-0.6-0.5-1.1-1.1-1.1H70.4c-0.6,0-1.1,0.5-1.1,1.1v4.5h305.4V12.6z M362.2,7h-5.7V2.4h5.7V7z M337.2,7h-5.7V2.4h5.7V7z
					 M312.2,7h-5.7V2.4h5.7V7z M287.2,7h-5.7V2.4h5.7V7z M262.3,7h-5.7V2.4h5.7V7z M237.3,7h-5.7V2.4h5.7V7z M212.3,7h-5.7V2.4h5.7
					V7z M187.3,7h-5.7V2.4h5.7V7z M162.3,7h-5.7V2.4h5.7V7z M137.4,7h-5.7V2.4h5.7V7z M112.4,7h-5.7V2.4h5.7V7z M87.4,7h-5.7V2.4
					h5.7V7z M774.6,288.5c0.4-0.4,1.2-0.4,1.6,0l24.2,24.2v-8.2L786,290.1c-0.4-0.4-0.4-1.2,0-1.6c0.4-0.4,1.2-0.4,1.6,0l12.8,12.8
					v-8.1l-3.1-3.1c-0.4-0.4-0.4-1.2,0-1.6c0.4-0.4,1.2-0.4,1.6,0l1.5,1.5v-49c0-19.2-3.5-44.6-31.1-71.1
					c-23.8-22.9-35.9-46-35.9-68.7V37.6h-92v9.1c0,1.9-1.5,3.4-3.4,3.4h-1.6l-39.9,39.9c-0.2,0.2-0.5,0.3-0.8,0.3
					c-0.3,0-0.6-0.1-0.8-0.3c-0.4-0.4-0.4-1.2,0-1.6l38.3-38.3h-8.1l-28.6,28.6c-0.2,0.2-0.5,0.3-0.8,0.3c-0.3,0-0.6-0.1-0.8-0.3
					c-0.4-0.4-0.4-1.2,0-1.6l27-27h-8.1l-17.2,17.2c-0.2,0.2-0.5,0.3-0.8,0.3c-0.3,0-0.6-0.1-0.8-0.3c-0.4-0.4-0.4-1.2,0-1.6
					l15.6-15.6h-8.1l-5.9,5.9c-0.2,0.2-0.5,0.3-0.8,0.3c-0.3,0-0.6-0.1-0.8-0.3c-0.4-0.4-0.4-1.2,0-1.6l4.2-4.2h-2.3
					c-1.9,0-3.4-1.5-3.4-3.4v-25h-94.3l-12.7,12.8c-0.2,0.2-0.5,0.3-0.8,0.3s-0.6-0.1-0.8-0.3c-0.4-0.4-0.4-1.2,0-1.6L496,21.7h-8.1
					l-1.4,1.4c-0.2,0.2-0.5,0.3-0.8,0.3s-0.6-0.1-0.8-0.3c-0.4-0.4-0.4-1-0.1-1.4H366.9l-12.7,12.8c-0.2,0.2-0.5,0.3-0.8,0.3
					s-0.6-0.1-0.8-0.3c-0.4-0.4-0.4-1.2,0-1.6l11.1-11.1h-8.1l-1.4,1.4c-0.2,0.2-0.5,0.3-0.8,0.3s-0.6-0.1-0.8-0.3
					c-0.4-0.4-0.4-1-0.1-1.4h-93.1l-8.8,8.8c-0.2,0.2-0.5,0.3-0.8,0.3c-0.3,0-0.6-0.1-0.8-0.3c-0.4-0.4-0.4-1.2,0-1.6l7.2-7.2H160
					l-8.8,8.8c-0.2,0.2-0.5,0.3-0.8,0.3c-0.3,0-0.6-0.1-0.8-0.3c-0.4-0.4-0.4-1.2,0-1.6l7.2-7.2H39.7c-10,0-18.2,8.2-18.2,18.2v2.3
					h8.5c1.3,0,2.3,1,2.3,2.3c0,1.1-0.7,2-1.7,2.2l-27,27C3.4,73.9,3.1,74,2.8,74c-0.3,0-0.6-0.1-0.8-0.3c-0.4-0.4-0.4-1.2,0-1.6
					l25.3-25.3h-8.1L3.6,62.3c-0.2,0.2-0.5,0.3-0.8,0.3c-0.3,0-0.6-0.1-0.8-0.3c-0.4-0.4-0.4-1.2,0-1.6l14-14H7.8l-4.2,4.2
					c-0.2,0.2-0.5,0.3-0.8,0.3c-0.3,0-0.6-0.1-0.8-0.3c-0.4-0.4-0.4-1.2,0-1.6l2.6-2.6H2.8c-1.3,0-2.3-1-2.3-2.3
					c0-1.3,1-2.3,2.3-2.3H17v-2.3c0-12.6,10.2-22.7,22.7-22.7h25v-4.5c0-3.1,2.5-5.7,5.7-5.7h9.1V0.1h10.2V7h14.8V0.1h10.2V7h14.8
					V0.1h10.2V7h14.8V0.1h10.2V7h14.8V0.1h10.2V7h14.8V0.1h10.2V7h14.8V0.1h10.2V7h14.8V0.1h10.2V7h14.8V0.1h10.2V7h14.8V0.1h10.2V7
					h14.8V0.1h10.2V7h14.8V0.1h10.2V7h9.1c3.1,0,5.7,2.5,5.7,5.7v4.5h214.3l0,0h48l0,0H738h86.3c6.3,0,11.4,5.1,11.4,11.4
					c0,1.6,1.3,2.8,2.8,2.8l94.8,0c12.5,0,22.7,10.2,22.7,22.7l0,215.9c0,12.5-10.2,22.7-22.7,22.7h0l-94.8,0l0,0
					c-1.6,0-2.8,1.3-2.8,2.8c0,6.3-5.1,11.4-11.4,11.4H805v9.7c0,1.3-1,2.3-2.3,2.3c-1.3,0-2.3-1-2.3-2.3v-0.7l-25.8-25.8
					C774.2,289.7,774.2,289,774.6,288.5L774.6,288.5z M2,83.4l27.2-27.3c0.4-0.4,1.2-0.4,1.6,0c0.4,0.4,0.4,1.2,0,1.6L3.6,85
					c-0.2,0.2-0.5,0.3-0.8,0.3c-0.3,0-0.6-0.1-0.8-0.3C1.6,84.6,1.6,83.9,2,83.4L2,83.4z M2,117.5l27.2-27.3c0.4-0.4,1.2-0.4,1.6,0
					c0.4,0.4,0.4,1.2,0,1.6L3.6,119.1c-0.2,0.2-0.5,0.3-0.8,0.3c-0.3,0-0.6-0.1-0.8-0.3C1.6,118.7,1.6,118,2,117.5L2,117.5z
					 M2,106.2l27.2-27.3c0.4-0.4,1.2-0.4,1.6,0c0.4,0.4,0.4,1.2,0,1.6L3.6,107.8c-0.2,0.2-0.5,0.3-0.8,0.3c-0.3,0-0.6-0.1-0.8-0.3
					C1.6,107.3,1.6,106.6,2,106.2L2,106.2z M2,94.8l27.2-27.3c0.4-0.4,1.2-0.4,1.6,0c0.4,0.4,0.4,1.2,0,1.6L3.6,96.4
					c-0.2,0.2-0.5,0.3-0.8,0.3c-0.3,0-0.6-0.1-0.8-0.3C1.6,96,1.6,95.2,2,94.8L2,94.8z M504.1,47.7c0.4-0.4,1.2-0.4,1.6,0
					c0.4,0.4,0.4,1.2,0,1.6l-19.3,19.3c-0.2,0.2-0.5,0.3-0.8,0.3s-0.6-0.1-0.8-0.3c-0.4-0.4-0.4-1.2,0-1.6L504.1,47.7z M426,182.1
					c-0.9,7.4-5.1,6.8-6.2,6.6c-4.6-1.1-5.3-7.3-4.9-11.1c0.2-2.5,2.5-7.7,2.5-7.7l6.8,0.7C424.1,170.6,426.7,176.7,426,182.1
					L426,182.1z M352.6,44.2l19.3-19.3c0.4-0.4,1.2-0.4,1.6,0c0.4,0.4,0.4,1.2,0,1.6l-19.3,19.3c-0.2,0.2-0.5,0.3-0.8,0.3
					s-0.6-0.1-0.8-0.3C352.1,45.4,352.1,44.7,352.6,44.2L352.6,44.2z M352.6,55.6l19.3-19.3c0.4-0.4,1.2-0.4,1.6,0
					c0.4,0.4,0.4,1.2,0,1.6l-19.3,19.3c-0.2,0.2-0.5,0.3-0.8,0.3s-0.6-0.1-0.8-0.3C352.1,56.8,352.1,56,352.6,55.6L352.6,55.6z
					 M422.5,160.2c3.2,0.5,2.7,4.3,2,7.1l-6.7-0.7C417.8,166.6,417.7,159.4,422.5,160.2L422.5,160.2z M371.9,47.7
					c0.4-0.4,1.2-0.4,1.6,0c0.4,0.4,0.4,1.2,0,1.6l-19.3,19.3c-0.2,0.2-0.5,0.3-0.8,0.3s-0.6-0.1-0.8-0.3c-0.4-0.4-0.4-1.2,0-1.6
					L371.9,47.7z M211.1,117.3c4.7-1.3,5.4,5.9,5.4,5.9l-6.6,1.4C208.8,121.9,208,118.2,211.1,117.3L211.1,117.3z M484.8,55.6
					l19.3-19.3c0.4-0.4,1.2-0.4,1.6,0c0.4,0.4,0.4,1.2,0,1.6l-19.3,19.3c-0.2,0.2-0.5,0.3-0.8,0.3s-0.6-0.1-0.8-0.3
					C484.4,56.8,484.4,56,484.8,55.6L484.8,55.6z M432.9,143.5c4.7-1.3,5.4,5.9,5.4,5.9l-6.6,1.4C430.7,148,429.8,144.3,432.9,143.5
					L432.9,143.5z M439.1,152.6c0,0,2.8,4.9,3.3,7.4c0.7,3.7,0.7,10-3.8,11.5c-1.1,0.4-5.2,1.4-6.9-5.9c-1.2-5.3,0.7-11.6,0.7-11.6
					L439.1,152.6z M249,40.3l13.6-13.6c0.4-0.4,1.2-0.4,1.6,0c0.4,0.4,0.4,1.2,0,1.6l-13.6,13.6c-0.2,0.2-0.5,0.3-0.8,0.3
					c-0.3,0-0.6-0.1-0.8-0.3C248.5,41.4,248.5,40.7,249,40.3L249,40.3z M300.8,136.3c3.2,0.5,2.7,4.3,2,7.1l-6.7-0.7
					C296,142.7,295.9,135.5,300.8,136.3L300.8,136.3z M317.3,128.7c0,0,2.8,4.9,3.3,7.4c0.7,3.7,0.7,10-3.8,11.5
					c-1.1,0.4-5.2,1.4-6.9-5.9c-1.2-5.3,0.7-11.6,0.7-11.6L317.3,128.7z M249,51.6L262.6,38c0.4-0.4,1.2-0.4,1.6,0
					c0.4,0.4,0.4,1.2,0,1.6l-13.6,13.6c-0.2,0.2-0.5,0.3-0.8,0.3c-0.3,0-0.6-0.1-0.8-0.3C248.5,52.8,248.5,52.1,249,51.6L249,51.6z
					 M304.2,158.2c-0.9,7.4-5.1,6.8-6.2,6.6c-4.6-1.1-5.3-7.3-4.9-11.1c0.2-2.5,2.5-7.7,2.5-7.7l6.8,0.7
					C302.4,146.7,304.9,152.8,304.2,158.2L304.2,158.2z M217.3,126.5c0,0,2.8,4.9,3.3,7.4c0.7,3.7,0.7,10-3.8,11.5
					c-1.1,0.4-5.2,1.4-6.9-5.9c-1.2-5.3,0.7-11.6,0.7-11.6L217.3,126.5z M311.1,119.6c4.7-1.3,5.4,5.9,5.4,5.9l-6.6,1.4
					C308.9,124.2,308.1,120.4,311.1,119.6L311.1,119.6z M262.6,60.7c0.4-0.4,1.2-0.4,1.6,0c0.4,0.4,0.4,1.2,0,1.6L250.6,76
					c-0.2,0.2-0.5,0.3-0.8,0.3c-0.3,0-0.6-0.1-0.8-0.3c-0.4-0.4-0.4-1.2,0-1.6L262.6,60.7z M249,63l13.6-13.6c0.4-0.4,1.2-0.4,1.6,0
					c0.4,0.4,0.4,1.2,0,1.6l-13.6,13.6c-0.2,0.2-0.5,0.3-0.8,0.3c-0.3,0-0.6-0.1-0.8-0.3C248.5,64.2,248.5,63.4,249,63L249,63z"/>
			</g>
		</g>
	</g>
</g>
</svg>
