<svg width="962" height="300" viewBox="0 0 962 300" xmlns="http://www.w3.org/2000/svg"><title>illus-bus</title><g fill-rule="nonzero" fill="#FFF"><path d="M486.2 192.2H323V50.9h127l36.2 141.3zm303-113c0-.3.1-.7.1-1 .1-.6.1-1.2.2-1.8.1-.4.1-.8.2-1.2.1-.5.2-1.1.2-1.6.1-.4.1-.8.2-1.2.1-.5.2-1.1.3-1.6.1-.4.2-.9.2-1.3.1-.5.2-1 .3-1.6.1-.5.2-.9.3-1.4l.3-1.5c.1-.5.2-.9.3-1.4l.3-1.5c.1-.5.2-1 .3-1.4l.3-1.5c.1-.5.2-1 .3-1.4l.3-1.5.3-1.5.3-1.5c.1-.5.2-1 .4-1.5.1-.5.2-1 .4-1.5.1-.5.3-1 .4-1.5.1-.5.2-1 .4-1.5.1-.5.3-1 .4-1.5.1-.5.3-1 .4-1.5.1-.5.3-1 .4-1.5.1-.5.3-1 .4-1.5.1-.5.3-1 .4-1.5.1-.5.3-1 .4-1.4.1-.5.3-1 .4-1.5.1-.5.3-1 .4-1.4.1-.5.3-1 .4-1.5.1-.5.3-1 .4-1.4.2-.5.3-1 .5-1.5.1-.5.3-.9.4-1.4.2-.5.3-1 .5-1.5s.3-.9.5-1.4c.2-.5.3-.9.5-1.4.2-.5.3-.9.5-1.4.2-.5.3-.9.5-1.4.2-.5.3-.9.5-1.4.2-.5.3-.9.5-1.4.2-.5.3-.9.5-1.4.2-.5.3-.9.5-1.4.2-.4.3-.9.5-1.3.2-.5.3-.9.5-1.4.2-.4.3-.9.5-1.3s.3-.9.5-1.3.3-.9.5-1.3.3-.9.5-1.3.3-.9.5-1.3.3-.8.5-1.3c.2-.4.3-.9.5-1.3s.3-.8.5-1.2c.1-.3.2-.6.4-.9h1.6l-.6 1.5c-.1.3-.2.6-.4.9-.2.5-.4 1.1-.7 1.7l-.3.9c-.2.6-.4 1.2-.7 1.7-.1.3-.2.6-.3.8-.2.6-.4 1.2-.7 1.8l-.3.9c-.2.6-.4 1.2-.7 1.8l-.3.9c-.2.6-.5 1.3-.7 1.9-.1.3-.2.5-.3.8-.2.6-.5 1.3-.7 2-.1.3-.2.5-.3.8-.2.7-.5 1.3-.7 2-.1.3-.2.5-.3.8-.2.7-.5 1.4-.7 2.1-.1.2-.2.5-.2.7-.2.7-.5 1.4-.7 2.1-.1.3-.2.5-.3.8-.2.7-.5 1.4-.7 2.1-.1.2-.2.5-.2.7-.2.7-.4 1.4-.7 2.1-.1.3-.2.5-.2.8l-.6 2.1c-.1.3-.2.5-.2.8-.2.7-.4 1.5-.6 2.2-.1.2-.1.5-.2.7-.2.7-.4 1.4-.6 2.2-.1.3-.1.5-.2.8-.2.7-.4 1.4-.6 2.2-.1.3-.1.5-.2.8-.2.7-.4 1.4-.5 2.1-.1.3-.1.6-.2.8-.2.7-.4 1.4-.5 2.1-.1.3-.1.5-.2.8-.2.7-.3 1.4-.5 2.1-.1.3-.1.6-.2.9-.2.7-.3 1.4-.5 2.1-.1.3-.1.6-.2.9-.2.7-.3 1.4-.4 2.1-.1.3-.1.6-.2.8-.1.7-.3 1.4-.4 2.1-.1.3-.1.6-.2.9-.1.7-.3 1.4-.4 2.1-.1.3-.1.6-.2.9-.1.7-.2 1.4-.4 2.1 0 .3-.1.5-.1.8-.1.7-.2 1.4-.3 2 0 .3-.1.6-.1.8l-.3 2.1c0 .2-.1.5-.1.7-.1.9-.2 1.7-.3 2.5v.3c-.1.9-.2 1.9-.3 2.8-4.1 40.7 8.6 77.3 18.8 106.8 2 5.9 4 11.4 5.6 16.6.2.7.5 1.5.7 2.2.1.3.2.5.2.8.1.5.3 1 .4 1.5l.3.9c.1.5.3.9.4 1.4.1.3.2.6.2.9.1.5.3.9.4 1.4.1.3.2.6.2.9.1.5.3.9.4 1.4.1.3.2.6.2.9.1.5.2.9.4 1.4.1.3.2.6.2 1 .1.4.2.9.3 1.3.1.3.2.6.2.9.1.5.2.9.3 1.4.1.3.1.6.2.9.1.5.2.9.3 1.4.1.3.2.6.2.9.1.4.2.9.3 1.3.1.3.2.6.2 1 .1.4.2.9.3 1.3.1.3.1.6.2.9.1.4.2.9.3 1.3.1.3.1.6.2.9.1.4.2.9.3 1.3.1.3.1.6.2.9l.3 1.2c.1.3.1.6.2.9l.3 1.2c.1.3.1.5.2.8h-1.5c0-.2-.1-.3-.1-.5-.1-.4-.2-.9-.3-1.3-.1-.3-.1-.6-.2-.8-.1-.4-.2-.9-.3-1.3-.1-.3-.1-.6-.2-.9-.1-.4-.2-.9-.3-1.3-.1-.3-.1-.6-.2-.9-.1-.4-.2-.9-.3-1.3-.1-.3-.1-.6-.2-.9-.1-.4-.2-.9-.3-1.3-.1-.3-.1-.6-.2-.9-.1-.4-.2-.9-.3-1.3-.1-.3-.1-.6-.2-.9-.1-.4-.2-.9-.3-1.3-.1-.3-.1-.6-.2-.9-.1-.4-.2-.9-.3-1.3-.1-.3-.2-.6-.2-.9-.1-.4-.2-.9-.3-1.3-.1-.3-.2-.6-.2-1-.1-.4-.2-.9-.4-1.3-.1-.3-.2-.6-.2-.9-.1-.5-.3-.9-.4-1.4-.1-.3-.2-.6-.2-.9-.1-.5-.3-.9-.4-1.4-.1-.3-.2-.6-.2-.9-.1-.5-.3-1-.4-1.4-.1-.3-.2-.5-.2-.8-.2-.5-.3-1-.5-1.6-.1-.2-.1-.5-.2-.7-.2-.7-.5-1.5-.7-2.2-1.6-5.1-3.5-10.6-5.5-16.5-9.7-28.1-23-66.5-18.8-107.4-.2-1.5-.1-2.4 0-3.3zM597.4 3.5c0 .3.1.6.1.8.2 1.1.3 2.2.5 3.2l.3 2.3c1.6 11 2.8 22.8 3.7 35.6h-1.5c-.9-12.8-2.1-24.4-3.7-35.4l-.3-2.3c-.1-1-.3-2.1-.5-3.3 0-.2-.1-.5-.1-.8 0-.2-.1-.5-.1-.7h1.5c0 .2.1.4.1.6zm48.1 46V29.6c0-.4 0-.7.1-1.1 0-.4 0-.7.1-1.1 0-.4 0-.7.1-1.1 0-.3 0-.7.1-1 0-.4 0-.7.1-1.1 0-.3 0-.7.1-1 0-.4 0-.7.1-1.1 0-.3 0-.7.1-1 0-.3 0-.7.1-1 0-.3 0-.6.1-1 0-.3.1-.7.1-1 0-.3 0-.6.1-.9 0-.3.1-.7.1-1 0-.3.1-.6.1-.9 0-.3.1-.7.1-1 0-.3.1-.6.1-.9 0-.3.1-.6.1-.9 0-.3.1-.6.1-.9 0-.3.1-.6.1-.9 0-.3.1-.6.1-.8 0-.3.1-.6.1-.9 0-.3.1-.6.1-.8 0-.3.1-.6.1-.8 0-.3.1-.5.1-.8 0-.3.1-.5.1-.8 0-.3.1-.5.1-.8 0-.3.1-.5.1-.8 0-.3.1-.5.1-.8 0-.2.1-.4.1-.5h1.5c0 .2-.1.4-.1.6 0 .3-.1.6-.1.9 0 .2-.1.4-.1.7 0 .3-.1.6-.1.9 0 .2-.1.5-.1.7 0 .3-.1.6-.1.9 0 .2-.1.5-.1.7 0 .3-.1.6-.1 1 0 .2-.1.5-.1.7 0 .3-.1.7-.1 1 0 .2-.1.5-.1.7 0 .3-.1.7-.1 1.1 0 .2 0 .5-.1.7 0 .4-.1.7-.1 1.1 0 .2 0 .5-.1.7 0 .4-.1.8-.1 1.1 0 .3 0 .5-.1.8 0 .4-.1.8-.1 1.1 0 .3 0 .5-.1.8 0 .4-.1.8-.1 1.2 0 .3 0 .5-.1.8 0 .4-.1.8-.1 1.2 0 .3 0 .5-.1.8 0 .4 0 .8-.1 1.2 0 .3 0 .6-.1.9 0 .4 0 .8-.1 1.3v.8c0 .4 0 .9-.1 1.3v.9c0 .4 0 .8-.1 1.3v.9c0 .4 0 .9-.1 1.3v19.8c0 28.1 7.2 60.1 11.9 81.3 1.3 6 2.5 11.2 3.2 15.1.6 3.4 1.4 7.2 2.3 11.1 3.5 16.7 8 37.5 8 66.4v6.6c0 1.2 0 2.3-.1 3.5 0 .6 0 1.3-.1 1.9v1.2h-1.5v-1c0-.7 0-1.4.1-2.1 0-1.1 0-2.1.1-3.2v-6.8c0-28.8-4.4-49.5-7.9-66.1-.8-4-1.6-7.7-2.3-11.2-.7-3.9-1.9-9.1-3.2-15-4.8-21.2-11.9-53.3-11.9-81.6v-2.5c-.1-.2-.1-.5-.1-.9zm-88.2 188.9c.1-.5.2-.9.3-1.4 0-.2.1-.5.1-.7.2-.7.3-1.4.5-2.1 3.4-14.1 7-27.2 9.9-36.6h1.5c-2.9 9.4-6.6 22.7-10 36.9-.2.7-.3 1.4-.5 2 0 .2-.1.4-.1.7-.1.5-.2.9-.3 1.4-.1.3-.1.6-.2.9 0 .1-.1.3-.1.4h-1.5c0-.2.1-.5.1-.7.2-.2.3-.5.3-.8zM752.5 61.1c.1-1.5.1-3 .1-4.5v-.1c0-1.5.1-3 .1-4.4v-.2c0-1.5 0-2.9.1-4.4V38c0-1.4 0-2.8-.1-4.2v-.4c0-1.4 0-2.7-.1-4.1v-.4c0-1.4-.1-2.7-.1-4v-.4c0-1.3-.1-2.7-.1-4v-.4c0-1.3-.1-2.6-.2-3.9v-.4c-.1-1.3-.1-2.5-.2-3.8v-.3c-.1-1.2-.1-2.5-.2-3.7v-.3c-.1-1.2-.1-2.4-.2-3.6v-.3c0-.3 0-.7-.1-1h1.5c0 .3 0 .6.1.9v.5c.1 1.1.1 2.2.2 3.3V8c.1 1.1.1 2.3.2 3.5v.5c.1 1.2.1 2.4.2 3.6v.5c.1 1.2.1 2.5.1 3.7v.5c0 1.3.1 2.5.1 3.8v.5c0 1.3.1 2.6.1 3.9v.5c0 1.3.1 2.7.1 4V47.1c0 1.4 0 2.9-.1 4.3v.2c0 1.5-.1 2.9-.1 4.4v.1c0 1.5-.1 3-.1 4.5-1.4 39.5-9.3 80.6-20 104.8-3.6 8.2-6.6 15.4-9.1 22-.6.1-1.1.1-1.7.2 2.6-6.8 5.6-14.3 9.4-22.8 10.9-23.5 18.7-64.4 20.1-103.7zM181.7 5.8c0 .5-.1 1.1-.1 1.6s-.1.9-.1 1.4c0 .6-.1 1.1-.1 1.7 0 .5-.1.9-.1 1.4 0 .5-.1 1.1-.1 1.6s-.1 1-.1 1.5-.1 1.1-.1 1.6-.1 1-.1 1.5-.1 1-.1 1.6c0 .5-.1 1.1-.2 1.6 0 .5-.1 1-.2 1.5s-.1 1.1-.2 1.6-.1 1-.2 1.5-.1 1.1-.2 1.6-.1 1-.2 1.4c-.1.6-.2 1.1-.2 1.7-.1.4-.1.9-.2 1.3l-.3 1.8c-.1.4-.1.8-.2 1.2-.1.6-.2 1.3-.3 1.9-.1.3-.1.7-.2 1l-.3 1.8h-1.5c.1-.7.3-1.4.4-2.1.1-.3.1-.6.1-.9.1-.7.2-1.3.3-2 .1-.4.1-.8.2-1.1l.3-1.8c.1-.4.1-.8.2-1.3.1-.6.2-1.2.2-1.7.1-.5.1-.9.2-1.4.1-.6.1-1.1.2-1.7.1-.5.1-1 .2-1.4.1-.5.1-1.1.2-1.6s.1-1 .1-1.5c.1-.5.1-1.1.2-1.6 0-.5.1-1 .1-1.5s.1-1.1.1-1.6.1-1 .1-1.5.1-1 .1-1.6c0-.5.1-1 .1-1.5s.1-1 .1-1.5.1-1 .1-1.5.1-1 .1-1.5.1-1 .1-1.5.1-1 .1-1.5 0-.9.1-1.4h1.5c0 .5 0 1-.1 1.5.1.5 0 .9 0 1.4zm169.5 33.6c0-.9-.1-1.7-.1-2.6V36c0-.6 0-1.2-.1-1.7v-.9c0-.5 0-1-.1-1.5V14.3c0-1.2 0-2.3.1-3.4v-8h1.5V31.6c0 .5 0 1 .1 1.5v1c0 .6 0 1.1.1 1.7v.8c0 .9.1 1.7.1 2.6.1 2.1.2 4.1.3 6.1h-1.5c-.2-1.8-.3-3.8-.4-5.9zm541.3 120.2c6.6-24.3 17.7-64.9 17-104.1 0-1.5-.1-3.1-.2-4.6 0-.6-.1-1.1-.1-1.7-.1-1-.1-1.9-.2-2.8-.1-.7-.1-1.3-.2-2-.1-.8-.1-1.7-.2-2.5l-.3-2.1c-.1-.8-.2-1.6-.3-2.3l-.3-2.1c-.1-.8-.2-1.5-.3-2.3-.1-.7-.2-1.4-.4-2-.1-.7-.3-1.5-.4-2.2-.1-.7-.3-1.3-.4-2-.1-.7-.3-1.5-.4-2.2-.1-.7-.3-1.3-.4-1.9-.2-.7-.3-1.4-.5-2.1-.1-.6-.3-1.3-.5-1.9-.2-.7-.3-1.4-.5-2-.2-.6-.3-1.2-.5-1.8-.2-.7-.3-1.3-.5-2-.2-.6-.3-1.2-.5-1.8-.2-.6-.4-1.3-.5-1.9-.2-.6-.3-1.1-.5-1.7l-.6-1.8c-.2-.6-.4-1.1-.5-1.6-.1-.4-.3-.9-.4-1.3h1.5c.1.4.2.8.4 1.1.2.5.4 1.1.5 1.6l.6 1.8c.2.6.3 1.1.5 1.7.2.6.4 1.3.5 1.9.2.6.3 1.2.5 1.8.2.7.4 1.3.5 2 .2.6.3 1.2.5 1.8.2.7.3 1.4.5 2.1.2.6.3 1.2.5 1.9s.3 1.4.5 2.1c.1.6.3 1.3.4 1.9.2.7.3 1.5.4 2.2.1.7.3 1.3.4 2 .1.7.3 1.5.4 2.3.1.7.2 1.3.3 2 .1.8.2 1.6.4 2.4.1.7.2 1.3.3 2 .1.8.2 1.6.3 2.5.1.6.2 1.3.2 1.9.1.9.2 1.8.2 2.6.1.6.1 1.2.2 1.9.1 1 .1 2 .2 3 0 .5.1 1 .1 1.6.1 1.5.1 3.1.2 4.6.7 39.4-10.4 80.2-17 104.6l-1.1 4.1c-5.7 21.1-8.6 45.1-8.6 71.4v4.4h-1.5v-4.4c0-26.5 2.9-50.6 8.6-71.8l1.2-4.3zM446.8 45.1c0-.4 0-.8-.1-1.1 0-.4-.1-.9-.1-1.3s-.1-.8-.1-1.2c0-.4-.1-.8-.1-1.3 0-.4-.1-.8-.1-1.2 0-.4-.1-.8-.1-1.2 0-.4-.1-.8-.1-1.2 0-.4-.1-.8-.1-1.2 0-.4-.1-.8-.1-1.2 0-.4-.1-.8-.1-1.2 0-.4-.1-.8-.1-1.2 0-.4-.1-.8-.1-1.2 0-.4-.1-.8-.1-1.2 0-.4-.1-.8-.1-1.2 0-.4-.1-.8-.2-1.2-.1-.4-.1-.8-.2-1.2-.1-.4-.1-.8-.2-1.2-.1-.4-.1-.8-.2-1.2-.1-.4-.1-.8-.2-1.2-.1-.4-.1-.8-.2-1.1-.1-.4-.1-.8-.2-1.2-.1-.4-.1-.7-.2-1.1-.1-.4-.1-.8-.2-1.2-.1-.4-.1-.7-.2-1.1-.1-.4-.1-.8-.2-1.2-.1-.3-.1-.7-.2-1-.1-.4-.1-.8-.2-1.2-.1-.3-.1-.7-.2-1-.1-.4-.1-.8-.2-1.1-.1-.3-.1-.6-.2-.9-.1-.4-.1-.8-.2-1.1-.1-.3-.1-.6-.2-.8-.1-.4-.1-.8-.2-1.2 0-.3-.1-.5-.1-.8-.1-.4-.1-.8-.2-1.2 0-.2-.1-.5-.1-.7-.1-.4-.1-.8-.2-1.1V3h1.5v.2c.1.3.1.6.2.8.1.3.1.7.2 1 .1.3.1.6.2.9.1.4.1.7.2 1.1.1.3.1.6.2.9.1.4.1.7.2 1.1.1.3.1.6.2 1s.1.7.2 1.1c.1.3.1.7.2 1 .1.4.1.8.2 1.1.1.3.1.7.2 1 .1.4.1.8.2 1.2.1.3.1.7.2 1.1.1.4.1.8.2 1.1.1.4.1.7.2 1.1.1.4.1.8.2 1.2.1.4.1.7.2 1.1.1.4.1.8.2 1.2.1.4.1.7.2 1.1.1.4.1.8.2 1.2.1.4.1.8.2 1.1.1.4.1.8.2 1.2 0 .4.1.8.1 1.1.1.4.1.8.2 1.3 0 .4.1.8.1 1.2 0 .4.1.9.1 1.3s.1.8.1 1.2c0 .4.1.8.1 1.3 0 .4.1.8.1 1.2 0 .4.1.9.1 1.3s.1.8.1 1.2c0 .4.1.9.1 1.3s.1.8.1 1.2c0 .4.1.9.1 1.3s.1.8.1 1.2c0 .4.1.9.1 1.3s0 .8.1 1.1v.4H447c-.1-.4-.2-.5-.2-.6zm-225.3-41c0-.4.1-.8.1-1.2h1.5V3c0 .4-.1.8-.1 1.2-.1 1.2-.2 2.4-.3 3.5-.7 9.5-.6 20.1.4 31.9h-1.5c-1-11.9-1.1-22.4-.4-32 0-1.1.2-2.3.3-3.5zM117.7 130c.5-.1 1-.1 1.5-.2-1.1 6.7-2.2 13.6-3.5 20.7-1 5.9-3.4 19.9-5.6 37.2-.5 0-1 .1-1.5.1 2.3-17.5 4.6-31.7 5.7-37.6 1.2-6.9 2.3-13.7 3.4-20.2zm49-7c-.7 14.5-.6 29.6.9 44.4.1 1.1.2 2.3.4 3.4.1.5.1 1 .2 1.4.1.7.2 1.4.3 2 .1.5.2 1.1.2 1.6.1.6.2 1.2.3 1.9.1.6.2 1.2.3 1.7l.3 1.8.3 1.8c.1.6.2 1.1.3 1.7.1.6.2 1.3.4 1.9.1.5.2 1.1.3 1.6.1.6.3 1.3.4 1.9.1.5.2 1.1.3 1.6.1.6.3 1.3.4 1.9.1.5.2 1.1.4 1.6.1.6.3 1.3.4 1.9.1.5.2 1.1.4 1.6.1.6.3 1.3.4 1.9.1.6.3 1.1.4 1.7.2.6.3 1.3.5 1.9.1.5.3 1.1.4 1.6.2.6.3 1.3.5 1.9.1.5.3 1.1.4 1.6.2.6.3 1.2.5 1.8.1.6.3 1.1.4 1.7.2.6.3 1.2.5 1.8.2.5.3 1.1.5 1.6.2.6.3 1.2.5 1.8.2.5.3 1.1.5 1.6.2.6.4 1.2.5 1.8.2.5.3 1.1.5 1.6.2.6.4 1.1.5 1.7.2.5.3 1.1.5 1.6.2.6.4 1.1.5 1.7.2.5.3 1.1.5 1.6.2.6.4 1.1.5 1.7.2.5.3 1 .5 1.6.2.6.4 1.1.5 1.6.2.5.3 1 .5 1.5s.4 1.1.6 1.6c.2.5.3 1 .5 1.5s.4 1 .5 1.6c.2.5.3 1 .5 1.5l.6 1.5c.2.5.3.9.5 1.4l.6 1.5c.2.4.3.9.5 1.3l.6 1.5c.2.4.3.9.5 1.3.2.5.4.9.5 1.4.2.4.3.8.5 1.3s.4.9.5 1.4c.2.4.3.8.5 1.2.2.5.4.9.5 1.3 0 .1.1.1.1.2h-1.6c-.2-.4-.3-.8-.5-1.3-.2-.4-.3-.8-.5-1.3-.2-.4-.3-.9-.5-1.3s-.3-.9-.5-1.3-.3-.9-.5-1.3c-.2-.5-.3-.9-.5-1.4-.2-.5-.3-.9-.5-1.4-.2-.5-.4-.9-.5-1.4-.2-.5-.4-1-.5-1.4-.2-.5-.4-1-.5-1.5-.2-.5-.3-1-.5-1.5s-.4-1-.5-1.5c-.2-.5-.3-1-.5-1.5s-.4-1-.5-1.6c-.2-.5-.3-1-.5-1.5s-.4-1.1-.5-1.6c-.2-.5-.3-1-.5-1.6-.2-.5-.4-1.1-.5-1.7-.2-.5-.3-1-.5-1.6-.2-.6-.4-1.1-.5-1.7-.2-.5-.3-1.1-.5-1.6-.2-.6-.4-1.1-.5-1.7-.2-.5-.3-1.1-.5-1.6-.2-.6-.4-1.2-.5-1.8-.2-.5-.3-1.1-.5-1.6-.2-.6-.3-1.2-.5-1.8-.2-.5-.3-1.1-.5-1.6-.2-.6-.3-1.2-.5-1.8-.2-.6-.3-1.1-.5-1.7-.2-.6-.3-1.2-.5-1.8-.1-.6-.3-1.1-.4-1.7-.2-.6-.3-1.2-.5-1.9-.1-.5-.3-1.1-.4-1.6-.2-.6-.3-1.3-.5-1.9-.1-.5-.3-1.1-.4-1.6-.2-.6-.3-1.3-.5-1.9-.1-.5-.3-1.1-.4-1.6-.2-.7-.3-1.3-.4-2-.1-.5-.2-1.1-.4-1.6-.1-.7-.3-1.3-.4-2-.1-.5-.2-1.1-.3-1.6-.1-.7-.3-1.3-.4-2-.1-.5-.2-1.1-.3-1.6-.1-.7-.3-1.3-.4-2-.1-.5-.2-1-.3-1.6-.1-.7-.2-1.4-.4-2l-.3-1.5-.3-2.1c-.1-.5-.2-1-.2-1.4-.1-.7-.2-1.4-.3-2.2-.1-.4-.1-.9-.2-1.3-.1-.8-.2-1.6-.3-2.3 0-.4-.1-.8-.1-1.1-.1-1.1-.3-2.3-.4-3.4-1.5-14.7-1.6-29.8-.9-44.3 0 .2.5.1 1 .1zm342.4 98.5c.2 1 .4 2.1.6 3.1.1.4.1.7.2 1.1.1.7.3 1.3.4 2 .1.5.2.9.3 1.4.1.6.2 1.1.3 1.7l.3 1.5c.1.6.2 1.1.3 1.7.1.5.2.9.2 1.4.1.6.2 1.1.3 1.7.1.5.2.9.2 1.4.1.5.2 1 .2 1.5h-1.5c-.1-.5-.2-1-.2-1.5-.1-.4-.1-.8-.2-1.2-.1-.7-.2-1.3-.3-2-.1-.4-.1-.7-.2-1.1-.1-.7-.2-1.4-.4-2.1-.1-.3-.1-.7-.2-1-.1-.7-.3-1.5-.4-2.2-.1-.3-.1-.6-.2-.9-.1-.8-.3-1.6-.5-2.3-.1-.3-.1-.5-.2-.8-.2-1-.4-2.1-.6-3.1-1.5-7.1-2.9-15.4-4.3-24.2h1.5c1.5 8.8 3 17 4.4 23.9zM44.9 140.4c.4 1.2.7 2.3 1.1 3.4.6 2 1.2 3.8 1.7 5.4 5.3 16.7 12.6 43 14.1 77.6v1.2c-.6 2.2-1 4.4-1.4 6.6v-2.8c0-1.7-.1-3.3-.1-5-1.5-34.5-8.7-60.6-14-77.2-.5-1.6-1.1-3.4-1.7-5.4-.4-1.1-.8-2.3-1.2-3.6.5-.1 1-.2 1.5-.2zm273-42.7v6.2c-2.8 10.6-6.3 21-9.8 31.1-8.7 25.4-17.6 51.6-14.6 82 .2 1.5.3 3.1.6 4.5.1.5.2.9.2 1.4.2 1 .3 2 .5 2.9.1.5.2 1.1.4 1.6.2.9.4 1.7.6 2.6.1.5.3 1.1.4 1.6.2.8.4 1.6.6 2.3.2.5.3 1.1.5 1.6.2.7.5 1.5.7 2.2.2.5.4 1.1.6 1.6.1.2.2.4.2.6h-1.6c-.1-.1-.1-.3-.2-.4-.2-.5-.4-1.1-.6-1.6-.2-.7-.5-1.4-.7-2.1-.2-.6-.4-1.1-.5-1.7-.2-.7-.4-1.5-.6-2.3-.2-.6-.3-1.1-.5-1.7-.2-.8-.4-1.7-.6-2.5-.1-.5-.2-1.1-.4-1.6-.2-1-.3-1.9-.5-2.9-.1-.5-.2-.9-.2-1.4l-.6-4.5c-3.1-30.8 5.9-57.1 14.7-82.6 4.3-12 8.5-24.3 11.4-36.9zm-.3-70.1c-.1-.5-.2-.9-.2-1.4-.1-.5-.2-1.1-.3-1.6-.1-.5-.2-.9-.2-1.4-.1-.5-.2-1.1-.3-1.6-.1-.4-.2-.9-.2-1.3-.1-.6-.2-1.1-.3-1.7-.1-.4-.2-.8-.2-1.2-.1-.5-.2-1.1-.3-1.6-.1-.4-.2-.8-.2-1.2-.1-.5-.2-1.1-.3-1.6-.1-.4-.2-.8-.2-1.1-.1-.5-.2-1.1-.3-1.6-.1-.4-.2-.7-.2-1.1-.1-.5-.2-1.1-.4-1.6-.1-.4-.2-.7-.2-1.1-.1-.5-.2-1-.4-1.5-.1-.3-.2-.7-.2-1-.1-.3-.1-.6-.2-.9h1c.1.2.1.4.2.7l.3 1.2c.1.4.2.9.3 1.3.1.4.2.8.3 1.3.1.5.2.9.3 1.4.1.4.2.9.3 1.3.1.5.2.9.3 1.4.1.4.2.9.3 1.4.1.5.2 1 .3 1.4.1.5.2.9.3 1.4l.3 1.5c.1.5.2.9.3 1.4l.3 1.5c.1.5.2 1 .3 1.4l.3 1.5.3 1.5c.1.5.2 1 .3 1.6l.3 1.5c.1.5.2 1.1.3 1.6.1.5.2 1 .2 1.5.1.5.2 1.1.3 1.6.1.5.2 1 .2 1.5.1.5.2 1.1.2 1.6.1.5.1 1 .2 1.5.1.6.1 1.1.2 1.7.1.5.1 1 .2 1.5.1.6.1 1.1.2 1.7.1.5.1 1 .2 1.5.1.6.1 1.1.2 1.7 0 .2 0 .3.1.5h-1.5c0-.2 0-.3-.1-.5-.1-.6-.1-1.1-.2-1.7-.1-.5-.1-1-.2-1.5-.1-.6-.1-1.1-.2-1.7-.1-.5-.1-1-.2-1.5-.1-.6-.1-1.1-.2-1.7-.1-.5-.1-1-.2-1.5-.1-.6-.2-1.1-.2-1.7-.1-.5-.1-1-.2-1.4-.1-.6-.2-1.1-.3-1.7-.1-.5-.2-.9-.2-1.4-.4-.7-.4-1.3-.5-1.8zM505.8 29c.1-.4.2-.7.4-1.1.3-.7.5-1.4.7-2.1.2-.4.3-.9.5-1.3.2-.6.4-1.2.6-1.7.2-.4.3-.9.5-1.3.2-.6.4-1.1.6-1.7.1-.4.3-.8.4-1.2.2-.5.4-1.1.6-1.6.2-.4.3-.8.4-1.2l.6-1.5c.1-.4.3-.8.4-1.1.2-.5.4-1 .5-1.5.1-.4.3-.7.4-1.1.2-.5.4-.9.5-1.4.1-.3.3-.7.4-1 .2-.5.4-.9.5-1.4.1-.3.2-.6.4-.9.2-.4.3-.9.5-1.3.1-.3.2-.6.4-.9.1-.2.2-.5.3-.7h1.6c-.1.3-.3.7-.4 1-.1.3-.3.7-.4 1-.2.4-.3.8-.5 1.2-.1.3-.3.7-.4 1-.2.4-.3.8-.5 1.3-.1.4-.3.7-.4 1.1-.2.4-.3.9-.5 1.3-.1.4-.3.8-.4 1.2-.2.5-.4 1-.5 1.4-.1.4-.3.8-.4 1.2-.2.5-.4 1-.6 1.6-.1.4-.3.8-.4 1.2-.2.5-.4 1.1-.6 1.6-.1.4-.3.8-.4 1.2-.2.5-.4 1.1-.6 1.6-.2.5-.3.9-.5 1.4-.2.5-.4 1.1-.6 1.7-.2.5-.3.9-.5 1.4-.2.6-.4 1.3-.7 1.9-.2.4-.3.9-.5 1.3l-1.2 3.3c-1.4 4-2.7 8.3-3.8 12.7h-1.5c1.2-4.6 2.5-9 3.9-13.2.4-1.2.8-2.3 1.2-3.4zM426 237l.9 3h-1.5c-.3-.9-.5-1.7-.8-2.6-3.6-12.1-5.7-26-6.5-39.8h1.5c.8 13.7 2.9 27.4 6.4 39.4zm-37.1-24.6c.1 1.2.3 2.3.4 3.5 0 .4.1.8.1 1.2.1.8.1 1.6.2 2.4 0 .5 0 1 .1 1.4 0 .7.1 1.4.1 2.2V230.4c0 .5 0 1.1-.1 1.6 0 .7 0 1.3-.1 2 0 .6-.1 1.1-.1 1.7 0 .7-.1 1.3-.1 2 0 .6-.1 1.1-.1 1.7v.6h-1.5v-.6c0-.6.1-1.1.1-1.7 0-.7.1-1.3.1-2 0-.5.1-1.1.1-1.6 0-.7 0-1.4.1-2 0-.5 0-1.1.1-1.6V223.2c0-.7-.1-1.5-.1-2.2 0-.5 0-.9-.1-1.4 0-.8-.1-1.6-.2-2.4 0-.4 0-.8-.1-1.1-.1-1.2-.2-2.3-.4-3.5-.6-5.1-1.4-10-2.3-14.9h1.5c.9 4.8 1.7 9.7 2.3 14.7z" opacity=".2"/><path d="M635 45.4v152.2c0 .8-.7 1.5-1.5 1.5H317.8c-.8 0-1.5-.7-1.5-1.5V45.4c0-.8.7-1.5 1.5-1.5h315.8c.8.1 1.4.7 1.4 1.5zm-2.9 1.5H319.4v149.2h312.7V46.9zm-309.1 3h305.4c.4 0 .7.3.7.7v141.9c0 .4-.3.7-.7.7H323c-.4 0-.7-.3-.7-.7V50.6c0-.4.3-.7.7-.7zm.7 141.8h304V51.3h-304v140.4zm408.2-7.1c31.8 0 57.7 25.9 57.7 57.7 0 31.8-25.9 57.7-57.7 57.7-31.8 0-57.7-25.9-57.7-57.7 0-31.9 25.9-57.7 57.7-57.7zm0 109.5c28.6 0 51.8-23.3 51.8-51.8 0-28.6-23.3-51.8-51.8-51.8-28.6 0-51.8 23.3-51.8 51.8 0 28.6 23.2 51.8 51.8 51.8zm0-90.6c21.4 0 38.8 17.4 38.8 38.8s-17.4 38.8-38.8 38.8-38.8-17.4-38.8-38.8 17.4-38.8 38.8-38.8zm0 74.6c19.8 0 35.9-16.1 35.9-35.9 0-19.8-16.1-35.9-35.9-35.9-19.8 0-35.9 16.1-35.9 35.9.1 19.9 16.1 35.9 35.9 35.9zm0-54.4c1.7 0 3.1 1.4 3.1 3.1 0 1.7-1.4 3.1-3.1 3.1-1.7 0-3.1-1.4-3.1-3.1 0-1.7 1.4-3.1 3.1-3.1zm0 4.7c.9 0 1.6-.7 1.6-1.6 0-.9-.7-1.6-1.6-1.6-.9 0-1.6.7-1.6 1.6 0 .9.7 1.6 1.6 1.6zm0 26.3c1.7 0 3.1 1.4 3.1 3.1 0 1.7-1.4 3.1-3.1 3.1-1.7 0-3.1-1.4-3.1-3.1 0-1.7 1.4-3.1 3.1-3.1zm0 4.7c.9 0 1.6-.7 1.6-1.6 0-.9-.7-1.6-1.6-1.6-.9 0-1.6.7-1.6 1.6 0 .9.7 1.6 1.6 1.6zm-8.8-8.3c1.2 1.2 1.2 3.2 0 4.4-.6.6-1.4.9-2.2.9-.8 0-1.6-.3-2.2-.9-1.2-1.2-1.2-3.2 0-4.4 1.3-1.2 3.2-1.2 4.4 0zm-3.3 3.3c.6.6 1.7.6 2.3 0 .3-.3.5-.7.5-1.1 0-.4-.2-.8-.5-1.1-.6-.6-1.7-.6-2.3 0-.6.5-.6 1.6 0 2.2zm25.3-25.3c.6.6.9 1.4.9 2.2 0 .8-.3 1.6-.9 2.2-.6.6-1.4.9-2.2.9-.8 0-1.6-.3-2.2-.9-.6-.6-.9-1.4-.9-2.2 0-.8.3-1.6.9-2.2 1.2-1.2 3.2-1.2 4.4 0zm-3.4 3.4c.6.6 1.7.6 2.3 0 .3-.3.5-.7.5-1.1 0-.4-.2-.8-.5-1.1-.3-.3-.7-.5-1.1-.5-.4 0-.8.2-1.1.5-.3.3-.5.7-.5 1.1 0 .4.1.7.4 1.1zm2.6 9.8c0-1.7 1.4-3.1 3.1-3.1 1.7 0 3.1 1.4 3.1 3.1 0 1.7-1.4 3.1-3.1 3.1-1.7 0-3.1-1.4-3.1-3.1zm3.1 1.6c.9 0 1.6-.7 1.6-1.6 0-.9-.7-1.6-1.6-1.6-.9 0-1.6.7-1.6 1.6 0 .9.7 1.6 1.6 1.6zm-27.9-1.6c0 1.7-1.4 3.1-3.1 3.1-1.7 0-3.1-1.4-3.1-3.1 0-1.7 1.4-3.1 3.1-3.1 1.7 0 3.1 1.4 3.1 3.1zm-4.7 0c0 .9.7 1.6 1.6 1.6.9 0 1.6-.7 1.6-1.6 0-.9-.7-1.6-1.6-1.6-.9 0-1.6.7-1.6 1.6zm6.1-7.9c-.8 0-1.6-.3-2.2-.9-.6-.6-.9-1.4-.9-2.2 0-.8.3-1.6.9-2.2 1.2-1.2 3.2-1.2 4.4 0 .6.6.9 1.4.9 2.2 0 .8-.3 1.6-.9 2.2-.6.6-1.4.9-2.2.9zm1.2-4.2c-.3-.3-.7-.5-1.1-.5-.4 0-.8.2-1.1.5-.3.3-.5.7-.5 1.1 0 .4.2.8.5 1.1.6.6 1.7.6 2.3 0 .3-.3.5-.7.5-1.1 0-.4-.3-.8-.6-1.1zm23 20.9c1.2 1.2 1.2 3.2 0 4.4-.6.6-1.4.9-2.2.9-.8 0-1.6-.3-2.2-.9-1.2-1.2-1.2-3.2 0-4.4 1.2-1.2 3.2-1.2 4.4 0zm-3.4 3.3c.6.6 1.7.6 2.3 0 .3-.3.5-.7.5-1.1 0-.4-.2-.8-.5-1.1-.3-.3-.7-.5-1.1-.5-.4 0-.8.2-1.1.5-.7.5-.7 1.6-.1 2.2zm-9.8-36.4c13.4 0 24.3 10.9 24.3 24.3s-10.9 24.3-24.3 24.3-24.3-10.9-24.3-24.3 10.9-24.3 24.3-24.3zm0 47.1c12.6 0 22.8-10.2 22.8-22.8 0-12.6-10.2-22.8-22.8-22.8-12.6 0-22.8 10.2-22.8 22.8 0 12.6 10.2 22.8 22.8 22.8zm0-53c16.6 0 30.2 13.5 30.2 30.2 0 16.6-13.5 30.2-30.2 30.2-16.6 0-30.2-13.5-30.2-30.2s13.6-30.2 30.2-30.2zm0 58.9c15.8 0 28.7-12.9 28.7-28.7 0-15.8-12.9-28.7-28.7-28.7-15.8 0-28.7 12.9-28.7 28.7 0 15.8 12.9 28.7 28.7 28.7zm-617.2-86.4c31.8 0 57.7 25.9 57.7 57.7 0 31.8-25.9 57.7-57.7 57.7-31.8 0-57.7-25.9-57.7-57.7 0-31.9 25.9-57.7 57.7-57.7zm0 109.5c28.6 0 51.8-23.3 51.8-51.8 0-28.6-23.3-51.8-51.8-51.8-28.6 0-51.8 23.3-51.8 51.8 0 28.6 23.2 51.8 51.8 51.8zm0-90.6c21.4 0 38.8 17.4 38.8 38.8s-17.4 38.8-38.8 38.8-38.8-17.4-38.8-38.8 17.4-38.8 38.8-38.8zm0 74.6c19.8 0 35.9-16.1 35.9-35.9 0-19.8-16.1-35.9-35.9-35.9-19.8 0-35.9 16.1-35.9 35.9.1 19.9 16.2 35.9 35.9 35.9zm0-54.4c1.7 0 3.1 1.4 3.1 3.1 0 1.7-1.4 3.1-3.1 3.1-1.7 0-3.1-1.4-3.1-3.1 0-1.7 1.4-3.1 3.1-3.1zm0 4.7c.9 0 1.6-.7 1.6-1.6 0-.9-.7-1.6-1.6-1.6-.9 0-1.6.7-1.6 1.6 0 .9.7 1.6 1.6 1.6zm0 26.3c1.7 0 3.1 1.4 3.1 3.1 0 1.7-1.4 3.1-3.1 3.1-1.7 0-3.1-1.4-3.1-3.1 0-1.7 1.4-3.1 3.1-3.1zm0 4.7c.9 0 1.6-.7 1.6-1.6 0-.9-.7-1.6-1.6-1.6-.9 0-1.6.7-1.6 1.6 0 .9.7 1.6 1.6 1.6zm-8.8-8.3c1.2 1.2 1.2 3.2 0 4.4-.6.6-1.4.9-2.2.9-.8 0-1.6-.3-2.2-.9-1.2-1.2-1.2-3.2 0-4.4 1.2-1.2 3.3-1.2 4.4 0zm-3.3 3.3c.6.6 1.7.6 2.3 0 .6-.6.6-1.7 0-2.3-.6-.6-1.7-.6-2.3 0-.3.3-.5.7-.5 1.1 0 .4.2.9.5 1.2zm25.3-25.3c.6.6.9 1.4.9 2.2 0 .8-.3 1.6-.9 2.2-.6.6-1.4.9-2.2.9-.8 0-1.6-.3-2.2-.9-.6-.6-.9-1.4-.9-2.2 0-.8.3-1.6.9-2.2 1.2-1.1 3.2-1.1 4.4 0zm-3.3 3.4c.6.6 1.7.6 2.3 0 .3-.3.5-.7.5-1.1 0-.4-.2-.8-.5-1.1-.6-.6-1.7-.6-2.3 0-.3.3-.5.7-.5 1.1 0 .4.2.7.5 1.1zm2.6 9.8c0-1.7 1.4-3.1 3.1-3.1 1.7 0 3.1 1.4 3.1 3.1 0 1.7-1.4 3.1-3.1 3.1-1.8 0-3.1-1.4-3.1-3.1zm3 1.6c.9 0 1.6-.7 1.6-1.6 0-.9-.7-1.6-1.6-1.6-.9 0-1.6.7-1.6 1.6 0 .9.7 1.6 1.6 1.6zm-27.9-1.6c0 1.7-1.4 3.1-3.1 3.1-1.7 0-3.1-1.4-3.1-3.1 0-1.7 1.4-3.1 3.1-3.1 1.7 0 3.1 1.4 3.1 3.1zm-4.7 0c0 .9.7 1.6 1.6 1.6.9 0 1.6-.7 1.6-1.6 0-.9-.7-1.6-1.6-1.6-.9 0-1.6.7-1.6 1.6zm6.2-7.9c-.8 0-1.6-.3-2.2-.9-.6-.6-.9-1.4-.9-2.2 0-.8.3-1.6.9-2.2 1.2-1.2 3.2-1.2 4.4 0 .6.6.9 1.4.9 2.2 0 .8-.3 1.6-.9 2.2-.6.6-1.4.9-2.2.9zm1.1-4.2c-.3-.3-.7-.5-1.1-.5-.4 0-.8.2-1.1.5-.3.3-.5.7-.5 1.1 0 .4.2.8.5 1.1.6.6 1.7.6 2.3 0 .3-.3.5-.7.5-1.1 0-.4-.3-.8-.6-1.1zm23 20.9c1.2 1.2 1.2 3.2 0 4.4-.6.6-1.4.9-2.2.9-.8 0-1.6-.3-2.2-.9-1.2-1.2-1.2-3.2 0-4.4 1.2-1.2 3.2-1.2 4.4 0zm-3.3 3.3c.6.6 1.7.6 2.3 0 .6-.6.6-1.7 0-2.3-.3-.3-.7-.5-1.1-.5-.4 0-.8.2-1.1.5-.3.3-.5.7-.5 1.1 0 .4.1.9.4 1.2zm-9.9-42.3c16.6 0 30.2 13.5 30.2 30.2 0 16.6-13.5 30.2-30.2 30.2-16.6 0-30.2-13.5-30.2-30.2.1-16.7 13.6-30.2 30.2-30.2zm0 58.9c15.8 0 28.7-12.9 28.7-28.7 0-15.8-12.9-28.7-28.7-28.7-15.8 0-28.7 12.9-28.7 28.7 0 15.8 12.9 28.7 28.7 28.7zm0-53c13.4 0 24.3 10.9 24.3 24.3s-10.9 24.3-24.3 24.3-24.3-10.9-24.3-24.3 10.9-24.3 24.3-24.3zm0 47.1c12.6 0 22.8-10.2 22.8-22.8 0-12.6-10.2-22.8-22.8-22.8-12.6 0-22.8 10.2-22.8 22.8 0 12.6 10.2 22.8 22.8 22.8zM801.4 237h148.1l-.1-27c0-1.6 1.3-2.9 2.9-3 1.6 0 2.9 1.3 2.9 2.9l.1 30c0 .8-.3 1.5-.9 2.1-.6.6-1.3.9-2.1.9H801.2c-1.6 0-2.9-1.3-2.9-2.9 0-1.6 1.5-3 3.1-3zm141.4-61.2V210c0 1.6-1.3 2.9-2.9 2.9-1.6 0-2.9-1.3-2.9-2.9v-34.1c0-1.6 1.3-2.9 2.9-2.9 1.6-.1 2.9 1.2 2.9 2.8zm15.6-139c1.6 0 2.9 1.3 2.9 2.9v136.1c0 1.6-1.3 2.9-2.9 2.9-1.6 0-2.9-1.3-2.9-2.9V39.7c-.1-1.6 1.2-2.9 2.9-2.9zm-12.7 5.9c-1.6 0-2.9-1.3-2.9-2.9V5.9H181.6c-1.6 0-2.9-1.3-2.9-2.9 0-1.6 1.3-2.9 2.9-2.9h764.1c1.6 0 2.9 1.3 2.9 2.9v36.8c.1 1.5-1.2 2.9-2.9 2.9zm-775.9-.1c-1.6 0-2.9-1.3-2.9-2.9V2.9c0-1.6 1.3-2.9 2.9-2.9 1.6 0 2.9 1.3 2.9 2.9v36.7c0 1.7-1.3 3-2.9 3zm8.8-3c0-1.6 1.3-2.9 2.9-2.9 1.6 0 2.9 1.3 2.9 2.9v70.6c0 8.4-6.7 15.2-15.1 15.3L30 145.5c-.3 0-.9.1-1 .2-.6.4-1 2.7-1.3 4-.1.8-.3 1.6-.5 2.4-.4 1.3-1.5 2.2-2.8 2.2-.3 0-.5 0-.8-.1-1.6-.4-2.5-2.1-2-3.6.1-.5.2-1.1.4-1.8.4-2.6 1.1-6.2 4-8 1.2-.7 2.4-.9 3.3-1l139.6-20h.4c5.2 0 9.4-4.2 9.4-9.4V39.6h-.1zM6.4 191.8c-.4 1.3-1.6 2.1-2.8 2.1-.3 0-.6 0-.9-.1-1.6-.5-2.4-2.1-1.9-3.7l11.7-37.7c.5-1.6 2.1-2.4 3.7-1.9s2.4 2.1 1.9 3.7L6.4 191.8zm-1.7 7.8c.3-1.6 1.8-2.7 3.4-2.5 1.6.3 2.7 1.8 2.5 3.4l-3 19.2v17.8c0 5.8 4.7 10.4 10.4 10.4h27.9c1.6 0 2.9 1.3 2.9 2.9 0 1.6-1.3 2.9-2.9 2.9H18c-9 0-16.3-7.3-16.3-16.3v-18.5l3-19.3zM181.5 248c1.6 0 2.9 1.3 2.9 2.9v4h9.1V39.6c0-1.6 1.3-2.9 2.9-2.9h66c1.6 0 2.9 1.3 2.9 2.9V237h397.1c1.6 0 2.9 1.3 2.9 2.9 0 1.6-1.3 2.9-2.9 2.9H265.5v14.9c0 1.6-1.3 2.9-2.9 2.9h-77.9V273c0 1.6-1.3 2.9-2.9 2.9-1.6 0-2.9-1.3-2.9-2.9v-14.5c-.1-.2-.1-.5-.1-.8v-6.9c-.2-1.5 1.1-2.8 2.7-2.8zm17.9 6.8h60.2V42.6h-60.2v212.2zm77.8-7.2l385.2.2c1.6 0 2.9 1.3 2.9 2.9 0 1.6-1.3 2.9-2.9 2.9l-385.2-.2c-1.6 0-2.9-1.3-2.9-2.9 0-1.6 1.3-2.9 2.9-2.9zm524.3.3l101.7.1c1.6 0 2.9 1.3 2.9 2.9 0 1.6-1.3 2.9-2.9 2.9l-98.7-.1v17.8c0 1.6-1.3 2.9-2.9 2.9-1.6 0-2.9-1.3-2.9-2.9v-20.6c-.1-1.7 1.2-3 2.8-3zM457.3 37.4c-.4 0-.7-.3-.7-.7v-7.4c0-.4.3-.7.7-.7h36.8c.4 0 .7.3.7.7v7.4c0 .4-.3.7-.7.7h-36.8zm36.1-7.4h-35.3v5.9h35.3V30z"/></g></svg>