<svg xmlns="http://www.w3.org/2000/svg" viewBox="0 0 1024 350"><path opacity=".2" fill="#FFF" d="M929.4 162.9c-11 0-20 9-20 20v56.8c0 29.1-23.6 52.6-52.6 52.6s-52.6-23.6-52.6-52.6V111.3c0-11-9-20-20-20s-20 9-20 20v67.4c0 23.3-18.9 42.1-42.1 42.1-23.3 0-42.1-18.9-42.1-42.1v-67.4c0-8.1-6.6-14.7-14.7-14.7s-14.7 6.6-14.7 14.7v105.3c0 29.1-23.6 52.6-52.6 52.6s-52.6-23.6-52.6-52.6v-80c0-8.1-6.6-14.7-14.7-14.7s-14.7 6.6-14.7 14.7v106.3c0 23.3-18.9 42.1-42.1 42.1s-42.1-18.9-42.1-42.1v-5.3c0-17.4-14.1-31.6-31.6-31.6-17.4 0-31.6 14.1-31.6 31.6v70.5h555.8c11.6 0 21.1-9.4 21.1-21.1V162.9h-16.1zM172.5 50.3c0 1.5-1.2 2.6-2.6 2.6H82c-11.6 0-21.1 9.4-21.1 21.1v200c0 11.6 9.4 21.1 21.1 21.1h87.9c1.5 0 2.6 1.2 2.6 2.6 0 5.8 4.7 10.5 10.5 10.5h33.7v-61.1s3.2-42.1 29.5-67.4 32.6-46.3 32.6-62.1V39.7H183c-5.8 0-10.5 4.7-10.5 10.6z"/><path fill="#FFF" d="M933.8 124.3c-.4-.4-1.1-.4-1.5 0s-.4 1.1 0 1.5l25.3 25.3c.2.2.5.3.7.3.3 0 .5-.1.7-.3.4-.4.4-1.1 0-1.5l-25.2-25.3zm25.3 2.1l-25.3-25.3c-.4-.4-1.1-.4-1.5 0s-.4 1.1 0 1.5l25.3 25.3c.2.2.5.3.7.3.3 0 .5-.1.7-.3.5-.5.5-1.1.1-1.5zm0-23.2l-25.3-25.3c-.4-.4-1.1-.4-1.5 0s-.4 1.1 0 1.5l25.3 25.3c.2.2.5.3.7.3.3 0 .5-.1.7-.3.5-.4.5-1.1.1-1.5zM255.4 291.1c-.4-.4-1.1-.4-1.5 0l-25.3 25.3c-.4.4-.4 1.1 0 1.5.2.2.5.3.7.3.3 0 .5-.1.7-.3l25.3-25.3c.5-.4.5-1.1.1-1.5zm23.1 0c-.4-.4-1.1-.4-1.5 0l-25.3 25.3c-.4.4-.4 1.1 0 1.5.2.2.5.3.7.3.3 0 .5-.1.7-.3l25.3-25.3c.5-.4.5-1.1.1-1.5zm23.2 0c-.4-.4-1.1-.4-1.5 0l-25.3 25.3c-.4.4-.4 1.1 0 1.5.2.2.5.3.7.3s.5-.1.7-.3l25.3-25.3c.5-.4.5-1.1.1-1.5zm23.1 0c-.4-.4-1.1-.4-1.5 0L298 316.4c-.4.4-.4 1.1 0 1.5.2.2.5.3.7.3s.5-.1.7-.3l25.3-25.3c.6-.4.6-1.1.1-1.5zm23.2 0c-.4-.4-1.1-.4-1.5 0l-25.3 25.3c-.4.4-.4 1.1 0 1.5.2.2.5.3.7.3s.5-.1.7-.3l25.3-25.3c.5-.4.5-1.1.1-1.5zm612.9-130.3h-13.8l-13.4-13.4c-.4-.4-1.1-.4-1.5 0s-.4 1.1 0 1.5l11.9 11.9h-14.8c-12.2 0-22.1 9.9-22.1 22.1v52.6h-101V111.3c0-12.2-9.9-22.1-22.1-22.1S762 99.1 762 111.3v57.9h-80v-57.9c0-9.3-7.6-16.8-16.8-16.8s-16.8 7.6-16.8 16.8V217.7h-101v-81.1c0-9.3-7.6-16.8-16.8-16.8s-16.8 7.6-16.8 16.8v95.8h-80.4c-2.5-16.1-16.5-28.4-33.3-28.4-18.6 0-33.7 15.1-33.7 33.7v56.9l-21.8 21.8c-.4.4-.4 1.1 0 1.5.2.2.5.3.7.3.3 0 .5-.1.7-.3l20.3-20.3v22.2c0 1.2.9 2.1 2.1 2.1s2.1-.9 2.1-2.1v-11.6h63.2v9.5h196.8v7.4h52.6v-7.4h196.8v-9.5h44.2c11.6 0 21.1-9.4 21.1-21.1V165H961c1.2 0 2.1-.9 2.1-2.1s-1-2.1-2.2-2.1zm-53.6 78.9c0 27.9-22.7 50.5-50.5 50.5-27.9 0-50.5-22.7-50.5-50.5h101zM682 173.4h14.2v25.3h52.6v-25.3H762v5.3c0 22.1-17.9 40-40 40s-40-17.9-40-40v-5.3zm-34 48.4c-2.6 25.4-24.2 45.3-50.3 45.3s-47.6-19.9-50.3-45.3H648zm-134.4 14.8v6.3c0 22.1-17.9 40-40 40s-40-17.9-40-40v-5.3-1.1l80 .1zm165.2 84.2h-44.2v-3.2h44.2v3.2zm196.9-7.4H437.8v-5.3h437.9v5.3zm65.2-26.3c0 9.3-7.6 16.8-16.8 16.8H370.4v-66.3c0-16.3 13.2-29.5 29.5-29.5s29.5 13.2 29.5 29.5v5.3c0 24.4 19.8 44.2 44.2 44.2s44.2-19.8 44.2-44.2V136.6c0-7 5.7-12.6 12.6-12.6s12.6 5.7 12.6 12.6v80c0 30.2 24.6 54.7 54.7 54.7s54.7-24.6 54.7-54.7V111.3c0-7 5.7-12.6 12.6-12.6s12.6 5.7 12.6 12.6v67.4c0 24.4 19.8 44.2 44.2 44.2s44.2-19.8 44.2-44.2v-67.4c0-9.9 8-17.9 17.9-17.9s17.9 8 17.9 17.9v128.4c0 30.2 24.6 54.7 54.7 54.7s54.7-24.6 54.7-54.7v-56.8c0-9.9 8-17.9 17.9-17.9h11.6v122.1h.2zm-586.1-183c2.9-.5 2.5-4 1.8-6.6l-6.2.7c-.1 0-.1 6.6 4.4 5.9zm18.4.2c.7-3.4.6-9.2-3.5-10.7-1-.4-4.8-1.3-6.4 5.5-1.1 4.9.6 10.8.6 10.8l6.2 1.3s2.6-4.6 3.1-6.9zm-8.8 15.3c4.4 1.2 5-5.4 5-5.4l-6.1-1.3c-1 2.5-1.8 5.9 1.1 6.7zM358 83.8c-.8-6.8-4.7-6.3-5.8-6.1-4.2 1-4.9 6.8-4.6 10.3.2 2.3 2.3 7.1 2.3 7.1l6.3-.7c0 .1 2.4-5.6 1.8-10.6zm111.7 97.1c-4.4-1.2-5 5.4-5 5.4l6.1 1.3c1-2.4 1.8-5.9-1.1-6.7zm-5.7 8.5s-2.6 4.5-3 6.8c-.7 3.4-.6 9.2 3.5 10.7 1 .4 4.8 1.3 6.4-5.5 1.1-4.9-.6-10.8-.6-10.8l-6.3-1.2zm12.1 27.3c.8 6.8 4.7 6.3 5.8 6.1 4.2-1 4.9-6.8 4.6-10.3-.2-2.3-2.3-7.1-2.3-7.1l-6.3.7s-2.4 5.6-1.8 10.6zm3.2-20.3c-2.9.5-2.5 4-1.8 6.6l6.2-.7c.1 0 .1-6.6-4.4-5.9zm116.3-30.2c-4.4-1.2-5 5.4-5 5.4l6.1 1.3c1-2.5 1.8-5.9-1.1-6.7zm-5.7 8.4s-2.6 4.5-3 6.8c-.7 3.4-.6 9.2 3.5 10.7 1 .4 4.8 1.3 6.4-5.5 1.1-4.9-.6-10.8-.6-10.8l-6.3-1.2zm12.1 27.3c.8 6.8 4.7 6.3 5.8 6.1 4.2-1 4.9-6.8 4.6-10.3-.2-2.3-2.3-7.1-2.3-7.1l-6.3.7s-2.4 5.7-1.8 10.6zm3.2-20.2c-2.9.5-2.5 4-1.8 6.6l6.2-.7c.1 0 .1-6.6-4.4-5.9zm123.2-50.6c-2.9.5-2.5 4-1.8 6.6l6.2-.7c0 .1.1-6.6-4.4-5.9zm-15.4-7s-2.6 4.5-3 6.8c-.7 3.4-.6 9.2 3.5 10.7 1 .4 4.8 1.3 6.4-5.5 1.1-4.9-.6-10.8-.6-10.8l-6.3-1.2zm5.8-8.4c-4.4-1.2-5 5.4-5 5.4l6.1 1.3c1-2.5 1.7-6-1.1-6.7zm6.4 35.7c.8 6.8 4.7 6.3 5.8 6.1 4.2-1 4.9-6.8 4.6-10.3-.2-2.3-2.3-7.1-2.3-7.1l-6.3.7c-.1 0-2.4 5.6-1.8 10.6zm136.9 46c-2.9.5-2.5 4-1.8 6.6l6.2-.7c0 .1.1-6.6-4.4-5.9zm-15.4-7s-2.6 4.5-3 6.8c-.7 3.4-.6 9.2 3.5 10.7 1 .4 4.8 1.3 6.4-5.5 1.1-4.9-.6-10.8-.6-10.8l-6.3-1.2zm12.2 27.3c.8 6.8 4.7 6.3 5.8 6.1 4.2-1 4.9-6.8 4.6-10.3-.2-2.3-2.3-7.1-2.3-7.1l-6.3.7c-.1 0-2.4 5.7-1.8 10.6zm-6.4-35.7c-4.4-1.2-5 5.4-5 5.4l6.1 1.3c1-2.5 1.7-6-1.1-6.7zm-349.4 72.5h-58.9v8.4h58.9v-8.4zm-2.2 6.3h-54.7v-4.2h54.7v4.2zm2.2-16.9h-16.8v6.3h16.8v-6.3zm-2.2 4.3h-12.6v-2.1h12.6v2.1zm-18.9-4.3h-16.8v6.3H482v-6.3zm-2.1 4.3h-12.6v-2.1h12.6v2.1zm-19-4.3h-16.8v6.3h16.8v-6.3zm-2.1 4.3h-12.6v-2.1h12.6v2.1zm175.8-22.1h-38.9v16.8h38.9v-16.8zm-2.1 14.7H622v-12.6h-2.1v12.6h-22.1v-12.6h34.7v12.6zm-7.3-7.4c.6 0 1.1-.5 1.1-1.1s-.5-1.1-1.1-1.1-1.1.5-1.1 1.1.5 1.1 1.1 1.1zm4.2 0c.6 0 1.1-.5 1.1-1.1s-.5-1.1-1.1-1.1-1.1.5-1.1 1.1.5 1.1 1.1 1.1zm-4.2 4.2c.6 0 1.1-.5 1.1-1.1s-.5-1.1-1.1-1.1-1.1.5-1.1 1.1.5 1.1 1.1 1.1zm4.2 0c.6 0 1.1-.5 1.1-1.1s-.5-1.1-1.1-1.1-1.1.5-1.1 1.1.5 1.1 1.1 1.1zm-62.1 3.2c3.5 0 6.3-2.8 6.3-6.3s-2.8-6.3-6.3-6.3-6.3 2.8-6.3 6.3c-.1 3.5 2.8 6.3 6.3 6.3zm0-10.5c2.3 0 4.2 1.9 4.2 4.2s-1.9 4.2-4.2 4.2-4.2-1.9-4.2-4.2c0-2.4 1.8-4.2 4.2-4.2zm17.3 8.9c2.6 0 4.7-2.1 4.7-4.7s-2.1-4.7-4.7-4.7-4.7 2.1-4.7 4.7 2.1 4.7 4.7 4.7zm0-7.4c1.5 0 2.6 1.2 2.6 2.6 0 1.5-1.2 2.6-2.6 2.6-1.5 0-2.6-1.2-2.6-2.6s1.2-2.6 2.6-2.6zm-11.5 13.7c0-.6-.5-1.1-1.1-1.1s-1.1.5-1.1 1.1c0 1.7 1.1 3.1 2.6 3.5v6.1c0 1.7 1.4 3.2 3.2 3.2s3.2-1.4 3.2-3.2V249c1.5-.5 2.6-1.9 2.6-3.5 0-.6-.5-1.1-1.1-1.1s-1.1.5-1.1 1.1c0 .9-.7 1.6-1.6 1.6h-1.1v8.1c0 .6-.5 1.1-1.1 1.1s-1.1-.5-1.1-1.1v-8.1h-1.1c-.5 0-1.2-.7-1.2-1.6zm-5.8-10c.6 0 1.1-.5 1.1-1.1s-.5-1.1-1.1-1.1-1.1.5-1.1 1.1.5 1.1 1.1 1.1zm22.4 17.6c.2.2.5.3.7.3s.5-.1.7-.3c.8-.8 3.6-1.8 5.6-1.8.6 0 1.1-.5 1.1-1.1s-.5-1.1-1.1-1.1c-2.1 0-5.7 1.1-7.1 2.4-.3.5-.3 1.2.1 1.6zm9.1-.7c-2.1 0-5.7 1.1-7.1 2.4-.4.4-.4 1.1 0 1.5.2.2.5.3.7.3.3 0 .5-.1.7-.3.8-.8 3.6-1.8 5.6-1.8.6 0 1.1-.5 1.1-1.1s-.4-1-1-1zm16-4.3c-1.1.1-2.4.1-3.4 0-1.4-.1-2.7-.2-3.5.6-.4.4-.6.9-.6 1.6 0 .7.2 1.2.6 1.6.8.7 2 .7 3.5.6 1.1-.1 2.4-.1 3.4 0 .5 0 .9.1 1.3.1.9 0 1.6-.1 2.1-.6.4-.4.6-.9.6-1.6 0-.7-.2-1.2-.6-1.6-.8-.9-2-.8-3.4-.7zm1.9 2.2c-.3.1-1.2 0-1.8 0s-1.2-.1-1.8-.1-1.3 0-1.8.1c-.7 0-1.5.1-1.8 0v-.2c.3-.1 1.2 0 1.8 0 1.1.1 2.6.1 3.7 0 .7 0 1.5-.1 1.8 0-.1.1-.1.1-.1.2zm216.9-4.2h-9.5v9.5h9.5v-9.5zm-2.1 7.3h-5.3v-5.3h5.3v5.3zm13.7-7.3h-9.5v9.5h9.5v-9.5zm-2.1 7.3h-5.3v-5.3h5.3v5.3zm13.6-7.3h-9.5v9.5h9.5v-9.5zm-2.1 7.3h-5.3v-5.3h5.3v5.3zm-21 4.2h-9.5v9.5h9.5v-9.5zm-2.1 7.4h-5.3v-5.3h5.3v5.3zm13.7-7.4h-9.5v9.5h9.5v-9.5zm-2.1 7.4h-5.3v-5.3h5.3v5.3zm13.6-7.4h-9.5v9.5h9.5v-9.5zm-2.1 7.4h-5.3v-5.3h5.3v5.3zm6.3-8.4h2.1v8.4c0 .6.5 1.1 1.1 1.1s1.1-.5 1.1-1.1v-8.4h2.1c.6 0 1.1-.5 1.1-1.1s-.5-1.1-1.1-1.1h-2.1v-6.3c0-.6-.5-1.1-1.1-1.1s-1.1.5-1.1 1.1v6.3h-2.1c-.6 0-1.1.5-1.1 1.1.1.6.6 1.1 1.1 1.1zm9.5 5.2h2.1v3.2c0 .6.5 1.1 1.1 1.1s1.1-.5 1.1-1.1v-3.2h2.1c.6 0 1.1-.5 1.1-1.1s-.5-1.1-1.1-1.1h-2.1V248c0-.6-.5-1.1-1.1-1.1s-1.1.5-1.1 1.1v11.6h-2.1c-.6 0-1.1.5-1.1 1.1.1.7.5 1.1 1.1 1.1zm9.5-9.4h2.1V265c0 .6.5 1.1 1.1 1.1s1.1-.5 1.1-1.1v-12.6h2.1c.6 0 1.1-.5 1.1-1.1s-.5-1.1-1.1-1.1h-2.1v-2.1c0-.6-.5-1.1-1.1-1.1s-1.1.5-1.1 1.1v2.1h-2.1c-.6 0-1.1.5-1.1 1.1s.5 1.1 1.1 1.1zm-26.3 29.4c-.6 0-1.1.5-1.1 1.1s.5 1.1 1.1 1.1 1.1-.5 1.1-1.1c-.1-.6-.5-1.1-1.1-1.1zm5.2 0c-.6 0-1.1.5-1.1 1.1s.5 1.1 1.1 1.1 1.1-.5 1.1-1.1c0-.6-.5-1.1-1.1-1.1zm-7.3-5.7c0 2.6 2.1 4.7 4.7 4.7s4.7-2.1 4.7-4.7-2.1-4.7-4.7-4.7-4.7 2-4.7 4.7zm7.3 0c0 1.5-1.2 2.6-2.6 2.6-1.5 0-2.6-1.2-2.6-2.6s1.2-2.6 2.6-2.6c1.5-.1 2.6 1.1 2.6 2.6zm-626.6 15c-.4-.4-1.1-.4-1.5 0L218.8 303v-55.9c0-17.8 3.3-41.3 28.8-65.9 22.1-21.2 33.3-42.6 33.3-63.6V43.9h-4.2v73.7c0 19.8-10.8 40.2-32 60.6-26.7 25.6-30.1 50.3-30.1 68.9v56.8H183c-3.5 0-6.3-2.8-6.3-6.3 0-3.8-3.1-6.8-6.8-6.8H82c-9.3 0-16.8-7.6-16.8-16.8V74c0-9.3 7.6-16.8 16.8-16.8h87.9c3.8 0 6.8-3.1 6.8-6.8 0-3.5 2.8-6.3 6.3-6.3h117.9v10.5h120V43.9h503.2c9.3 0 16.8 7.6 16.8 16.8v2.1h-11.6c-1.2 0-2.1.9-2.1 2.1 0 1.2.9 2.1 2.1 2.1h13.8l14.4 14.4c.2.2.5.3.7.3.3 0 .5-.1.7-.3.4-.4.4-1.1 0-1.5L946 67h14.8c1.2 0 2.1-.9 2.1-2.1 0-1.2-.9-2.1-2.1-2.1H945v-2.1c0-11.6-9.4-21.1-21.1-21.1h-39.5v-9.5h-34.7V25h-9.5v5.3h-13.7V25H817v5.3h-13.7V25h-9.5v5.3h-13.7V25h-9.5v5.3h-13.7V25h-9.5v5.3h-13.7V25h-9.5v5.3h-13.7V25H701v5.3h-13.7V25h-9.5v5.3h-34.7v9.5H183c-5.8 0-10.5 4.7-10.5 10.5 0 1.5-1.2 2.6-2.6 2.6H82c-11.6 0-21.1 9.4-21.1 21.1v200c0 11.6 9.4 21.1 21.1 21.1h87.9c1.5 0 2.6 1.2 2.6 2.6 0 5.8 4.7 10.5 10.5 10.5h31.6v11.6c0 1.2.9 2.1 2.1 2.1s2.1-.9 2.1-2.1V306l13.4-13.4c.4-.4.4-1.1 0-1.5zm610.3-264h5.3v3.2h-5.3v-3.2zm-23.1 0h5.3v3.2h-5.3v-3.2zm-23.2 0h5.3v3.2h-5.3v-3.2zm-23.1 0h5.3v3.2h-5.3v-3.2zm-23.2 0h5.3v3.2h-5.3v-3.2zm-23.2 0h5.3v3.2h-5.3v-3.2zm-23.1 0h5.3v3.2h-5.3v-3.2zm-23.2 0h5.3v3.2h-5.3v-3.2zm-32.6 7.4h232.6v5.3H647.8v-5.3zm-342.6 9.4h111.6v6.3H305.2v-6.3z"/></svg>