<svg width="589" height="210" viewBox="0 0 589 210" xmlns="http://www.w3.org/2000/svg"><title>illus-parcours-bus</title><g transform="matrix(-1 0 0 1 589 0)" fill-rule="nonzero" fill="#FFF"><path d="M451.7 70.6s-1.7 3-2 4.5c-.4 2.3-.4 6.1 2.3 7.1.7.2 3.2.8 4.2-3.6.7-3.2-.4-7.1-.4-7.1l-4.1-.9zm8 18.1c.5 4.5 3.1 4.2 3.8 4 2.8-.7 3.2-4.5 3-6.8-.1-1.5-1.5-4.7-1.5-4.7l-4.2.4c.1 0-1.5 3.8-1.1 7.1zM455.5 65c-2.9-.8-3.3 3.6-3.3 3.6l4.1.9c.6-1.7 1.1-4-.8-4.5zm6.4 10.2c-1.9.3-1.7 2.6-1.2 4.4l4.1-.4s0-4.4-2.9-4zM370 101h56v3h-56v-3z" id="Shape"/><circle id="Oval" cx="316.2" cy="146.3" r="5"/><path d="M332.2 151.8c-3 0-5.5-2.5-5.5-5.5s2.5-5.5 5.5-5.5 5.5 2.5 5.5 5.5c-.1 3-2.5 5.5-5.5 5.5zm0-10c-2.5 0-4.5 2-4.5 4.5s2 4.5 4.5 4.5 4.5-2 4.5-4.5c-.1-2.5-2.1-4.5-4.5-4.5zM416 108h-21v10h21v-10zm-8 8h-12v-6h12v6zm7 0h-6v-6h6v6z" id="Shape"/><circle id="Oval" cx="411" cy="114.2" r=".6"/><circle id="Oval" cx="411" cy="111.9" r=".6"/><circle id="Oval" cx="413.3" cy="114.2" r=".6"/><circle id="Oval" cx="413.3" cy="111.9" r=".6"/><path d="M382.9 113c0-1.9-1.5-3.4-3.4-3.4s-3.4 1.5-3.4 3.4 1.5 3.4 3.4 3.4 3.4-1.5 3.4-3.4zm-3.5 2.3c-1.3 0-2.3-1-2.3-2.3 0-1.3 1-2.3 2.3-2.3 1.3 0 2.3 1 2.3 2.3 0 1.3-1 2.3-2.3 2.3zM512 165v-6h-7v6h7zm-5-5h3v4h-3v-4zm-122.5-33.9c1 0 1.5-.8 1.5-1.7V121c1-.2 1.6-1 1.6-1.9 0-.3-.2-.6-.5-.6s-.5.3-.5.6c0 .5-.3.9-.8.9h-.8v4.3c0 .3-.2.6-.5.6s-.5-.3-.5-.6V120h-.5c-.5 0-.9-.4-.9-.9 0-.3-.3-.6-.6-.6s-.5.2-.5.6c0 .9.5 1.7 1.5 1.9v3.3c0 1 .5 1.8 1.5 1.8z" id="Shape"/><circle id="Oval" cx="379.4" cy="113" r=".6"/><path d="M405.3 120.5h-1.9c-.8-.1-1.4-.1-1.9.3-.2.2-.3.5-.3.9s.1.7.3.9c.4.4 1.1.4 1.9.3h2.6c.5 0 .9-.1 1.2-.3.2-.2.3-.5.3-.9s-.1-.7-.3-.9c-.4-.4-1.1-.4-1.9-.3zm1.1 1.1c0 .1 0 .1 0 0-.2.1-.6.1-1 .1h-2c-.4 0-.8.1-1 0 .2-.1.6 0 1 0h2c.4-.1.9-.1 1-.1zm122 11c.5 4.5 3.1 4.2 3.8 4 2.8-.7 3.2-4.5 3-6.8-.1-1.5-1.5-4.7-1.5-4.7l-4.2.4c0 .1-1.5 3.8-1.1 7.1zM104 181.3c-.3-.3-.8-.3-1.1 0l-8 7.9v-37c0-11.8 2.1-27.4 19-43.6 14.6-14.1 22-28.2 22-42.2V29h57v3h4.4l-4.7 4.7c-.2.2-.2.5 0 .7.1.1.2.1.4.1s.3 0 .4-.1l4.9-4.9c.2-.2.2-.4.1-.6h3.4l-9.1 9.1c-.2.2-.2.5 0 .7.1.1.2.1.4.1s.3 0 .4-.1l9.6-9.6c.1-.1.1-.2.1-.3h3.7l-14.1 14.1c-.2.2-.2.5 0 .7.1.1.2.1.4.1s.3 0 .4-.1L208.2 32c.1-.1.1-.2.1-.3h3.7l-19.1 19.1c-.2.2-.2.5 0 .7.1.1.2.1.4.1s.3 0 .4-.1l19.6-19.6c.1-.1.1-.2.1-.3h3.7L193 55.7c-.2.2-.2.5 0 .7.1.1.2.1.4.1s.3 0 .4-.1l24.6-24.6c.1-.1.1-.2.1-.3h3V17h55.8l-1.8 1.7v1.4l3.2-3.1h3.6l-6.8 6.7v1.4l8.2-8.1h3.6L275 28.7v1.4L288.2 17h70.6l-.8.8v1.4l2.2-2.2h3.6l-5.8 5.8v1.4l7.2-7.2h3.6L358 27.8v1.4L370.2 17H422v.2l.2-.2h3.6l-3.8 3.8v1.4l5.2-5.2h3.6l-8.8 8.8v1.4L432.2 17h49.6l-1.8 1.8v1.4l3.2-3.2h3.6l-6.8 6.8v1.4l8.2-8.2h3.6L480 28.8v1.4L493.2 17h3.6L480 33.8v1.4l17-16.8V17h65.6c6.2 0 11.4 5.4 11.4 11.6V30h-7.9c-.8 0-1.4.7-1.4 1.5s.6 1.5 1.4 1.5h9.1l9.6 9.5c.1.1.3.2.5.2s.4-.1.5-.2c.3-.3.3-.6 0-.9l-8.6-8.5h9.8c.8 0 1.4-.7 1.4-1.5s-.6-1.5-1.4-1.5h-10v-1.4c0-7.7-6.7-13.6-14.4-13.6H533V5h-9V0h-6v5h-9V0h-6v5h-9V0h-7v5h-9V0h-6v5h-9V0h-6v5h-10V0h-6v5h-9V0h-6v5h-9V0h-6v5h-10v10H88.5C39.4 15 0 54.7 0 103.8v.1C0 153 39.4 193 88.5 193H92v7.2c0 .8.7 1.4 1.5 1.4s1.5-.6 1.5-1.4v-9.1l8.9-8.9c.3-.2.4-.7.1-.9zM519 1h4v4h-4V1zm-15 0h3v4h-3V1zm-15 0h3v4h-3V1zm-16 0h4v4h-4V1zm-15 0h3v4h-3V1zm-15 0h3v4h-3V1zm-16 0h4v4h-4V1zm-15 0h3v4h-3V1zm-8 7h127v7H404V8zM193 26h-56v-8h56v8zM92 152.1V190h-3.5c-23 0-44.7-9.1-60.9-25.4-16.3-16.3-25.2-38-25.2-61s9-44.9 25.2-61.2C43.9 26.2 65.5 17 88.5 17H134v49.3c0 13.1-7.6 26.7-21.6 40.2C94.7 123.4 92 139.8 92 152.1z" id="Shape"/><path d="M254 150h-12v4h12v-4zm-2 3h-8v-2h8v2zm333.8-80.9L569 55.3c-.3-.3-.7-.3-1 0-.3.3-.3.7 0 1L584.7 73c.1.1.3.2.5.2s.4-.1.5-.2c.3-.2.3-.7.1-.9zM391.5 113c0-1.4-1.2-2.6-2.6-2.6-1.4 0-2.6 1.2-2.6 2.6 0 1.4 1.2 2.6 2.6 2.6 1.4 0 2.6-1.1 2.6-2.6zm-4 0c0-.8.6-1.4 1.4-1.4.8 0 1.4.6 1.4 1.4 0 .8-.6 1.4-1.4 1.4-.8 0-1.4-.6-1.4-1.4zM240 150h-12v4h12v-4zm-2 3h-8v-2h8v2zm331-82.3c-.3-.3-.7-.3-1 0-.3.3-.3.7 0 1l16.7 16.7c.1.1.3.2.5.2s.4-.1.5-.2c.3-.3.3-.7 0-1L569 70.7zM268 150h-12v4h12v-4zm-2 3h-8v-2h8v2zm254.3-38.5s-1.7 3-2 4.5c-.4 2.3-.4 6.1 2.3 7.1.7.2 3.2.8 4.2-3.6.7-3.2-.4-7.1-.4-7.1l-4.1-.9zm3.8-5.6c-2.9-.8-3.3 3.6-3.3 3.6l4.1.9c.6-1.7 1.1-4-.8-4.5zm6.4 10.3c-1.9.3-1.7 2.6-1.2 4.4l4.1-.4c0-.1.1-4.5-2.9-4zM268 157h-40v6h40v-6zm-2 4h-36v-3h36v3zM585.8 56.7L569 40c-.3-.3-.7-.3-1 0-.3.3-.3.7 0 1l16.7 16.7c.1.1.3.2.5.2s.4-.1.5-.2c.3-.3.3-.7.1-1zM119.4 181.3c-.3-.3-.7-.3-1 0L101.6 198c-.3.3-.3.7 0 1 .1.1.3.2.5.2s.4-.1.5-.2l16.7-16.7c.3-.3.3-.8.1-1z" id="Shape"/><circle id="Oval" cx="524.9" cy="175.8" r=".7"/><path d="M180.8 181.3c-.3-.3-.7-.3-1 0L163 198c-.3.3-.3.7 0 1 .1.1.3.2.5.2s.4-.1.5-.2l16.7-16.7c.3-.3.3-.8.1-1zm-15.4 0c-.3-.3-.7-.3-1 0L147.7 198c-.3.3-.3.7 0 1 .1.1.3.2.5.2s.4-.1.5-.2l16.7-16.7c.3-.3.3-.8 0-1zM542.3 156h1.7v8c0 .4.1.7.5.7s.5-.3.5-.7v-8h1.5c.4 0 .7-.6.7-1s-.3-1-.7-1H545v-1.2c0-.4-.1-.7-.5-.7s-.5.3-.5.7v1.2h-1.7c-.4 0-.7.6-.7 1s.3 1 .7 1z" id="Shape"/><circle cx="528.3" cy="175.8" r=".7"/><path d="M519 151h-6v7h6v-7zm-1 5h-4v-3h4v3zm-367.9 25.3c-.3-.3-.7-.3-1 0L132.3 198c-.3.3-.3.7 0 1 .1.1.3.2.5.2s.4-.1.5-.2l16.7-16.7c.3-.3.3-.8.1-1zm-15.4 0c-.3-.3-.7-.3-1 0L117 198c-.3.3-.3.7 0 1 .1.1.3.2.5.2s.4-.1.5-.2l16.7-16.7c.3-.3.3-.8 0-1zM512 151h-7v7h7v-7zm-2 5h-3v-3h3v3zm26 6h1v2c0 .4.6.7 1 .7s1-.3 1-.7v-2h1.2c.4 0 .7-.6.7-1s-.3-1-.7-1H539v-7.2c0-.4-.6-.7-1-.7s-1 .3-1 .7v7.2h-1c-.4 0-.7.6-.7 1s.3 1 .7 1zm-17-3h-6v6h6v-6zm-1 5h-4v-4h4v4zm9-13h-6v7h6v-7zm-1 5h-4v-3h4v3zm1 3h-6v6h6v-6zm-1 5h-4v-4h4v4zM159.1 61.1c1.9-.3 1.7-2.6 1.2-4.4l-4.1.4c-.1.1-.1 4.5 2.9 4zM529.7 158h1.3v6c0 .4.6.7 1 .7s1-.3 1-.7v-6h.9c.4 0 .7-.1.7-.5s-.3-.5-.7-.5h-.9v-4.2c0-.4-.6-.7-1-.7s-1 .3-1 .7v4.2h-1.3c-.4 0-.7.1-.7.5s.4.5.7.5zm-6.2 13.3c0 1.7 1.4 3.1 3.1 3.1 1.7 0 3.1-1.4 3.1-3.1 0-1.7-1.4-3.1-3.1-3.1-1.7-.1-3.1 1.3-3.1 3.1zm4.8 0c0 1-.8 1.7-1.7 1.7-1 0-1.7-.8-1.7-1.7 0-.9.8-1.7 1.7-1.7 1-.1 1.7.7 1.7 1.7zM165.4 71.4c2.9.8 3.3-3.6 3.3-3.6l-4.1-.9c-.6 1.7-1.1 4 .8 4.5zm231.7 16.3c.5 4.5 3.1 4.2 3.8 4 2.8-.7 3.2-4.5 3-6.8-.1-1.5-1.5-4.7-1.5-4.7l-4.2.4c.1.1-1.5 3.8-1.1 7.1zm2.1-13.5c-1.9.3-1.7 2.6-1.2 4.4l4.1-.4c.1 0 .1-4.4-2.9-4zm-72.1 48c.5 4.5 3.1 4.2 3.8 4 2.8-.7 3.2-4.5 3-6.8-.1-1.5-1.5-4.7-1.5-4.7l-4.2.4c.1 0-1.5 3.8-1.1 7.1zm2.2-13.5c-1.9.3-1.7 2.6-1.2 4.4l4.1-.4c0-.1 0-4.5-2.9-4zm-168.1-61c-.5-4.5-3.1-4.2-3.8-4-2.8.7-3.2 4.5-3 6.8.1 1.5 1.5 4.7 1.5 4.7l4.2-.4c-.1-.1 1.5-3.8 1.1-7.1zm232 77.4c.1 0 .3-.1.4-.2.4-.4 2-1 3-1 .3 0 .6-.3.6-.6s-.3-.6-.6-.6c-1.2 0-3.1.6-3.9 1.3-.2.2-.2.6 0 .8.2.3.4.3.5.3zm-70.3-26.6c-2.9-.8-3.3 3.6-3.3 3.6l4.1.9c.6-1.7 1.1-4-.8-4.5zm69.2 24.9c.1 0 .3-.1.4-.2.4-.4 2-1 3-1 .3 0 .6-.3.6-.6s-.3-.6-.6-.6c-1.2 0-3.1.6-3.9 1.3-.2.2-.2.6 0 .8.2.2.3.3.5.3zm.8-59.4c-2.9-.8-3.3 3.6-3.3 3.6l4.1.9c.6-1.7 1.1-4-.8-4.5zm-151.3 49.8s-1.7 3-2 4.5c-.4 2.3-.4 6.1 2.3 7.1.7.2 3.2.8 4.2-3.6.7-3.2-.4-7.1-.4-7.1l-4.1-.9zm-70.4-52.6c.4-2.3.4-6.1-2.3-7.1-.7-.2-3.2-.8-4.2 3.6-.7 3.2.4 7.1.4 7.1l4.1.9c0 .1 1.8-3 2-4.5zm215.9 12.9c-.4 2.3-.4 6.1 2.3 7.1.7.2 3.2.8 4.2-3.6.7-3.2-.4-7.1-.4-7.1l-4.1-.9s-1.8 3-2 4.5zm-68 30s-1.7 3-2 4.5c-.4 2.3-.4 6.1 2.3 7.1.7.2 3.2.8 4.2-3.6.7-3.2-.4-7.1-.4-7.1l-4.1-.9zm-69.4 27.8c.5 4.5 3.1 4.2 3.8 4 2.8-.7 3.2-4.5 3-6.8-.1-1.5-1.5-4.7-1.5-4.7l-4.2.4c0 .1-1.5 3.8-1.1 7.1zm-4.3-23.7c-2.9-.8-3.3 3.6-3.3 3.6l4.1.9c.6-1.7 1.1-4-.8-4.5zm6.4 10.3c-1.9.3-1.7 2.6-1.2 4.4l4.1-.4c0-.1.1-4.5-2.9-4z" id="Shape"/><path d="M587 95h-9.1l-8.9-8.9c-.3-.3-.7-.3-1 0-.3.3-.3.8 0 1l7.9 7.9h-9.8c-8.1 0-11.1 6.5-11.1 14.5V144h-58V61c0-4.4-.1-8.4-1.5-11.2l1.5-1.4V47l-2 2c-.5-.7-1.1-1.3-1.9-1.7l3.9-3.8V42l-4.8 4.8c-.9-.3-1.9-.5-3-.6l7.9-7.8V37l-9.3 9.3c-7.1.5-7.7 6.7-7.7 14.4V100h-46V57c0-2.4 0-4.6-.3-6.4l.3-.3v-1.4l-.6.6c-.3-.9-.7-1.7-1.3-2.3l2-1.9v-1.4l-2.8 2.8c-.7-.4-1.7-.7-2.9-.7l5.7-5.6V39l-7.1 7.1c-2.9.3-4 2-4.5 4.4l-.4.4v1.4l.2-.2c-.1 1.5-.1 3.2-.1 5h-.3v50.5c0 .1.4 11.2-6.7 18.6-4.2 4.4-10.3 6.7-18.1 6.7-8.1 0-14.5-2.3-19-6.9-7.3-7.5-7.2-18.7-7.2-18.8V55.4c0-.3.1-1.9-.4-3.7l.4-.4v-1.4l-.7.7c-.3-.8-.7-1.6-1.3-2.3l2-2v-1.4l-2.7 2.7c-.7-.6-1.5-1-2.4-1.2l5.1-5.1v-1.4l-6.4 6.4c-1.8 0-3.3.6-4.5 1.8-2.5 2.6-2.1 7-2.1 7.1V132c0 .2-.2.1-.2 1.1h-66.9c0-1 .1-.9.1-1.1V56.8c0-2.5-.3-4.8-1.2-6.6L291 49v-1.4l-1.6 1.7c-.4-.8-1-1.4-1.6-2L291 44v-1.4l-4.1 4.1c-.8-.5-1.6-.8-2.6-.9L291 39v-1.4l-8 8.1h-.9c-1.3.1-2.4.5-3.3 1L291 34.4V33l-16 16.2v1.4l1.8-1.8c-1.3 2-1.8 4.9-1.8 8V142h-53.8c-.1 0-.1-.6-.2-1V76h-2.4l2.4-2.4c.2-.2.2-.5 0-.7-.2-.2-.5-.2-.7 0l-3.1 3.1h-3l6.7-6.7c.2-.2.2-.5 0-.7-.2-.2-.5-.2-.7 0l-7.5 7.5h-3.6l11.7-11.7c.2-.2.2-.5 0-.7-.2-.2-.5-.2-.7 0L207.8 76h-3.6l16.7-16.7c.2-.2.2-.5 0-.7-.2-.2-.5-.2-.7 0L202.8 76h-3.2l21.5-21.5c.2-.2.2-.5 0-.7-.2-.2-.5-.2-.7 0L198.1 76h-4l26.7-26.7c.2-.2.2-.5 0-.7-.2-.2-.5-.2-.7 0l-27.6 27.6c-.2.2-.2.5 0 .7.1.1.2.1.4.1v63.5c-.1 1.7 0 3.5 0 5.3v37.7L178.5 198c-.3.3-.3.7 0 1 .1.1.3.2.5.2s.4-.1.6-.2l13.5-13.5v14.7c0 .8.7 1.4 1.5 1.4s1.5-.6 1.5-1.4V193h41v9h140v8h35v-8h121v-9h29.6c7.7 0 14.4-6.7 14.4-14.4V98h10c.8 0 1.4-.7 1.4-1.5s-.7-1.5-1.5-1.5zm-153 8h10v17h27v-17h9v3.7c0 14.6-7.9 26.5-22.5 26.5S434 121.3 434 106.7V103zm-76.4 32c-2 20-16 30-33.3 30-17.3 0-31.6-13-33.3-30h66.6zM221 149.3v-3.5c0-.2.5-.8.5-.8H275v4.3c0 14.6-12.4 26.5-27 26.5s-27-11.9-27-26.5zM409 207h-9.9c-.6-2-2.5-3.5-4.7-3.5s-4.1 1.5-4.7 3.5H380v-5h29v5zm122-7H240v-7h291v7zm-4-19.5c-18.5 0-29.5-14.5-29.5-33.5h58c-.1 19-10.1 33.5-28.5 33.5zm-306.1-147c-.2-.2-.5-.2-.7 0l-27.6 27.6c-.2.2-.2.5 0 .7.1.1.2.1.4.1s.3 0 .4-.1L221 34.2c.1-.1.1-.5-.1-.7zm0 5c-.2-.2-.5-.2-.7 0l-27.6 27.6c-.2.2-.2.5 0 .7.1.1.2.1.4.1s.3 0 .4-.1L221 39.2c.1-.1.1-.5-.1-.7zm-.7 5l-27.6 27.6c-.2.2-.2.5 0 .7.1.1.2.1.4.1s.3 0 .4-.1L221 44.2c.2-.2.2-.5 0-.7-.2-.2-.6-.1-.8 0zM291 17.6l-16 16.1v1.4L291 19v-1.4zm0 5l-16 16.1v1.4L291 24v-1.4zm-16 22.5L291 29v-1.4l-16 16.1v1.4zm96-25.4l-13 13.1v1.4l13-13.1v-1.4zm0 5l-13 13.1v1.4l13-13.1v-1.4zm0 5l-13 13.1v1.4l13-13.1v-1.4zm-13 19.8l13-13v-1.4l-13 13v1.4zm76-30.6l-12 11.9v1.4l12-11.9v-1.4zm0 5l-12 11.9v1.4l12-11.9v-1.4zm0 5l-12 11.9v1.4l12-11.9v-1.4zm-12 18.6l12-11.8v-1.4l-12 11.8v1.4zM497 22l-17 16.8v1.4l17-16.8V22zm0 5l-17 16.8v1.4l17-16.8V27zm-17 23.5l17-16.7v-1.4l-17 16.7v1.4z"/></g></svg>